<svg id="Layer_1" data-name="Layer 1" xmlns="http://www.w3.org/2000/svg" viewBox="0 0 872.25 746"><defs><style>.cls-1,.cls-6{fill:#f2f2f2;}.cls-2,.cls-25{fill-opacity:0.1;}.cls-11,.cls-3{fill:#afb9c5;}.cls-12,.cls-13,.cls-14,.cls-15,.cls-17,.cls-18,.cls-19,.cls-20,.cls-21,.cls-22,.cls-23,.cls-24,.cls-25,.cls-3,.cls-6,.cls-7{fill-rule:evenodd;}.cls-12,.cls-4{fill:#c5cfd6;}.cls-5{opacity:0.35;}.cls-7,.cls-8{fill:#dde3e9;}.cls-9{opacity:0.7;}.cls-10{fill:none;stroke:#cbcbcb;stroke-width:8px;}.cls-13{fill:#89c5cc;}.cls-14{fill:#c1dee2;}.cls-15{fill:#69a1ac;}.cls-16{fill:#fff;}.cls-17{fill:#915b3c;}.cls-18{fill:#191847;}.cls-19{fill:#b28b67;}.cls-20{fill:#2f3676;}.cls-21{fill:#e4e4e4;}.cls-22{fill:#5c63ab;}.cls-23{fill:#e87613;}.cls-24{fill:#ff9b21;}</style></defs><g id="Scene_Home" data-name="Scene/Home"><g id="Clock"><circle id="Clock-Frame" class="cls-1" cx="684.16" cy="131.98" r="66.9"/><circle id="Time" class="cls-2" cx="684.16" cy="78.97" r="3.79"/><circle id="Time-2" data-name="Time" class="cls-2" cx="631.15" cy="131.98" r="3.79"/><circle id="Time-3" data-name="Time" class="cls-2" cx="737.18" cy="131.98" r="3.79"/><circle id="Time-4" data-name="Time" class="cls-2" cx="684.16" cy="185" r="3.79"/><polygon id="Hand" class="cls-3" points="684.16 86.75 686.69 130.93 681.64 130.93 684.16 86.75"/><polygon id="Hand-2" data-name="Hand" class="cls-3" points="706.5 154.32 683.3 134.69 686.87 131.12 706.5 154.32"/><circle id="Time-5" data-name="Time" class="cls-4" cx="684.16" cy="131.98" r="5.05"/></g><g id="Background-Shape-2" class="cls-5"><path id="Background-Shape" class="cls-6" d="M613.21,483.39c-8.7-97.26-475.66-285-562.36-192.86s-3.34,265,178.33,309.28S621.92,580.64,613.21,483.39Z"/><path id="Background-Shape-2-2" data-name="Background-Shape" class="cls-7" d="M324.59,546.58c7.8-82.62,426.09-242.1,503.74-163.84s58,242.87-104.73,280.48S316.8,629.2,324.59,546.58Z"/></g><g id="Hanging-Lamp"><g id="Light"><ellipse id="Hanging-Lamp-Light" class="cls-1" cx="137.84" cy="236.05" rx="53.65" ry="28.4"/><path id="Hanging-Lamp-2" data-name="Hanging-Lamp" class="cls-7" d="M200.33,255.62c0-34.86-28-63.12-62.49-63.12s-62.48,28.26-62.48,63.12"/></g><rect id="Wire" class="cls-8" x="135.26" width="6.31" height="201.97"/></g><g id="Hanging-Lamp-3" data-name="Hanging-Lamp" class="cls-9"><g id="Light-2" data-name="Light"><ellipse id="Hanging-Lamp-Light-2" data-name="Hanging-Lamp-Light" class="cls-1" cx="235.67" cy="177.57" rx="40.1" ry="22.92"/><path id="Hanging-Lamp-4" data-name="Hanging-Lamp" class="cls-7" d="M282.38,193.36c0-28.13-20.91-50.94-46.71-50.94S189,165.23,189,193.36"/></g><rect id="Wire-2" data-name="Wire" class="cls-8" x="233.72" width="6.31" height="171.67"/></g><g id="Lamp"><path id="Body" class="cls-10" d="M717.56,253.46,741,230a10.09,10.09,0,0,1,14.28,0h0l62.4,62.43a20.2,20.2,0,0,1,5.91,14.27V720.43"/><rect id="Lamp-Base" class="cls-11" x="785.72" y="719.16" width="74.48" height="8.84" rx="3.79"/><g id="Lamp-Top"><path id="Lamp-2" data-name="Lamp" class="cls-12" d="M731.08,239.7h0a41.65,41.65,0,0,1,0,58.91l-25,25-58.91-58.91,25-25A41.65,41.65,0,0,1,731.08,239.7Z"/><ellipse id="Lamp-3" data-name="Lamp" class="cls-1" cx="677.63" cy="293.47" rx="8.2" ry="41.66" transform="translate(-9.04 565.11) rotate(-45)"/></g></g><g id="Big-Leaf-Plant"><g id="Big-Ass-Leaf"><path id="leaf" class="cls-7" d="M59.65,427.58a21.34,21.34,0,0,1,10.84,1.14c7.15,3,9.18,11.48,9.09,18.35-.11,7.39-1.68,15.46,3.94,21.41,2.58,2.74,5.8,4.84,8.33,7.62a36,36,0,0,1,6.41,10c2.89,6.73,4.31,14.63,1.67,21.69-2.33,6.21-8.19,11.81-6.92,18.87,1.32,7.37,8.75,13,13.39,18.49,5.25,6.2,10.09,14.14,10.89,22.28.76,7.81-2.64,15.7-7.85,21.6C99,600.86,83.37,606.64,67.58,606.61c-6.7,0-14.29-.32-20.07-3.92a11.11,11.11,0,0,1-3.79-4.1,13.49,13.49,0,0,0-3.67-3.67,21.78,21.78,0,0,1-7-9.34c-5.73-14.18-1.15-31.72,6.87-44.31,1.9-3,3.45-5.85,2.53-9.41-1-3.71-3.33-7.06-5.42-10.25S32.6,515.45,31,512a21.64,21.64,0,0,1-1.87-11.22c.56-7.34,3.73-14.12,8.22-20,4.32-5.69,9.39-11.13,9.4-18.58,0-7.9-5.26-14.93-3-23,.93-3.32,2.8-6.74,5.81-8.73S56.25,428,59.65,427.58Z"/><path id="middle-thing" class="cls-12" d="M57.29,440.21a1.83,1.83,0,0,1,2.32-1.43c1.3.37,1.28,1.59,1.24,2.67A36.18,36.18,0,0,0,62,451.27c1.67,6.73,4.75,12.93,7.19,19.4s3.58,13.13,2.15,20c-1.35,6.45-3.47,12.72-4.85,19.18-1.21,5.68-2.51,11.68-.65,17.36,1.78,5.46,5.72,9.9,8.56,14.84,5.87,10.21,8.48,21.55,8.83,33.21A62.44,62.44,0,0,1,82,591.41c-.73,3.06-1.7,7.19-4.32,9.3-1.21,1-3.27,1.31-4.29-.13s-.12-3.44.19-4.88a74.49,74.49,0,0,0,1.26-19,68.66,68.66,0,0,0-3-18.12,61.52,61.52,0,0,0-7.73-15.09c-3.26-4.85-6.66-9.71-8-15.45s-.25-11.78,1.24-17.5c1.57-6.06,3.63-11.94,5.77-17.83a31.34,31.34,0,0,0,1.67-17.18C62.57,463.71,56.5,452.57,57.29,440.21Z"/></g><g id="Big-Ass-Leaf-2" data-name="Big-Ass-Leaf"><path id="leaf-2" data-name="leaf" class="cls-7" d="M155.13,442c4.47,1.36,8.92,3.55,12.1,7,6.79,7.31,4.71,18.35,1,26.42-4,8.69-10.14,17.42-6.69,27.38,1.58,4.58,4.24,8.73,5.74,13.35a46.32,46.32,0,0,1,2.21,15.22c-.16,9.45-2.68,19.54-9.51,26.51-6,6.13-15.84,9.71-18.09,18.72-2.34,9.4,3.39,19.92,5.94,28.83,2.88,10.07,4.36,22,1,32-3.23,9.62-11.39,17.19-20.62,21.45-18.45,8.52-39.86,7.21-58.36-1C62,654.32,53.21,650,48.33,642.75A14.26,14.26,0,0,1,46,635.93a17,17,0,0,0-2.36-6.25A28.13,28.13,0,0,1,40.42,615c.77-19.75,15.42-38.11,31.48-48.83,3.8-2.54,7.14-5.13,7.94-9.81.83-4.89-.18-10.09-1-15s-1.94-9.59-2-14.46a28.32,28.32,0,0,1,3.74-14.25c4.54-8.39,11.83-14.75,20.22-19.4,8.07-4.48,16.9-8.27,20.86-17.08,4.19-9.34,1.71-20.39,8.59-28.72,2.85-3.45,6.85-6.51,11.44-7.3C146.11,439.46,150.92,440.7,155.13,442Z"/><path id="middle-thing-2" data-name="middle-thing" class="cls-12" d="M146,457.42a2.32,2.32,0,0,1,3.45-.47c1.33,1.11.67,2.54.06,3.81A47.2,47.2,0,0,0,145.73,473c-1.57,8.85-1.22,17.81-1.75,26.74s-2.69,17.43-7.94,24.77c-4.95,6.93-10.72,13.25-15.71,20.17-4.4,6.1-9,12.52-9.86,20.21-.78,7.4,1.5,14.73,2.24,22.07,1.52,15.17-1.37,30-7.07,43.95-2.65,6.5-5.68,12.9-9.93,18.53-2.45,3.24-5.75,7.63-9.92,8.75-1.92.52-4.52-.16-5-2.4s1.67-4.14,2.78-5.69A96.9,96.9,0,0,0,95,628.31a89.47,89.47,0,0,0,6-23,80.16,80.16,0,0,0-1.13-21.91c-1.28-7.46-2.7-15-1.27-22.5s5.86-14.08,10.6-20.08c5-6.34,10.51-12.23,16.09-18.09,5.43-5.7,9.14-11.75,10.94-19.46C139.85,488,138.59,471.64,146,457.42Z"/></g><g id="Big-Ass-Leaf-3" data-name="Big-Ass-Leaf"><path id="leaf-3" data-name="leaf" class="cls-12" d="M16.8,498.05c7.44,0,14,3.94,18.49,9.54,5.27,6.55,6.34,14.55,8.48,22.36,1.07,3.88,2.9,7.74,6.11,10.38,2.93,2.4,6.64,2.88,10.13,4.06a23.62,23.62,0,0,1,14.87,14.88c2.72,8.4-.16,16.88.34,25.4.45,7.82,8.16,12.7,14.37,16.45s11.63,7.16,13.47,14.37c2,7.64,2.61,16.16-.09,23.71-4.51,12.57-17.7,18.1-30.44,19-11.57.78-26.11-.44-34.8-8.84-5.2-5-7.08-12.05-6.85-19A58.56,58.56,0,0,1,33,617.42c.79-3,1.86-5.94,2.16-9,.81-8.19-6.76-9.76-13.19-12-8.19-2.85-13.92-8.25-17.9-15.77-3.71-7-5.27-14.85-3-22.55a26.12,26.12,0,0,1,6-10.54c1.23-1.34,3-2.46,4.07-3.86s.81-3,.45-4.54c-1.65-7.1-6.79-13-8.63-20-1.66-6.39-.68-14.35,5.16-18.47A15.3,15.3,0,0,1,16.8,498.05Z"/><path id="middle-thing-3" data-name="middle-thing" class="cls-3" d="M26.93,516.53c7.89,8.4,10,19.8,10.66,30.84.36,6.2,0,12.73,1.81,18.74,1.56,5.14,5.21,9.07,9,12.79,7.57,7.48,16,15.08,18.24,25.9,1.3,6.36.42,12.92,2.21,19.2a52.88,52.88,0,0,0,8,16.14c2.82,3.89,6.49,6.86,9.57,10.48.93,1.1,2.28,2.73,1.89,4.29-.45,1.83-2.78,2.4-4.43,2.12-3.85-.67-7.09-4.35-9.61-7a60.49,60.49,0,0,1-9.34-12.82,53.71,53.71,0,0,1-6.07-16.67c-1-6.09-.51-12.44-2.81-18.29-3.87-9.84-13.26-15.64-20-23.31-8.46-9.56-7.2-21.45-6.33-33.21.47-6.46.94-13.75-2.32-19.65-1.25-2.25-4-4.35-4.56-6.91C22.29,516.8,25,514.43,26.93,516.53Z"/></g><path id="Base" class="cls-13" d="M35.34,654.79c0,48,7.84,73.21,49.23,73.21s49.23-25.17,49.23-73.21Z"/></g><g id="Table"><g id="Lamp-4" data-name="Lamp"><rect id="Lamp-Base-2" data-name="Lamp-Base" class="cls-11" x="206.33" y="585.36" width="47.97" height="11.36" rx="2.52"/><path id="Lamp-Body" class="cls-7" d="M218.38,548.75a211.8,211.8,0,0,0,9.11-55.54h5.76a211.39,211.39,0,0,0,9.11,55.54h7.69c10.05,0,18.86,7.36,20,17.34a19.58,19.58,0,0,1-19.44,21.8H209.42c-10,0-18.85-7.36-19.95-17.35a19.57,19.57,0,0,1,19.44-21.79Z"/><path id="Shade" class="cls-12" d="M185.08,405.49q21.71-2.12,43.4-2.11t43.39,2.11l5.83,100.3q-24.6,2.35-49.22,2.36t-49.23-2.36Z"/></g><path class="cls-6" d="M177.29,596.72H308.57V728H282.06V624.49H177.29V728H150.78V596.72Z"/></g><g id="Plant"><g id="Succulents"><path id="Thi-Succs_" data-name="Thi-Succs!" class="cls-14" d="M678.33,372.08c11.15,26.5,30.11,44.9,40.15,72.45,5.95,16.34,8.43,34.1,8.58,52.3.08,9.88-.09,19.77-.14,29.65,0,9.63-.3,19.21-1.12,28.78s-1.74,19.14-2.15,28.83c-.32,7.54-.46,16.32-3,23.2-2,5.48-7.2,6.28-8.57-.36a52.88,52.88,0,0,1-.59-11.61c.11-4.86.4-9.72.54-14.59.58-19.52-.17-39.05.22-58.58.38-19.09,2.84-38.15.12-57.11-2.24-15.65-7.93-29.09-14.48-42-6.29-12.4-13.14-24.5-17.4-38.6a68.71,68.71,0,0,1-2.62-12.6C678.05,371.76,678.21,371.84,678.33,372.08Z"/><path id="Thi-Succs_2" data-name="Thi-Succs!" class="cls-13" d="M675.29,424.35c2.21,1.6,3.45,3.93,4.94,6.23,1.85,2.86,4,5.44,5.89,8.31,3.87,6,7.27,12.3,10.8,18.51a121.43,121.43,0,0,1,14.29,38c2.61,14.13,3.31,28.72,4.41,43.07,1.16,15.2,2.33,30.51,2.48,45.78.07,6.83.44,14.09-.38,20.88-.51,4.23-2.42,7.83-6.72,7.8-9.13-.08-13.42-10.19-15.21-18.49-2.64-12.22-3.17-25.2-2.75-37.69.51-15.07,3.12-29.91,4.25-44.92,1.2-15.89.52-31.49-4.94-46.45-2.76-7.56-6-14.94-8.84-22.45a71.13,71.13,0,0,0-3.88-9.46c-1.84-3.31-4.12-6.32-5.56-9.89Z"/><path id="Thi-Succs_3" data-name="Thi-Succs!" class="cls-14" d="M780.52,392.67l.84-.65c-.81,3.39-2.26,6.16-3.38,9.26a75.53,75.53,0,0,0-2.18,9c-1.58,7.17-3.41,14.18-4.91,21.41-3,14.31-2.4,29.73-.46,45.61,1.84,15,4.74,30,6.12,45,1.14,12.44,1.64,25.26.54,37.13-.74,8.05-3.17,17.68-9.81,16.86-3.12-.38-4.75-4.14-5.4-8.38-1.06-6.82-1.28-14-1.69-20.76-.92-15.12-1.1-30.2-1.28-45.17-.17-14.12-.64-28.52.3-42.29a129.54,129.54,0,0,1,7.83-36.3c2.14-5.82,4.18-11.78,6.59-17.32,1.16-2.66,2.57-5,3.72-7.67C778.28,396.23,779,394,780.52,392.67Z"/><path id="Thi-Succs_4" data-name="Thi-Succs!" class="cls-14" d="M678.12,468.13c1.2-2,3.86,4.66,4.27,5.5-.17-.41-.35-.83-.52-1.25a55.94,55.94,0,0,1,6,12.71c1.35,4.52,2.5,9.14,3.77,13.7,2.38,8.55,5.44,16.86,7.59,25.49a82.73,82.73,0,0,1,2.12,25.36,215.49,215.49,0,0,0-.23,27.25c.29,4.32,1.69,8.34,2.65,12.49s1.72,8.37,2.86,12.48c.26-.54.3,1.25.3,1.39a8.77,8.77,0,0,1-.49,2.86c-.84,2.5-2.43,4.62-4.84,5.31-4.37,1.25-8.42-2.72-9.83-6.91a115.3,115.3,0,0,1-4.09-19,89.8,89.8,0,0,1-.83-17.5c.52-11.59,2.62-23,3.18-34.61.62-12.61-1.88-24.45-4-36.73-1-5.91-2-11.77-3.93-17.41a48.09,48.09,0,0,0-2.92-6.4C678.56,471.68,677.31,469.54,678.12,468.13Z"/><path id="Thi-Succs_5" data-name="Thi-Succs!" class="cls-15" d="M713.51,448.44c-.5,14.44-1.36,28.78-3.28,43.07-2,14.59-4.23,29.13-6.12,43.73-1.84,14.21-3.77,28.66-3.51,43.07.19,10.61-1.57,28.57,10.22,33.81s14.5-17.35,15.28-24.83c1.5-14.35,1-28.85.29-43.27-.75-14.81-2-29.54-3.55-44.29-1.72-16.38-3.07-32.84-4.15-49.28-.54-8.12-.67-16.24-.52-24.37.14-7.67-.15-15.42-2.88-22.7l-.43.31"/><path id="Thi-Succs_6" data-name="Thi-Succs!" class="cls-13" d="M775.15,494.2c-2.14,3.13-4.31,6.23-6.34,9.54-3.62,5.93-6.91,12.52-7.89,21-2.07,17.74-.41,36.9,0,55.18.08,3.74-.39,7.36,1.08,10.92,1.34,3.22,3.83,5.68,6.21,5.67,5.1,0,4.32-12.51,4.33-18,0-9.62-1.07-19.34-1-29a200.63,200.63,0,0,1,2.05-28.12,161.5,161.5,0,0,1,6.15-26.16c.37-1.14,3.06-9.93.52-8.42"/><path id="Thi-Succs_7" data-name="Thi-Succs!" class="cls-15" d="M752.66,399.59c-3.35,0-3.33,16.69-3.43,18.84-.36,7.74-.28,15.48-.51,23.22-.5,16.89-1.12,33.93-3.66,50.62-1.36,9-2.95,17.94-4.65,26.86s-4,17.88-5.13,26.94c-1.08,8.71-.47,17.59-.32,26.34a231.76,231.76,0,0,0,1.57,26.35c.28,2.16.62,4.3,1,6.45.3,1.78.13,4,.63,5.69.81,2.71,4.27,3.6,6.6,3.18,6.3-1.15,10.32-9.07,12.48-14.85,2.75-7.38,4.2-15.39,5.64-23.17a201.19,201.19,0,0,0,3-26.73c.91-18.24-.26-36.5-1.57-54.68-.72-10.11-1.56-20.17-2.85-30.22s-2.92-20-4-30c-.78-7.29-1.55-14.59-2-21.91-.12-1.75-.22-12.93-2.78-12.93"/><path id="Thi-Succs_8" data-name="Thi-Succs!" class="cls-13" d="M748.47,520.94c-.55-17.52-7.6-94.52-9.2-115.71-.4-5.31-4.26-27.4-4.76-33.41-1.36,1.7-1.24,28.16-1.23,34.24S732.55,418,732.17,424s-9.41,84.93-10.59,90.8c-2.33,11.67-3.88,23.64-5.09,35.57-1.17,11.63-3,23.9-1.42,35.59a35.6,35.6,0,0,0,1.86,7.81c1,2.67,1.69,5.14,2.49,7.93,1.3,4.51,3.64,8.46,7.24,10.31,7.39,3.82,11.35-4.81,13.36-12.32a201.5,201.5,0,0,0,6.24-36.78c1.07-13.94,2.64-27.9,2.21-41.94"/></g><g id="Planter"><rect id="Vase" class="cls-16" x="670.85" y="572.74" width="114.87" height="114.87" rx="2.52"/><rect id="Leg" class="cls-4" x="658.23" y="585.36" width="12.62" height="142.64" rx="2.52"/><rect id="Leg-2" data-name="Leg" class="cls-4" x="721.34" y="585.36" width="12.62" height="142.64" rx="2.52"/><rect id="Leg-3" data-name="Leg" class="cls-4" x="785.72" y="585.36" width="12.62" height="142.64" rx="2.52"/></g></g></g><g id="humaaans_sitting-8" data-name="humaaans/sitting-8"><g id="A-Human_Sitting" data-name="A-Human/Sitting"><g id="Head_Front_Short-2" data-name="Head/Front/Short-2"><g id="Head"><path class="cls-17" d="M480.73,359.88c6.06-7.12,10.16-15.84,9.48-25.61-2-28.15-41.17-22-48.79-7.75s-6.72,50.25,3.13,52.79c3.93,1,12.3-1.47,20.82-6.6L460,410.54H491.6Z"/></g><path id="Hair" class="cls-18" d="M483.22,367.12c4-17.68,15.3-29.74,13.57-37.65q-1.73-7.91-9.22-9.83-3.87-15.67-25-13.34c-21.12,2.34-34,11.11-28.44,30.41,5.11,0,11.29-1.85,19.83,1.32q4.06,1.52,5.82,9.36h3.86q5.61-9.31,11.08-6.84t2.48,12l1.9,14.58Z"/></g><g id="Bottom_Sitting_Baggy-Pants" data-name="Bottom/Sitting/Baggy-Pants"><g id="Objects_Seat_Cube-2" data-name="Objects/Seat/Cube-2"><path id="Seat" class="cls-12" d="M579.37,575H428.08A21,21,0,0,0,407,596v121a21.05,21.05,0,0,0,21.05,21.05H579.37a21.06,21.06,0,0,0,21-21.05V596A21.05,21.05,0,0,0,579.37,575Zm-15.79,42.1V696a5.26,5.26,0,0,1-5.26,5.26H449.13a5.25,5.25,0,0,1-5.26-5.26V617.08a5.25,5.25,0,0,1,5.26-5.26H558.32A5.26,5.26,0,0,1,563.58,617.08Z"/></g><path id="LegLower" class="cls-19" d="M277,732.05q38.9-47.52,52.64-70.45c15.69-26.18,28.53-49.47,32.58-58.37,9.67-21.22-22.24-31.15-29.46-21.25q-16.39,22.47-70,141.41Z"/><path id="LegLower-2" data-name="LegLower" class="cls-20" d="M330.11,722.84l48.27-121.51c10.32-22.15-39.54-36.71-47.12-26.4C314,598.33,273.09,690.65,268,697.62Z"/><g id="Lower-Leg"><path id="LegLower-3" data-name="LegLower" class="cls-17" d="M458.67,698.47c-9.41-13.72-43.61-59.86-62.24-79-5.35-5.49-10.57-10.76-15.51-15.66-14.69-14.59-43.93,9.93-29.27,23.21,36.5,33.09,89.76,77.75,94.21,81.74C452.1,714.39,464.58,707.09,458.67,698.47Z"/></g><g id="Accessories_Shoe_Flat-Sneaker" data-name="Accessories/Shoe/Flat-Sneaker"><path id="shoe" class="cls-21" d="M456.47,692.27q4.86,4,6.32,6.54a66.65,66.65,0,0,1,4.16,9.58l-64.25,37.1q-7.29-6.82-2.27-10.61t8.27-6.37L430.88,698a1.32,1.32,0,0,1,1.84-.3l0,0,4.61,3.54c4.23-.36,7.38-1.15,9.46-2.35q2.55-1.47,5.83-6.1h0a2.64,2.64,0,0,1,3.67-.62Z"/></g><g id="Accessories_Shoe_Flat-Sneaker-2" data-name="Accessories/Shoe/Flat-Sneaker"><path id="shoe-2" data-name="shoe" class="cls-21" d="M288.11,726.8q2.2,5.88,2.21,8.81A64.92,64.92,0,0,1,289.13,746H214.94q-2.9-9.56,3.34-10.32t10.35-1.38l34.49-15.38a1.32,1.32,0,0,1,1.73.67l0,0,2.21,5.38q5.78,2.7,9.38,2.69,2.93,0,8.09-2.36h0a2.63,2.63,0,0,1,3.49,1.29A1.34,1.34,0,0,1,288.11,726.8Z"/></g><path id="Leg-and-Butt" class="cls-22" d="M395.75,607.8q60.17-9.81,80.61-13.41c38.84-6.85,50.17-27.75,43.47-73.35H448.27q-14.2,4.11-118.7,50.74c-12.54,6.22-10.2,24.57-7.91,30.62q.13.36,63.39,108.62l58.54-37.29-47.95-61.54Q393.74,608.37,395.75,607.8Z"/></g><g id="Body_Hoodie" data-name="Body/Hoodie"><path id="Skin" class="cls-17" d="M390.59,503.42l-42,30.81q-17.08,4.62-28.53,11.47c-1.8,1.64-4,5,3.5,4.39s15.37-.84,16.4,1.71-3.49,5.6-1.4,9.05q2.08,3.43,19.71-17.27l41.56-17.23Zm161.12.52-27.49.11q25.46,82.2,27.49,87.22c3,7.55-3.4,19-6.15,25.21,9,4,8-10.85,19.33-5.59,10.33,4.81,18.19,13.52,30.12,6.15,1.47-.9,3.08-4.31-.81-7-9.68-6.64-23.62-18.26-25.51-22.08Q564.84,580.16,551.71,503.94Z"/><path id="Coat-Back" class="cls-23" d="M473.58,389.13l-11.37-1.95C420,423.64,402.66,493.68,350.93,530.79l12.45,15.43C453.13,535.11,475.38,449.67,473.58,389.13Z"/><path id="Shirt" class="cls-7" d="M523.17,531.57H422.52c-4.6,0-3.74-6.64-3.07-10,7.67-38.67,37.63-80.37,37.63-135.42l29-4.55C510.12,420.22,518.43,467.77,523.17,531.57Z"/><path id="Coat-Front" class="cls-24" d="M522.36,419.56q6.33-1.81,10-8.48c10.61-19.15,6.78-29.69-4.56-33.16s-21.46,3.68-39.52,3.68a18.51,18.51,0,0,0-2.7.18l-9.09.52q-39.12,132.57-21.58,176.89h79.22a270.64,270.64,0,0,0,13.48,27.63h21.58Q572.27,488.29,522.36,419.56Z"/><path id="Shade-2" data-name="Shade" class="cls-25" d="M516.9,513.8q-3.74,31.28-12.15,45.39h29.4Q525.94,540.05,516.9,513.8Z"/></g></g></g></svg>