<svg xmlns="http://www.w3.org/2000/svg" viewBox="0 0 2359 1677.79"><defs><style>.cls-1{isolation:isolate;}.cls-2{fill:#e6e6e6;}.cls-11,.cls-17,.cls-2,.cls-22,.cls-24,.cls-6{mix-blend-mode:multiply;}.cls-3{fill:#424042;}.cls-4{fill:#c98965;}.cls-5{fill:#a4a3a6;}.cls-6{fill:#cfced1;}.cls-7{fill:#ffc359;}.cls-8{fill:#b6b5b8;}.cls-9{fill:#bf6d5b;}.cls-10{fill:#424259;}.cls-11{fill:#c3c3d4;}.cls-12{fill:#fea192;}.cls-13{fill:#c1e4fe;}.cls-14{fill:#185896;}.cls-15{fill:#fdfbff;}.cls-16{fill:#472d2f;}.cls-17{fill:#ebcac5;}.cls-18{fill:#329c67;}.cls-19{fill:#fff;}.cls-20{fill:#353336;}.cls-21{fill:#4e4b4f;}.cls-22{fill:#e6dfd4;}.cls-23{fill:#2f75ba;}.cls-24{fill:#b2c3d4;}.cls-25{fill:#935560;}.cls-26{fill:#b2ac15;}</style></defs><g class="cls-1"><g id="Layer_2" data-name="Layer 2"><ellipse class="cls-2" cx="1179.5" cy="1606.79" rx="1179.5" ry="71"/><polygon class="cls-3" points="659.6 720.88 607.66 1558.77 578.27 1558.77 630.2 720.88 659.6 720.88"/><polygon class="cls-3" points="1325.32 720.88 1377.26 1558.77 1406.66 1558.77 1354.72 720.88 1325.32 720.88"/><rect class="cls-4" x="497.55" y="691.48" width="991.42" height="29.4" transform="translate(1986.52 1412.36) rotate(180)"/><rect class="cls-5" x="225.26" y="991.41" width="21.31" height="581.8" transform="translate(471.83 2564.61) rotate(180)"/><rect class="cls-6" x="225.26" y="991.41" width="21.31" height="22.29"/><rect class="cls-6" x="225.26" y="1327.02" width="21.31" height="28.42"/><path class="cls-7" d="M112.69,1007.57H360c14.54,0,14.54-77.41,0-77.41H112.69C97,930.16,97,1007.57,112.69,1007.57Z"/><rect class="cls-8" x="149.93" y="1322.61" width="171.97" height="28.42" rx="13.57" transform="translate(471.83 2673.65) rotate(-180)"/><path class="cls-8" d="M101.18,1613.65H370.65c0-27.21-89.76-44.85-122.08-44.85H225.73c-32.32,0-124.55,17.64-124.55,44.85Z"/><rect class="cls-5" x="1565.75" y="945.41" width="21.31" height="581.8" transform="translate(3152.81 2472.62) rotate(180)"/><rect class="cls-6" x="1565.75" y="945.41" width="21.31" height="22.29"/><rect class="cls-6" x="1565.75" y="1281.03" width="21.31" height="28.42"/><path class="cls-7" d="M1453.18,961.58h247.3c14.54,0,14.54-77.41,0-77.41h-247.3C1437.5,884.17,1437.5,961.58,1453.18,961.58Z"/><rect class="cls-8" x="1490.42" y="1276.62" width="171.97" height="28.42" rx="13.57" transform="translate(3152.81 2581.66) rotate(180)"/><path class="cls-8" d="M1441.67,1567.65h269.47c0-27.2-89.76-44.85-122.08-44.85h-22.84c-32.32,0-124.55,17.65-124.55,44.85Z"/><path class="cls-9" d="M575.94,1567.35c9.8,12,73.62,19.35,83.66,58.55-59.16,5.14-150.46-.22-158.54-9.41-6.25-20.21-2.25-33.46-2.25-33.46C539.19,1561.71,575.94,1567.35,575.94,1567.35Z"/><path class="cls-10" d="M296,819.92c34.69-2.94,112.1,27.44,112.1,27.44,67.62,104.85,145,294.95,152.87,328.27s17.58,392.21,17.58,392.21c-1.66,2.45-83.24,27.92-89.85,23.27-11.81-184.22-29.64-369-34.54-388.83S328.76,1017.86,317,1000.22s-81.29-148.14-64.67-165.6S296,819.92,296,819.92Z"/><path class="cls-10" d="M187.65,815C141.88,826.08,123,831.68,120,855.2c-1,65.65,37.24,91.13,76.43,99.95S319,973.77,319,973.77c18.62-55.86,1.2-121.75-16.66-131.33C282.1,830.34,218,807.69,187.65,815Z"/><path class="cls-11" d="M293.32,846c4.2-1.93,36.68,2,58.47,2.32,34,.49,56.34-1,56.34-1-11.76,11.76-62.06,15.69-84.76,13.23-13,4.3,69.82,30.13,84.52,66.88,8.53,21.33,3.82,93.8-10.83,185.67-34.76-49.78-73.64-103.28-80.06-112.92-1.23-1.84-3.11-5-5.44-9-.21-5.94-.48-11.8-.85-17.55-3.45-53.89-16.17-79.43-10.34-100.18C289.6,862.54,286,849.4,293.32,846Z"/><path class="cls-9" d="M351.3,1281c5.14,27,30.37,100.44,20.36,123.47-19.63,8.57-56.74-52.92-84.16-84.16-16.09-18.31-14.81-21.55-11.9-32,4.41-15.8,12-25,12-25C328.76,1269.7,351.3,1281,351.3,1281Z"/><path class="cls-10" d="M293.48,1167.3c-4.12,48.4-9.8,97.5-9.8,97.5,16.54,15.8,71.64,23,75.51,18.39,27.45-174.73,56-319.68,43.06-353-8.19-21.15-35.27-36.48-105.83-71-17.41,23.79.17,47.6,4.32,112.4C304.12,1024.35,300.55,1084.19,293.48,1167.3Z"/><path class="cls-12" d="M471.46,785.26c-14-11.76-21.09-13.5-25.86-2.52C433.85,816,432.55,837,437.41,849.2c7.72,19.48,39.56,61,43.23,60.27,2.94-3.3,12.87-27.38-2.2-57.7-4.38-8.82-3.31-12.13,1.1-43C481.77,793.15,471.46,785.26,471.46,785.26Z"/><path class="cls-13" d="M455.08,752.68c-6.4,13.84-15.87,21.9-12.1,28,2.19,3.54,19.48,5.7,36.57,19.66,7,1.11,5.87-9.55,17.26-17.63C495,775.34,459.49,751.21,455.08,752.68Z"/><path class="cls-14" d="M465.48,481.36C508.57,503.41,558.55,551.92,596,591.6s37.48,80.85,28.66,92.6S562.22,734.91,538,755.49s-36,27.93-41.16,27.2c-27.19-11-44.09-31.61-44.09-33.81-4.41-29.89,63.94-79.37,80.1-92.6-8.08-11-94.07-64.68-106.56-67.62C418.91,559.27,465.48,481.36,465.48,481.36Z"/><path class="cls-15" d="M835.46,655.79c0-3.72-170.83-3.72-170.83,0,24,19.26,18.22,35.69,65.28,35.69h54.74C821.05,691.48,816,671.87,835.46,655.79Z"/><path class="cls-15" d="M1392.54,655.79c0-3.72-170.84-3.72-170.84,0,24,19.26,18.23,35.69,65.29,35.69h54.74C1378.13,691.48,1373,671.87,1392.54,655.79Z"/><path class="cls-13" d="M377,410.08c30.13,22.29,81.11,60.5,88.46,71.28,1,45.08-25,109.26-38.73,142.09s-21,77.9-26.2,116.12,13.46,96,7.58,107.79C335.62,872.84,173.93,815,120,855.2c-2.94-62.72-15.14-335.76,12.3-373,25.23-32.82,92-71.81,154.65-95.64C323.34,389.85,377,410.08,377,410.08Z"/><path class="cls-12" d="M312.9,879.88c44.28,21.5,51.26,35.09,53.1,39.87,11.75,37.48,5.51,93-5.88,96.28-23.15-18.74-39-51.62-44.47-70.56-3.3-19.11-25.41-32.53-25.5-41.52C299.85,884.11,312.9,879.88,312.9,879.88Z"/><path class="cls-13" d="M296.18,855.2c5.14,9.06,22.78,15.31,22.78,22.29-7,14-24.27,35.65-30.51,35.65s-12.88-12-26.08-16.54C273.42,877,296.18,855.2,296.18,855.2Z"/><path class="cls-14" d="M147.72,472.91c-32.92-1.47-65.16,57.2-75.33,137.8-8.67,68.75.61,155.42,7.47,174S158.26,840.5,198.43,867s49.48,36.41,70.06,32.49c10-6.81,31.18-33.66,31.18-40.33,0-21.13-108.1-107.79-126.72-125.43-4.9-31.36,5.55-98,5.23-151.89S172.06,474,147.72,472.91Z"/><path class="cls-14" d="M313.78,851.84c1.54-87.77,9.28-137.22,16.78-184.84,3.4-21.58,6.91-43.9,9.7-69.2,8.73-79.33,9.92-169.52,9.93-170.42l-5.87-.07c0,.9-1.21,90.81-9.91,169.85-2.77,25.16-6.12,46.42-9.66,68.93-7.53,47.81-15.32,97-16.86,185.2C307.85,851.66,313.74,852.2,313.78,851.84Z"/><path class="cls-16" d="M437.4,231.49c11.88,3.06,20.72-.64,22.17-9.68,2.08-13,13.11-11.15,8.21-24.86s8.47-24.75-11-32.34c-12-4.67-6.12-25.72-28.31-17.15-16.85,6.51-14.8-12.58-34.89-4.75s-17.7-8.05-36.44,4.63c-10.48,7.09-25.55-9.31-34.85,6-8.09,13.31-31.32,9.31-32.81,19.11s-17.29,13.23-14.23,24c2.82,9.92-10.77,17.63-7.83,28.9s-12.74,20.58-1.47,31.36-4.9,25,7.34,31.85-1.47,22,12.74,24,2,20.58,18.62,29.89C334,344.42,435,233.69,437.4,231.49Z"/><path class="cls-16" d="M427.6,224.87c1.46,1.84,6.87,9.15,10.08,6.93-.78.07-.24,0,.5.44a14.9,14.9,0,0,0,2.34.86,41.23,41.23,0,0,0,5.32,1.5c3.51.71,7.3.92,10.71-.38,5-1.92,6.52-6.25,8.69-10.62,3.06-6.17,9.76-9.7,12.66-15.95,1.78-3.83.91-8.45-.58-11.43-2.19-5.51.16-11.4.84-17,.87-7.18-1.37-13.46-7.91-17-4.08-2.24-7.6-3.8-10.47-7.77-3.87-5.37-6.12-12.41-12.23-15.79-8.15-4.51-16.24.86-24.66.12-7.15-.64-12.8-6.11-19.92-6.5-5.32-.3-9.34,3.48-14.72,3.22-7.11-.35-13.84-3.54-21-3-4.87.39-7.36,2.89-11.19,5.17-5.58,3.34-12.85-.43-18.59-1.48-7.58-1.37-13.51,1.3-18.91,6.56-4.44,4.31-7.51,10.1-13.32,12.8-3.39,1.57-7.17,2.27-10.78,3.2-6,1.54-11.77,3.11-14.32,9.3-1,2.52-1.43,4.95-3.09,7.18-1.83,2.43-4.26,4.27-6.37,6.42-2.58,2.63-4.88,5.69-4.77,9.54,0,1.64.71,3.18.72,4.83a12.46,12.46,0,0,1-1.06,4.8c-2.9,7.12-8.85,13.2-5.35,21.32,1.8,4.17,1.77,7.08.59,11.47-1.06,4-2.56,8.06-2.24,12.25.45,5.91,4.63,9.13,9.35,11.87-2.85-1.73-5.74-3.91-7.23-7-1.79-3.69-1.11-7.83,0-11.6,1.68-5.63,4.39-11,2.05-16.79-2.21-5.47-.41-9.7,2.58-14.6,1.95-3.19,4.13-6.53,4.62-10.32s-1.38-6.85.95-10.17,5.69-5.28,8.29-8.09,3.48-5.72,4.89-9.1c2.91-7,13.46-6.68,19.66-8.59a25.38,25.38,0,0,0,10.14-5.7c3-2.8,5.32-6.24,8.29-9.07,2.38-2.25,5.24-4.65,8.57-5.21,3.94-.67,8,.73,11.75,1.72,7.11,1.89,13,2,19.07-2.49,5.45-4.05,12-2.07,18.12-.73a38.84,38.84,0,0,0,11,1.28c3.75-.26,6.48-2.28,10-3.11,3-.72,6.08.81,8.78,2.06,4.05,1.89,8,3.65,12.52,4.1,6.06.62,11.43-2.11,17.35-2.17,8.77-.09,11.38,8,15.65,14.16a24.29,24.29,0,0,0,8.4,7.88c1.69.89,3.55,1.48,5.22,2.4,7.41,4.12,5.31,12.37,4.3,19.34-.57,4-.73,7.8.94,11.56,1,2.18,2,4.09,1.67,6.62-.6,4.2-4.32,7.47-7,10.48a30.46,30.46,0,0,0-6,9.12c-1,2.56-1.76,5.11-3.86,7-3.22,2.93-7.77,3.22-11.88,2.7-3.24-.41-6.63-1.92-9.67-2.25a7.56,7.56,0,0,1-4.26-1.37,32,32,0,0,1-5.26-4.94C428.89,226.5,429,226.41,427.6,224.87Z"/><path class="cls-12" d="M368.81,370.27c-2.09,17.39.73,25.84.73,25.84-18.47,17.24-53.09,4.8-67.48-24.25,11-24.07,8.76-73.68,8.76-73.68C341.32,352.93,368.81,370.27,368.81,370.27Z"/><path class="cls-17" d="M311.91,300c30.5,54.75,56.9,70.25,56.9,70.25-.3,2.45-.49,4.71-.61,6.8-20.46-6.18-43.57-20.74-50.59-33.87-2.68-5-4.32-11.76-5.32-18.67C312.62,310.57,311.91,300,311.91,300Z"/><path class="cls-14" d="M347.25,429.92c-19.65,0-50.34-19.48-63.19-42.24,8.33-4.53,13.34-21.82,19.42-20.37C329,397.77,354.6,398.57,368.69,388c5.39.49,2.08,12.49,11.28,24.23C375.81,418.63,359.93,428.82,347.25,429.92Z"/><path class="cls-12" d="M437.4,231.49c5.14,52.91-22.78,135.22-41.89,143.31s-67.2-15.26-77.9-35.28c-8.46-15.8-6.62-49.24-6.62-49.24-25.72-8.08-25.72-36.74-14-44.09s19.84,11.75,19.84,11.75c8.08-10.28,3.92-33.56,16.17-42.87,10.71-8.14,12.25,3.68,27.44-.73,23.17-6.73,18.58,15.25,38.7,11.51,15.81-2.93,13.21,3.84,25.58,6.93A19.61,19.61,0,0,0,437.4,231.49Z"/><path class="cls-18" d="M1024.32,498.88c23.92-19.25,34.21-29.53,52.83-30.51,16.66-9.8-32.83-3.5-32.83-3.5,24.5-23.45,88.19-57.75,53.9-49.91-34.79,7.84-32,14.21-32,14.21,2.1-29.89,37.38-72.51,22.68-74.47s-33.66,42.48-33.66,42.48c-1.62-19.95-8.48-40.52-20.73-32.68s5.39,16.49-4.9,36.41c-18.62-33.47,6.86-45.23,4.41-67.77s-12.74-5.88-17.64,4.41c.49-59.78-17.74-53.9-24.06-51.45s9.2,41.65,9.2,41.65c-17-18.62-17.58-3.92-9.2,17.64s2.51,31.25,2.51,31.25c-10.29-14.59-10.45-35.17-17.47-29.78s14,41.15,14,41.15c-17.27.87-26.67-29.88-32.45-34.29s-1.08,33.8,0,35.27c-25.86-2-40.07-69.57-51.34-65.65s-3.92,45.57,14.21,56.34c-27.43-6.37-21.07,14.91-2.45,15.54s22,41.79,22,41.79c-26-18.13-26.95-33.57-35.28-26.34s20.72,23.4,24.33,28.79c-18.45,9.8-31.67-40-46.86-34.94s6.37,29.55,18.12,35.92c-10.77,15.19-17.63,42.13-3.91,50,11.26-5.88,5.87-28.9,23-21.55,19.6,11.26,27.62,17.14,27.62,17.14-24.68-1-32.52,5.68-27.13,12.88s27.44-11.9,39.2,7.7C989.45,516.87,1024.32,498.88,1024.32,498.88Z"/><path class="cls-7" d="M955.74,691.48h57.82c.56-61.19,10.44-124,28.42-188.33,0-6.53-114.65-6.53-114.65,0A782.73,782.73,0,0,1,955.74,691.48Z"/><path class="cls-19" d="M1066.74,414.84c26.94,12.25-1.47,27.31-7.35,13.59-12.13,21.13-31.24-2.57-17.64-10.8-24.25-16,1.84-32.92,10.41-14.48C1066.15,375.91,1085.6,399.07,1066.74,414.84Z"/><path class="cls-19" d="M976.66,404.92c8.45,28.29-11.76,17.64-12.5,8.08C944,426.7,944.93,401.24,955,398.56c-25.46-11.13-3-26.84,7.41-10.55,8.34-26.09,24.47-6.86,15.75,4.41C996.93,391.69,995.27,409.82,976.66,404.92Z"/><path class="cls-19" d="M970.83,459.79c-20.09-14.21-13.72,6.37-8.33,6.86-17.15,18.13,2,14.21,5.88,8.82,9.31,14.21,14.7,2.94,11.76-2,21.07-1.47,7.49-12.74.8-11.76C985,447.05,973.28,450.48,970.83,459.79Z"/><path class="cls-19" d="M1031.28,469.24c-8.95-6.7-5.79,3.18-2.82,3.45-6.52,6.57.9,7.36,3.06,4.39,3.55,7.84,6.15.86,4.53-1.84,11.6-.81,3-5.68.37-5.14C1038.68,462,1032.63,464.11,1031.28,469.24Z"/><path class="cls-19" d="M927.84,425.53c-9-6.7-5.79,3.18-2.82,3.45-6.52,6.57.9,7.35,3.06,4.39,3.55,7.84,6.15.86,4.53-1.84,11.6-.81,3-5.68.37-5.15C935.23,418.29,929.18,420.4,927.84,425.53Z"/><path class="cls-19" d="M997.32,333.84c-8.94-6.7-5.78,3.19-2.81,3.45-6.52,6.57.9,7.36,3.06,4.39,3.55,7.84,6.15.86,4.53-1.83,11.6-.81,3-5.68.37-5.15C1004.72,326.61,998.67,328.72,997.32,333.84Z"/><path class="cls-19" d="M919.55,379.51c-8.94-6.71-5.79,3.18-2.82,3.45-6.52,6.57.9,7.35,3.06,4.39,3.55,7.84,6.15.86,4.53-1.84,11.61-.81,3-5.68.37-5.15C927,372.27,920.9,374.38,919.55,379.51Z"/><path class="cls-19" d="M1021,410.32c-8.94-6.7-5.78,3.18-2.82,3.45-6.51,6.57.91,7.35,3.07,4.39,3.55,7.84,6.15.86,4.53-1.84,11.6-.81,3-5.68.37-5.15C1028.38,403.08,1022.33,405.19,1021,410.32Z"/><path class="cls-19" d="M940.85,469.24c-8.94-6.7-5.79,3.18-2.82,3.45-6.51,6.57.91,7.36,3.06,4.39,3.56,7.84,6.16.86,4.54-1.84,11.6-.81,3-5.68.36-5.14C948.25,462,942.2,464.11,940.85,469.24Z"/><path class="cls-19" d="M997.32,486.94c-8.94-6.71-5.78,3.18-2.81,3.45-6.52,6.56.9,7.35,3.06,4.38,3.55,7.84,6.15.87,4.53-1.83,11.6-.81,3-5.68.37-5.15C1004.72,479.7,998.67,481.81,997.32,486.94Z"/><path class="cls-19" d="M1052.51,379.51c-8.94-6.71-5.79,3.18-2.82,3.45-6.52,6.57.9,7.35,3.06,4.39,3.55,7.84,6.15.86,4.53-1.84,11.61-.81,3-5.68.37-5.15C1059.91,372.27,1053.86,374.38,1052.51,379.51Z"/><rect class="cls-20" x="1347.88" y="625.44" width="42.38" height="14.46"/><path class="cls-21" d="M1330.54,673.29h-185.8c-7,0-13.42-4.39-16.84-11.48L1108.69,622a5.55,5.55,0,0,1,5-8h247.9a5.55,5.55,0,0,1,5,8l-19.21,39.85C1344,668.9,1337.52,673.29,1330.54,673.29Z"/><path class="cls-21" d="M1384.85,642.34l115.83-.42c33.1-1.54,28.75-20.37-4.34-18.83H1384.91a3.6,3.6,0,0,0-3.59,3.6v12A3.6,3.6,0,0,0,1384.85,642.34Z"/><path class="cls-12" d="M1525.78,496.4c-21.4,0-27.57-29.18-74.77-33-47.78-3.88-61.85-1.14-61.85-1.14-8.15,8.37,20,50.32,63.35,54.95,24.63,2.62,47.82,2.38,55.75,6C1526.88,504.24,1525.78,496.4,1525.78,496.4Z"/><path class="cls-7" d="M1957.73,380.64c33.86,51.83-131.86,184.6-181.6,204.55-56.75,22.75-248.06-49.79-272.61-55.85-6.62-.46,8.71-49.29,14.3-48.45s173.72,35.78,206.9,30.4,71.23-56.79,116.42-99.53C1899,357,1940.13,353.71,1957.73,380.64Z"/><path class="cls-22" d="M1776.13,585.19C1784,582,1794.78,576,1807.22,568c5.25-32.74,3.41-60.61-3.38-70-9.06-12.49-24.78-23.13-24.78-23.13-4.92,26.93-6,81.13-9,83.88-8.45,5.15-58.06,22.05-75.25,25.14C1728.79,590.18,1758.76,592.15,1776.13,585.19Z"/><path class="cls-9" d="M1780.08,1533.31c-27.78,17.24-84,22-97.25,62,45.08,5.17,178.77-3.88,186.06-10.78,6.83-11.2,0-31.88,0-31.88C1823.8,1544.46,1789.75,1527.7,1780.08,1533.31Z"/><path class="cls-9" d="M2035.1,1543.6c-12.64,12-74.39,28.4-77,55.86,6.22,5.63,167.59-7.88,176-12.87,5.29-8.26,1.19-31.63-9.28-42.4C2077.39,1533.41,2048.76,1538,2035.1,1543.6Z"/><path class="cls-23" d="M1808,1036.43c-11.5,125.22-28.6,480.18-30,495.37,28.23,9.48,78.52,26.87,98.55,22.56,25.51-209.24,32.63-403.21,32.63-403.21-6.37-73.25,9.86-102.89-17.63-147C1854.61,999.88,1810.65,1007.13,1808,1036.43Z"/><path class="cls-24" d="M1908.19,1061.83c-22-4.31-86,9.15-103.4,13-.07.92-.14,1.81-.21,2.74,22.71,8.55,59.37,11.3,79.43,8.91,4.91,48.94,6.73,65.3,9.93,77.26.72,2.68,6.88,19.93,12.92,36.69,1.66-31.13,2.32-49.27,2.32-49.27C1905.76,1111.78,1908.85,1085,1908.19,1061.83Z"/><path class="cls-23" d="M1988.89,723.85c28.23,37.92,48.88,130.92,39.77,193.83s-9.16,223.2-7.31,249.05,28.26,80.15,113.88,386.07c0,11.21-76.45-9.2-100.13-9.2-78.33-230.95-135.23-378.55-136.7-393.92-7.25-75.81-27.92-406.87-27.92-406.87C1908.73,735.05,1988.89,723.85,1988.89,723.85Z"/><path class="cls-7" d="M1920,262.31c52.18,65.05,64.67,106.2,73.6,201,6.63,70.37-9.74,147.78-6.48,199.86,1.41,22.58,25.35,67.14,28.42,79.63-4.27,14.7-100.19,57.29-158.62,53.61S1790,769.93,1787,761.11c-1.7-133.1-7.13-202.35-4.24-276.54,3.43-88.2,25.78-147.82,54.2-180.25C1856.71,281.81,1917,259.25,1920,262.31Z"/><path class="cls-25" d="M1861.66,133.7c-36.51-2.94-69.16-8.18-73.41-25.59-33.62-3.68-46.46-49.73-23.36-76.69,17.76-20.72,41.65-21.55,64.92-11.76,24,10.12,42.13-8.57,77.9,5.88,27.89,11.27,58.06,45.81,39.44,104.85-10.28,32.62-9.92,59.53-6.24,76.07s-26.83,33.81-28.3,33.81C1885.05,192.13,1861.66,133.7,1861.66,133.7Z"/><path class="cls-25" d="M1819.64,93.28c-8.17,4.54-16.41,9-24.81,13.08-2.94,1.43-5.33,3.11-8.63,3a37.43,37.43,0,0,1-13.06-2.85c-14.87-6.34-25.35-20.21-28.89-35.8-3.77-16.65,1.23-34.39,10.81-48.22C1764.41,9,1778.75.69,1795.24.05a78.66,78.66,0,0,1,27.53,4.34c6.1,2,12,4.93,18.34,6,9.14,1.54,18.19-1.1,27.18-2.45a101.56,101.56,0,0,1,26.46-1c17.49,2,32.54,11.14,44.28,24s21.39,28.4,23.81,45.85c2.86,20.54-3.88,41.15-10.67,60.27-3.55,10-7.58,19.82-10.41,30a126.47,126.47,0,0,0-4.33,30.34c-.87-16.82,2-32.44,6.77-48.51,4.59-15.39,9.71-30.84,11.94-46.8,2.18-15.65.4-31-7.44-44.93-7.2-12.76-17.42-25-29.89-32.84-13.52-8.53-28.78-10.33-44.4-8.4-7.36.91-14.6,2.72-22,3.43A49.91,49.91,0,0,1,1829.36,16c-12.06-4.66-24.63-8.82-37.76-7.43-14.64,1.55-25.95,10.28-33.49,22.59-8.72,14.24-11.85,31.54-5.73,47.4,5.73,14.84,19.47,27.5,35.85,28.31l-.46.1c10.76-4.2,21.34-8.94,31.87-13.68C1809.5,98.91,1814.36,95.66,1819.64,93.28Z"/><path class="cls-12" d="M1908.6,173.72c-2.23,22.56,4,75.37,11.36,88.59-16.17,27.93-67.92,51.94-83,42,13.41-33.25,9.37-60.63,9.37-72C1859.58,196.66,1908.6,173.72,1908.6,173.72Z"/><path class="cls-17" d="M1908.35,194a152.22,152.22,0,0,1,.26-20.25s-49,22.94-62.26,58.58c0,4.11.24,11.22,0,19.83C1871,246.64,1902.46,228,1908.35,194Z"/><path class="cls-12" d="M1788.25,108.11c-5,44,13,129.22,37.15,139.38,23.76,4.17,82.43-16.78,83.9-69,14.7,3.19,30.26-17.51,25.85-36.62s-27.44-5.39-28.91,4.41c-12.25-7.35-15.14-25.07-21.8-42.63-5.39-14.21-32.58-17.39-49-7.84C1823.47,102.82,1811.28,115.46,1788.25,108.11Z"/><path class="cls-12" d="M1585.63,629.37c-29,1.84-67.43-26.09-94.62-6.36,15.8,6,12.49,16.89-8.27,17.69-21.47.83-52.36,1.64-52.36,1.64,31.23,29.45,64.67,44.52,96.27,36.25,33.39-8.74,57.51-9.17,65.59-9.17C1600.7,646.27,1585.63,629.37,1585.63,629.37Z"/><path class="cls-26" d="M1916.25,252.11c-54.59,116.34-75.32,170.07-58.51,176.11s19.93-47.15,34.17-88.07c19-54.72,26.46-66.33,30-75.38C1922.07,260.41,1918.74,251.62,1916.25,252.11Z"/><path class="cls-26" d="M1867.05,405c-21.84,9.12-76.59,8.79-76.59,8.79-11.6,8.85-13.56,87.73-12.58,147s2.92,192.8,2.18,264.09-7.53,228.56.53,242.53c13.94,17.63,160.93,25.72,197.68-27.93s8.82-168.3-.74-224.89-33.62-133.64-28.63-147c3.64-7.11,36.17-3.1,38.18-4.33,4.05-3,3.3-24.91-.23-26.84-30.8,7.35-60.72,3.3-66.25-15.08S1906.24,452.47,1867.05,405Z"/><path class="cls-22" d="M1905,586.5c22.81-35.51,58.53-116.39,66.86-167.4,0,0-40.18-58.25-70.73-57.36-24.17,12.64-47.84,72.12-65.48,112.6-15.56,35.72-36.86,69.18-57.86,83.56,0,1,0,1.91.05,2.85.41,24.86,1,62.77,1.47,103.66,13.29-3.58,44.54-12.46,65.65-22.07C1872.44,629.85,1882.24,622,1905,586.5Z"/><path class="cls-7" d="M1960.23,344.69c54.6,34.6-45.41,232.46-84,272.93-44.07,46.17-264.06,58.35-290,63.22-6.49,2.43-11.55-56.22-5.88-57.84s176.13-45.31,205.32-64.77,52.86-73.36,77.31-133.53C1894.24,347.62,1931.87,326.72,1960.23,344.69Z"/><path class="cls-25" d="M1800.23,206c57.88-1.41,96.49-25.11,101.43-76.46a90.35,90.35,0,0,1,4.58,16.81c5.51,44.46,2.57,48.81,1.1,60.14s-12.92,30.43-32.91,40.36-44.25,14-56.75,10.65S1798.21,208.11,1800.23,206Z"/><path class="cls-7" d="M1331.88,541.84l5.54-1.93a19,19,0,0,1,19.79,4.65L1429.56,490l44-32a4.29,4.29,0,0,1,6,.94h0a4.29,4.29,0,0,1-1,6l-44,32L1360.46,549a19,19,0,0,1-1.64,20.26l-3.54,4.68a93.26,93.26,0,0,1-19.53,19.19l-9.9,7.21a6.24,6.24,0,0,1-8.73-1.37l-20.77-28.51a6.26,6.26,0,0,1,1.37-8.73l9.91-7.21A93.42,93.42,0,0,1,1331.88,541.84Z"/><path class="cls-12" d="M1471.74,482.3c-18.13-8.64-21.8-17.34-20.09-21.38,1-1.28,26.61,9.8,31.1,12.37C1479.52,482.3,1471.74,482.3,1471.74,482.3Z"/></g></g></svg>