<svg id="Layer_1" data-name="Layer 1" xmlns="http://www.w3.org/2000/svg" viewBox="0 0 948.72 812"><defs><style>.cls-1{opacity:0.5;}.cls-2{fill:#f2f2f2;}.cls-10,.cls-11,.cls-12,.cls-13,.cls-14,.cls-15,.cls-2,.cls-3,.cls-5,.cls-6,.cls-8,.cls-9{fill-rule:evenodd;}.cls-3,.cls-8{fill:#c1dee2;}.cls-3{isolation:isolate;opacity:0.2;}.cls-4{opacity:0.7;}.cls-5{fill:#69a1ac;}.cls-6{fill:#89c5cc;}.cls-7{opacity:0.5;}.cls-9{fill:#784931;}.cls-10{fill:#191847;}.cls-11{fill:#2f3676;}.cls-12{fill:#b28b67;}.cls-13{fill:#c5cfd6;}.cls-14{fill:#323337;}.cls-15{fill:#dde3e9;}</style></defs><g id="Scene_Plants" data-name="Scene/Plants"><g id="Background-Shape-2" class="cls-1"><path id="Background-Shape" class="cls-2" d="M876.26,629.92C888.4,720.75,593.92,780,340.46,738.65S-29.29,535.84,91.66,449.81,864.12,539.09,876.26,629.92Z"/></g><path id="Leaf-Bottom" class="cls-2" d="M518.23,210.19c-6.5-3.22-15.15.51-11.54,9,3.87,9.12,18.17,9.23,26.25,9.05-.81,0-3.41-8.4-4.3-9.67A27.36,27.36,0,0,0,518.23,210.19Zm74.84,163.47C594.71,375.06,593.2,373.79,593.07,373.66ZM512,251.43a7.71,7.71,0,0,0-.87,11.51c3.69,4.13,10.44,4,15.48,3.58,2.28-.18,14.46-1.16,11.57-3.15a9.83,9.83,0,0,1,1.18.56c.27,1,.55,1.95.84,2.92L540,267l.22-.12a111.24,111.24,0,0,0,12.55,27.5,26.1,26.1,0,0,0-6.3-1.68c-6.35-.81-19.71,4.13-12.61,12.58,6.81,8.11,17.41-.59,25.14-1.79a363,363,0,0,0,24.43,30.19,2,2,0,0,0-1.26,1c-3.48-1.76-7.1-4.29-10.32-5-4.64-1-14.16-1.58-17.66,2.57-4.32,5.11.31,9.26,5.4,10.24,7.4,1.42,17.07-2.19,24.18-4.63a2.34,2.34,0,0,0,2.24-.74l.46-.15c8.78,9.64,17.89,19,26.94,28.09l-.29,0a25,25,0,0,0-7.65-3.48c-6.35-1.55-13.82-1.56-19,3s-7,12.58-1.65,17.72c10.64,10.28,26.3-13.17,31.66-14.15,9.2,9.18,18.93,17.75,28.81,26.14a17.4,17.4,0,0,0-3.46-.7c-9.69-.93-32.43,10.95-20.54,22.64,10.36,10.18,22.36-9.42,30.71-16.28,9.31,7.83,18.67,15.6,27.77,23.68a26.43,26.43,0,0,0-15.08.1c-5.51,1.66-14.39,5.82-10.91,13.25s14.21,4.12,19.76,1.72c3-1.31,9.11-5.73,14.44-7.59,14.52,13.71,27.1,28.81,36.62,46.6A160.29,160.29,0,0,1,738.22,513c2,7.78,6,20.85,5.22,31,3.81-20.28-3.08-44.64-10.5-62.76-6.83-16.67-17-31.3-29-44.47,3-9,28.27-22,13.16-30.44-8-4.43-16.23,2.93-18,10.72-1.2,5.36.63,12.09,2.58,17.29q-5.64-6-11.7-11.66c-5.58-5.19-11.28-10.23-17-15.21,9.49-8.92,18.47-34.4,5.75-38.57-18.79-6.14-9.74,28.63-8.43,35.14a1,1,0,0,0,.87-.33c-.1.6-.22,1.24-.37,1.88-11-9.48-22.21-18.77-33-28.47,1-.72,2.53-3.48,3.74-4.94a55.17,55.17,0,0,0,7.3-10.62c3-6.1,6-15.84-2.08-19.43-8.75-3.91-12.91,7.1-13,13.67,0,4.54,1.2,8.86,1.84,13.32.2,1.39-.57,7.65,1.32,4.95a13.84,13.84,0,0,0-.06,2.23q-2.91-2.64-5.78-5.31a2.43,2.43,0,0,0,.17-.75A2.27,2.27,0,0,0,628,368q-3.79-3.6-7.49-7.31c-5.21-5.26-10.49-10.66-15.74-16.18,1.14-1,.69-2.33,1.75-3.37s3.16-1.61,4.41-2.57a30.18,30.18,0,0,0,7.63-9.42c3.12-5.74,7.14-17.77-2-20.51-9.37-2.82-14.12,8.76-14.73,16-.11,1.4.94,14,1.74,18.63-9.71-10.25-19.26-20.89-27.91-31.72,2.62,0,10.06-5.4,11.56-6.86,3.67-3.58,9.5-11.48,3.07-15.67-5.72-3.71-12.76,1.67-15.21,6.89a73.34,73.34,0,0,0-1.93,12.45c-3.58-4.59-7-9.2-10.17-13.84q-3.18-4.62-6-9.47a4.1,4.1,0,0,0,1.26-1.24c9.54-1.62,21.7-16.5,10.5-21.68-5.33-2.46-11.12,2.62-13.73,6.78-.54.86-1.4,5.14-2.11,8.51a179.16,179.16,0,0,1-12.51-33.63,2.06,2.06,0,0,0,1.63-1.93c4.63-2.64,8.29-4.84,11.52-9.91,2-3.16,5.63-10.36-.28-12.11-7.67-2.28-12.5,9.45-13.13,15.23-.07.67-.07,2.62,0,4.41a2.38,2.38,0,0,0-.8,0c-1.77-7.19-3.17-14.47-4.29-21.76,4.19-1.35,4.91-23.36,2.12-26.5-6.23-7-10.64,3.12-10.3,8.48.39,6.32,3.25,12.07,6.66,17.17.37.54.26.51.36-.24a1.52,1.52,0,0,0,.36.84,93,93,0,0,0-.35,9.67,224.92,224.92,0,0,0,2.87,25.23q.53,3,1.19,6a48.32,48.32,0,0,0-9.68-6.21C523.66,250.16,516.55,247.93,512,251.43ZM744,544a23.61,23.61,0,0,1-1.73,7.85A61.38,61.38,0,0,0,744,544Z"/><path id="Leaf-Top" class="cls-3" d="M277.77,33.53c4.64-2.3,10.82.37,8.24,6.45-2.76,6.51-13,6.59-18.75,6.47.58,0,2.44-6,3.07-6.91A19.59,19.59,0,0,1,277.77,33.53ZM224.35,152.2C222.71,153.6,224.21,152.33,224.35,152.2Zm58.81-88.43a5.55,5.55,0,0,1,.64,8.32c-2.71,3-7.63,2.88-11.31,2.6-1.67-.14-10.56-.84-8.45-2.28a7.25,7.25,0,0,0-.86.41c-.2.71-.4,1.41-.61,2.11l.15.09a.8.8,0,0,1-.16-.08,80.56,80.56,0,0,1-9.17,19.89,18.62,18.62,0,0,1,4.6-1.22c4.64-.59,14.39,3,9.2,9.09-5,5.87-12.72-.42-18.36-1.28A262,262,0,0,1,231,123.25a1.52,1.52,0,0,1,.93.76c2.53-1.27,5.18-3.1,7.53-3.59,3.39-.72,10.34-1.15,12.9,1.85,3.14,3.69-.23,6.7-4,7.41-5.39,1-12.46-1.58-17.65-3.34a1.74,1.74,0,0,1-1.63-.54l-.34-.11c-6.41,7-13.06,13.73-19.68,20.33l.22,0a17.92,17.92,0,0,1,5.58-2.52c4.64-1.12,10.09-1.13,13.85,2.19s5.08,9.1,1.2,12.81c-7.77,7.45-19.2-9.51-23.11-10.21-6.73,6.63-13.83,12.84-21,18.91a12.61,12.61,0,0,1,2.53-.51c7.07-.67,23.68,7.91,15,16.36-7.57,7.37-16.32-6.8-22.42-11.75-6.8,5.66-13.63,11.28-20.28,17.13a19.46,19.46,0,0,1,11,.06c4,1.2,10.5,4.21,8,9.58s-10.38,3-14.43,1.25c-2.21-.94-6.65-4.14-10.54-5.48-10.61,9.92-19.8,20.84-26.75,33.71a114.58,114.58,0,0,0-10,25.43c-1.48,5.63-4.4,15.08-3.82,22.4-2.78-14.66,2.26-32.27,7.69-45.38,5-12,12.45-22.63,21.19-32.16-2.19-6.53-20.63-15.94-9.6-22,5.86-3.21,11.85,2.11,13.13,7.75.88,3.87-.47,8.74-1.89,12.5,2.75-2.91,5.61-5.72,8.55-8.44,4.07-3.75,8.24-7.4,12.44-11-6.92-6.45-13.47-24.87-4.18-27.89,13.72-4.44,7.1,20.7,6.15,25.41a.76.76,0,0,1-.64-.24c.07.43.16.89.27,1.36,8.05-6.86,16.22-13.58,24.12-20.6-.71-.52-1.84-2.51-2.73-3.57a40.17,40.17,0,0,1-5.32-7.68c-2.22-4.41-4.35-11.45,1.53-14,6.39-2.83,9.42,5.13,9.46,9.88,0,3.29-.88,6.41-1.35,9.63-.15,1,.42,5.53-1,3.59a10.23,10.23,0,0,1,0,1.6c1.42-1.26,2.83-2.55,4.22-3.83a1.85,1.85,0,0,1-.12-.55,1.66,1.66,0,0,1,2.38-1.55c1.84-1.74,3.67-3.5,5.46-5.29,3.81-3.8,7.67-7.71,11.5-11.7-.83-.71-.5-1.69-1.27-2.44s-2.31-1.16-3.22-1.85a21.74,21.74,0,0,1-5.57-6.82c-2.27-4.14-5.21-12.84,1.43-14.82,6.85-2,10.32,6.33,10.75,11.56a130.32,130.32,0,0,1-1.27,13.48c7.09-7.42,14.07-15.12,20.39-23-1.92,0-7.34-3.9-8.44-5-2.68-2.58-6.93-8.29-2.24-11.32,4.18-2.69,9.33,1.2,11.11,5a52.92,52.92,0,0,1,1.4,9c2.62-3.32,5.12-6.66,7.44-10,1.55-2.22,3-4.51,4.35-6.84a3.25,3.25,0,0,1-.92-.9c-7-1.17-15.84-11.93-7.66-15.67,3.9-1.79,8.12,1.89,10,4.89a38.22,38.22,0,0,1,1.54,6.15,127.39,127.39,0,0,0,9.14-24.32,1.48,1.48,0,0,1-1.18-1.39c-3.38-1.91-6.05-3.5-8.41-7.17-1.47-2.28-4.1-7.48.21-8.75,5.6-1.65,9.12,6.83,9.58,11,.05.48.05,1.89,0,3.18a2.25,2.25,0,0,1,.58,0c1.29-5.2,2.32-10.46,3.14-15.74-3.06-1-3.58-16.89-1.54-19.15,4.56-5.08,7.77,2.25,7.52,6.12-.29,4.57-2.38,8.73-4.87,12.42-.27.39-.19.37-.26-.18a1.18,1.18,0,0,1-.26.62c.12,2.4.37,4.86.25,7a162.19,162.19,0,0,1-2.11,18.24q-.37,2.19-.87,4.35a35.64,35.64,0,0,1,7.08-4.5C274.62,62.86,279.82,61.24,283.16,63.77Zm-169.66,211a11.2,11.2,0,0,0,1.59,5.21A29.31,29.31,0,0,1,113.5,274.79Z"/><g id="Plant-Right" class="cls-4"><path id="Leaf-Me-Alone_" data-name="Leaf-Me-Alone!" class="cls-5" d="M644.58,409.22c18-.94,40.35,9.59,42.27,29.2,1.4,14.25,1,28.46,3.13,42.68a115.12,115.12,0,0,0,10.38,32.64c4.8,10,14.75,18.44,17.34,29.08,1.65,6.78.73,16.32-1.55,22.95-2.76,8.06-1.29,7.42,4.22,14.19,10.81,13.25,20.53,26.85,27.42,42.68,9.91,22.81,16.4,49.47,12.73,74.43-.47,3.17-1,14.55-5.39,15.34-4.88.89-2.6-5.61-2.34-7.72,1.66-13.41,3.13-25.13,1.13-38.75-7.72-52.55-45.42-87.17-70-131.77-1.35-2.3-4.2-7.78-6.18-11.39-3.13-5.71-6.27-16.56-10.51-20.79-8-8-.64,8.05.91,11.11,2,3.87,4.13,8,6.14,11.37,9.21,15.71,19.49,32.86,29,49.06-41.13,9.37-70.11-40.08-81.15-72.6-9.09-26.79-20-89.42,22.41-91.71"/><path id="Leaf-Me-Alone_2" data-name="Leaf-Me-Alone!" class="cls-6" d="M886.36,359.47c-30.16,2.4-49.51,22.3-58.53,50.13-4.85,15-5.41,30.41-8.11,45.82-4.06,23.19-12.8,40.76-29.87,57.29a57.54,57.54,0,0,0-12,16,68.15,68.15,0,0,0-13.8,19.72c-4.49,9.92-5.76,21.82-.58,31.7,1.4,2.66,4.88,8,8.48,10.42-13.5,28.75-20.92,60.24-20.08,91.69.5,19,1.43,38,2.51,56.94.29,5.09,2,13.5,4.44,5,2.28-7.81-.58-20.07-.84-28.23-1.29-39.75-2.39-75.89,14-113,1.72-3.89,3.54-7.76,5.43-11.59.11-.06.21-.14.32-.21l.21.17c.12-.22.29-.48.48-.76a10.34,10.34,0,0,0,1.47-2.06c1.45-2,3.09-4.38,3.1-5.67v0c10.13-16.53,21.73-32.15,33.59-47.47-.09.11,12.85-17.51,10.85-7.77-1,4.7-10.49,13.64-14.33,18.62a459.17,459.17,0,0,0-26.79,38.65c-1.12.64-2.7,3.79-3.84,6.14-.63,1.19-1.22,2.39-1.8,3.43,29.41,9.72,52.29-9.86,67.89-32.62l.05-.08c4.75-6.29,9.61-12.54,15.69-17.51,10.13-8.3,21-9.76,32.94-13.84,32.59-11.14,46.44-53.37,50.84-84.71,5-35.36-19.32-89.57-61.72-86.09"/><path id="Leaf-Me-Alone_3" data-name="Leaf-Me-Alone!" class="cls-6" d="M826.79,260.46c-30.95,32.22-45.9,76.9-57.74,118.9-13.23,46.91-22,94.55-22.3,143.33-.22,32-1.09,64.29.78,96.3.67,11.37,1.8,22.75,3.6,34,.15.92,4.18,26,8,20.18,2.19-3.33-4.13-26-4.61-29.83-2.69-21.31-3.32-42.79-3.18-64.25.21-35.35-.83-70.52,2.75-105.73.54-5.26,1-10.78,2.21-15.93,1.32-5.47-.37-3.08,3.95-5.24s9.39-1.81,13.74-4.45c17.28-10.47,26.11-37.38,33-55,7.86-20.19,12.65-41.71,16.46-63a443.83,443.83,0,0,0,5.95-46.93c.35-5,.37-10.19,1.35-15.09.27-1.32,1.59-3.66,1.54-4.83-.1-2.48-1.59-3.93-1.72-6q-1.94,1.75-3.81,3.58"/><path id="Base" class="cls-6" d="M658,689.65a96.46,96.46,0,1,0,192.91,0"/><path id="Leaf-Me-Alone_4" data-name="Leaf-Me-Alone!" class="cls-5" d="M762.22,690h-5.09a170.11,170.11,0,0,1,1.89-19.1c4.09-24.18,16.87-59.7,44.91-63.63a73.62,73.62,0,0,1,9.45.1,17,17,0,0,1,7.21-2.13c23.87-1.76,50.53,17.5,62,37.54,9.28,16.16,7.72,37.38,2,54.55-3.84,11.49-12.22,27.88-26.19,28-17.49.2-18.33-21.41-18.67-34-.45-16.8-2.57-31.43-15.8-42.87-3.09-2.67-6.46-5-9.57-7.65-4.88-4.11-10.27-8.33-10.9-15.14-.87-9.39,4.43-11.08,12.53-9.34,1.38.3,15.29,6.54,13.23,1.61-.63-1.51-2.93-2.7-5.82-3.6-7.5-.81-16.44-1.76-19-1.19-27.74,6.08-38.54,44.51-41.41,68.93C762.69,684.72,762.44,687.37,762.22,690Z"/></g><g id="Plant-Left" class="cls-7"><path id="Leaf" class="cls-5" d="M235.49,233.05c5.56-7.92,15.86-28,23.68-30.85,5-1.82,3.56,17,3.62,20.62.25,13.9-1.11,27.72-2.78,41.51-3,24.87-12.86,47-26.37,68.18-6.95,10.89-15.1,21.91-26.39,28.71-5.2,3.13-11.46,3.65-16.59,6.35-6,3.14-2.72.6-5.42,6.83-3.74,8.65-4.93,19.81-6.66,29-8,42.36-27.2,266.31-23.86,309.41.3,3.82-5,4.73-5.3.07C148,688.19,160.24,517,166.41,461s12.41-105.46,18.67-124.83c7.6-23.51,21.31-51.77,32.73-73.69A260.2,260.2,0,0,1,235.49,233.05Z"/><path id="Leaf-2" data-name="Leaf" class="cls-8" d="M276.71,507.67c14.45-10.61,30.09,9.41,17,20-7.23,5.87-14.78,3.78-19-1.11-2.76,3.37-5.34,6.89-7.83,9.86Q255.51,550,245.3,564.27c-14.2,19.72-26.37,40.55-39.09,61-12.56,20.19-25,40.47-36.39,61.17C160.18,704,147.33,724.6,144,743.82c5-40.76,24-80,46.64-115.89,22.44-35.65,48.2-74.57,83-102.7C270.09,520,270,512.6,276.71,507.67Z"/><path id="Leaf-3" data-name="Leaf" class="cls-5" d="M2.53,408.24c8.08,1.59,21.3,19.88,28,26.84a261.42,261.42,0,0,1,21.88,26.36,445.85,445.85,0,0,1,38.72,63.15,587.18,587.18,0,0,1,43.07,112.1,462.87,462.87,0,0,1,13.07,73.53c.47,4.65,5.35,40.54-1.69,41.51-6.32.87-4.37-27.25-4.67-31.08-3.45-43.16-13.79-85.16-28.16-125.84-3.13-8.86-6-19.72-11-27.69-3.6-5.75,0-3.74-6.36-5.92-5.44-1.86-11.64-1.41-17.21-3.69-12.11-5-21.8-14.6-30.3-24.3C31.28,514.37,18.2,494,11.38,469.86,7.6,456.47,4.12,443,2.19,429.21,1.69,425.65-2.68,407.23,2.53,408.24Z"/><path id="Leaf-4" data-name="Leaf" class="cls-6" d="M34.44,103.92c30.45,52.82,55.48,110.84,71.64,169.61,9.79,35.6,16.64,72.14,23.44,108.41,10.54,56.17,20.5,112.33,23.34,169.49,2.85,57.49,8.49,123.8-10.34,179.18,9.4-56.22.45-116.06-1.13-172.63-.76-27-3-53.75-5.84-80.6-2.79-26-7.36-52-11.61-77.8q-3.1-18.87-6.46-37.71c-.66-3.74-.94-14.86-3.31-17.42s-14.6-3.63-18.43-5.52A99,99,0,0,1,74.34,324c-12.31-10.95-23-25.27-31.48-39.38-19.56-32.65-27.39-72.49-27-110.3C16,167,27.75,87.92,23,86.83a11.46,11.46,0,0,0,.81-1C27.41,91.81,30.93,97.86,34.44,103.92Z"/><path id="Leaf-5" data-name="Leaf" class="cls-6" d="M363.17,294.42c.46-.68,3.52-5.39,2-5.09,3.14-.62-4.31,5.2,3.5,1.63-3.71,3.5-1.57,8.06-1.52,12.77.09,7.66-1.2,15.25-2.64,22.74a155.89,155.89,0,0,1-10.6,34.38c-10.74,24-29,47.11-50.62,62.11-10.69,7.41-21.16,9.94-33.35,13.35-7.7,2.15-8.31,6.14-12.39,13.61C249,465.48,240.66,481,233.16,497.07c-9,19.2-17.66,38.43-25.86,58-27.64,65.83-50.13,134-62,204.63-.29-41.6,9.34-84.44,21.48-124.09,8.84-28.89,20.35-56.73,32.63-84.3,3-6.68,7.48-15.27,8.74-22.64.89-5.17-1.82-10.13-3.06-15.58-4.82-21.19-4.48-44.93-.24-66.23,4.68-23.49,18.19-34.4,41.06-37.72,8.36-1.22,19-.78,26.66-4.34,8.36-3.88,11.8-16.65,16.55-24.84a337.58,337.58,0,0,1,45.33-61.66A146.35,146.35,0,0,1,350,304C353.48,301.25,360.8,297.83,363.17,294.42Z"/><path id="Base-2" data-name="Base" class="cls-8" d="M106.75,715.12h82.51a1.87,1.87,0,0,1,.81.17,7,7,0,0,1,4.37,7.4l-8.69,58.94a7.21,7.21,0,0,1-7.14,6.16H116.05a7.21,7.21,0,0,1-7.14-6.16L100,721.38a2,2,0,0,1,0-.8A7,7,0,0,1,106.75,715.12Z"/></g><g id="Maceta"><path id="Base-3" data-name="Base" class="cls-2" d="M33.59,736.5c0,28.13,2.22,50.93,32,50.93s32-22.8,32-50.93"/><path id="Fill-27" class="cls-2" d="M74.46,719a58.9,58.9,0,0,0-2.92,5.77,78.86,78.86,0,0,1,.8-12.2c1-7,2.62-14,4.11-21,1.08-5,1-14.05,5.08-18.06,1.11-.86,1.38.84,1.38,1.57,0,.16,0-3-1.09-2.45-6.43,3.32-8.52,13.77-10.58,19-3,7.64-5.56,15.45-6.61,23.4a50.63,50.63,0,0,0-.45,6c-.22-.53-.42-1.07-.65-1.61a108.94,108.94,0,0,0-15-25.05c-1.54-1.93-20.89-21-22.4-18a2,2,0,0,0,.94,1.06s0,0,0,0c1.13,1.84,4.37,4.67,5.37,6.28A120.63,120.63,0,0,1,39,696.1c4.23,8.9,8.15,17.9,12,26.91q1.34,3.15,2.75,6.27c-9.7-14-22.64-26.69-40.46-34,6.09,3.1,10.08,8.92,14.19,13.38,5,5.38,10.17,10.61,15.14,16,5.85,6.34,12.75,13,18.38,20,5.46,11.46,10.76,22.93,14,35-1.34-4.16-.1-9.91-.33-14.28A97.68,97.68,0,0,0,73.47,755,21.12,21.12,0,0,1,75,759.58c-.24-2.42-.53-4.83-.83-7.23.78-2.24,1.54-4.33,2.06-6.06a155.41,155.41,0,0,1,10.1-26,230.19,230.19,0,0,1,13.5-23.06c2.32-3.5,4.67-7,7-10.47,1.53-2.29,3-5.94,5.11-8.13C98.21,691.2,83.19,703.86,74.46,719"/></g><g id="Top-Leaves"><path id="Leaf-6" data-name="Leaf" class="cls-2" d="M908.6,145c-3.94-13.15-13.2-23.44-22.81-32.87C867.09,93.8,857,82.45,850.36,55.6c-3.92-15.79-7.91-32.53-20.34-44-9-8.34-24.64-15.35-36.74-9.38-18.63,11.12-23.63,33.93-21.75,54.36,2.32,25.33,14.15,40.94,36.87,50.27,12.81,5.25,21.32,12.18,28.27,24.26,5.56,9.65,8.8,21.75,15.79,30.5,10.44,13.09,23.51,18.9,39.62,16.73-15.09-27.76-32.72-55.79-54-79.16-2-2.35-13.74-11.35-11.37-15.35,2.61-4.41,14.66,12.15,14.58,12,6.18,7.1,11.9,14.64,17.51,22.25l0,0q8.67,11.7,17.14,23.75c2.27,3.4,4.49,6.83,6.61,10.36,3.11,5.17,8.05,19.84,13.14,23a8.35,8.35,0,0,0,3,1.22c3.47,5.69,6.85,11.42,10.06,17.22,8.4,15.15,15.6,31.15,18.91,48.25,1,5,.28,23.67,3.69,27.27,6.23,6.6,4.41-6.1,4-9.93-3.09-31.73-14.48-58.76-31-85.44,5.08-6.63,5.81-23.52,4.22-28.85"/><path id="Leaf-7" data-name="Leaf" class="cls-2" d="M695.2,160.36c6.57-7.74,22.36-9.05,32-8.54,11.95.65,24.23,3.55,35.6,7.07,18.72,5.8,36.92,16.37,53.42,26.6,2,1.24,26.47,16,24.31,18.55S814.35,189.1,809,186.09c-11.43-6.44-21.92-14.05-34.52-18.3a123.57,123.57,0,0,0-40.57-6c-1.76,0-7.51-1.21-7.63,1.39s9.38,1.22,11.06,1.24A126.21,126.21,0,0,1,758,166.31,98,98,0,0,1,793.8,180c-3.06,7.1-10.38,10.38-18.07,8.6-6.64-1.53-13.11-5.32-19.61-6.42a29.55,29.55,0,0,0-13.31,1c-11.46,3.32-18.06,10.15-30.66,5.4-9.87-3.72-26.39-17.08-16.95-28.21"/><path id="Leaf-Me-Alone_5" data-name="Leaf-Me-Alone!" class="cls-2" d="M702.63,87.48h3.1a103.47,103.47,0,0,0-1.16-11.78c-2.5-14.61-10.31-36.08-27.44-38.46a47.18,47.18,0,0,0-5.78.06A10.54,10.54,0,0,0,667,36C652.36,35,636.08,46.59,629,58.71c-5.67,9.76-4.71,22.59-1.21,33,2.34,6.94,7.46,16.85,16,16.94,10.68.12,11.2-12.94,11.4-20.57.28-10.15,1.58-19,9.66-25.91,1.89-1.62,4-3,5.85-4.62,3-2.49,6.27-5,6.66-9.15.53-5.68-2.71-6.7-7.66-5.65-.84.18-9.34,4-8.08,1,.38-.91,1.79-1.63,3.56-2.17,4.58-.5,10-1.07,11.61-.73,16.95,3.68,23.55,26.91,25.3,41.67C702.33,84.13,702.49,85.8,702.63,87.48Z"/></g></g><g id="humaaans_standing-17" data-name="humaaans/standing-17"><g id="humaaan-1"><g id="Head_Front_Chongo" data-name="Head/Front/Chongo"><g id="Head"><path class="cls-9" d="M288.35,113.63C277,105.85,267.76,95.05,265,80.91c-7.88-40.74,50.62-47,67-29.74s28.74,68.78,15.59,76.17c-5.24,2.95-18.18,2.64-32.34-1.38l22.06,51.66-45.23,12.12Z"/></g><path id="hair" class="cls-10" d="M308.22,34c-6.68-.22-15.82,1.55-19.48,3a33.08,33.08,0,0,0-2.07-16.92c-2.11-5.2-5.76-9.12-9.29-13.32a20.75,20.75,0,0,0-5.58-5A14,14,0,0,0,264.5,0a17.7,17.7,0,0,0-7.36,2c-1,.51-1.84,1.25-2.82,1.8s-1.7,0-2.66-.42a13.92,13.92,0,0,0-7.73-.82,18.78,18.78,0,0,0-7.73,3.08,16.28,16.28,0,0,0-5.52,6,11.31,11.31,0,0,0-1.18,3.56c-.07.51,0,.79-.44,1.08s-.89.41-1.29.68a17.8,17.8,0,0,0-7.53,11.56c-.5,2.76.11,7.22,1.55,12S231,56.75,236.38,60.25a28.7,28.7,0,0,0,16.44,4.17,41.72,41.72,0,0,0-3.77,15.81,69.58,69.58,0,0,0,1.07,17.69c1.06,5.55,2.56,11.32,5.28,16.3,2.54,4.67,6.21,8.06,11.21,9.51a40.73,40.73,0,0,0,7,1.23,42.64,42.64,0,0,0,7,.31c4.39-.26,9.15-1.69,11.48-5.84a23.42,23.42,0,0,0,2.17-5c.16-.6.26-1-.25-1.4a9.8,9.8,0,0,0-2.14-1.09,16.62,16.62,0,0,1-8.6-9.12c-1.68-4.24-2-10.2,1.77-13.26,4.67-3.78,11.23-2.64,16.61-1.38.13-7.54,2.55-14.94,8.13-19.88,6.18-5.46,14.24-8.07,20.75-13.08a14,14,0,0,0,4.37-4.72,7,7,0,0,0,.86-2.86c0-1.25-1-2-1.88-2.79C329.41,40.83,314.9,34.2,308.22,34Z"/></g><g id="Bottom_Standing_Skinny-Jeans" data-name="Bottom/Standing/Skinny-Jeans"><polygon id="Leg" class="cls-10" points="302.53 347.26 373.13 594.07 424.64 775.97 462.21 775.97 407.48 347.26 302.53 347.26"/><path id="Leg-2" data-name="Leg" class="cls-11" d="M283.49,347.26c-1.63,127.21-7.2,196.59-8.92,208.14S246.93,640.49,196.79,776h38.93Q331.45,581,342.61,555.4C350,538.34,373,469,407.53,347.26Z"/><g id="Accessories_Shoe_Flat-Pointy" data-name="Accessories/Shoe/Flat-Pointy"><path id="Shoe" class="cls-10" d="M193.1,812,195,770.57h40.8q29,20.71,75.76,33.54V812H237.78l-25.25-4v4Z"/></g><g id="Accessories_Shoe_Flat-Pointy-2" data-name="Accessories/Shoe/Flat-Pointy"><path id="Shoe-2" data-name="Shoe" class="cls-10" d="M420.07,812,422,770.57H462.8q29,20.71,75.77,33.54V812H464.75l-25.26-4v4Z"/></g></g><g id="Body_Lab-Coat" data-name="Body/Lab-Coat"><path id="Skin" class="cls-12" d="M461.42,295.74l66.63,38.71q25.89,4.1,43.84,12.38c2.92,2.14,6.64,6.68-4.48,7s-22.81,1.16-23.94,5.06,6,7.68,3.47,13.06q-2.55,5.39-31.73-22.28l-64-18.83ZM195,320.88l34.9-1.08q-33.93,128-36.69,135.5c-4.13,11.29,6,27.9,10.39,36.86-13.09,6.39-12.43-15.59-28.94-7.23-15.07,7.64-26.27,20.9-44.33,10.67-2.23-1.26-4.78-6.21.84-10.34,14-10.3,34.1-28.17,36.7-33.91Q173.22,439.6,195,320.88Z"/><path id="Coat-Back" class="cls-13" d="M312.93,157.73l19.86-10.65C373.94,213.14,428.74,274.42,510.27,320L498,353.34c-69.13-25.67-133.46-43.74-167.24-94.6C319.4,241.67,316.17,180,312.93,157.73Z"/><path id="Shirt" class="cls-14" d="M275.78,370.64q92.31-6.4,142.65-25.15c4.16-1.55,3.58-8.83.73-13.33-44.38-70.21-77.31-132.49-86.58-185q-7.79,5.79-29.67,6.56C274.19,214.58,267.56,279.84,275.78,370.64Z"/><path id="Coat-Front" class="cls-15" d="M292.59,150.81l16-2.82c7.55,21.08,71.15,313.29,124.27,403.17l-195.62,34.5c-11.31-88.93,3.47-200.76,21.73-295.38Q221.18,339.14,205,442.81l-38.3-2.9q10-182.45,122.63-287.23l.33-1.36,1.41-.25,1.39-1.27Z"/></g></g></g></svg>