<svg id="Layer_1" data-name="Layer 1" xmlns="http://www.w3.org/2000/svg" viewBox="0 0 933.28 863"><defs><style>.cls-1{fill:#f2f2f2;}.cls-1,.cls-10,.cls-11,.cls-12,.cls-3,.cls-4,.cls-5,.cls-6,.cls-7,.cls-8,.cls-9{fill-rule:evenodd;}.cls-2,.cls-5{opacity:0.5;}.cls-3{fill:#89c5cc;}.cls-4{fill:#69a1ac;}.cls-5,.cls-6{fill:#c1dee2;}.cls-5{isolation:isolate;}.cls-7{fill:#b28b67;}.cls-8{fill:#191847;}.cls-9{fill:#997659;}.cls-10{fill:#e4e4e4;}.cls-11{fill:#db2721;}.cls-12{fill:#ff4133;}</style></defs><g id="Scene_Whiteboard" data-name="Scene/Whiteboard"><path id="Background-Shape" class="cls-1" d="M13.29,652.65c23.36-120.3,259.74-51.77,414.7-89S766.3,353.3,887.64,438.14s-7.77,289.94-286.06,336.22S-10.07,773,13.29,652.65Z"/><g id="Cells" class="cls-2"><path id="Fill-5" class="cls-3" d="M75,90.78C72.77,93,73.65,101,73.6,104c-.07,4.61.22,9.17.6,13.76.26,3.07,1.71,32.4,5.76,30.15,2.28-1.27.85-9.75.85-12.44,0-6-.26-11.91-.66-17.87a154.3,154.3,0,0,1-.38-16.52c0-1.35,1.31-16.35-4.74-10.29"/><path id="Fill-7" class="cls-3" d="M173.16,87.17c-19.36.15-38.71,1.11-58.06,1.69-9.31.28-18.62.64-27.92,1.16-3.17.17-10-.84-12.6.85-5.87,3.75,3.59,4.62,6.11,4.53C119,94,157.29,92.19,195.62,92.1c18.8,0,37.59.49,56.39.37,7.19,0,15.15-3.14,17,5.23,2,9.44-.3,20-.94,29.43A164.81,164.81,0,0,0,268,146c.18,4.06-.3,8.63.42,12.6s3.44,6.13,6,1.84c1.5-2.56.75-8.89.85-11.87.14-4,0-8,0-12,0-9.76,1.38-19.49,1.2-29.25-.12-6.3-.45-17.71-8.4-19.23-8.74-1.66-19.49,0-28.44-.09-22.17-.25-44.31-1-66.49-.82"/><path id="Fill-9" class="cls-3" d="M119.82,148.25q-10.95,0-21.9.17c-6.26.1-16.1-1.21-21.93,1-4,1.54-5,6,0,7.18,5.51,1.29,13.8-.82,19.56-.93,28.89-.51,58.06-1.17,86.9.66,27,1.71,54.58,3.37,81.65,1.56,2.28-.15,13.89-.61,8.59-5-3.09-2.54-15.62-.87-19.64-1-14.17-.43-28.36-.52-42.53-1.06-14-.53-27.91-2.1-41.9-2.49-16.25-.45-32.54-.16-48.8-.16"/><path id="face" class="cls-3" d="M112.51,106.73c11.38.5,22.64,17,11.13,25-10.8,7.49-31-.71-25-15.22-.86,2.09,1.09-2.28,1.12-2.31a30.7,30.7,0,0,1,4.6-3.9,18.32,18.32,0,0,1,5.23-3.16c1.27-.39,1.07,1.11,3-.38m-5.54-6c-5.32,2.08-7.75,4.42-11.41,8.67-2.53,2.94-5.76,4.48-5.73,8.45,0,.88,1.13,1.84,1.33,2.69.27,1.17,0,2.67.17,3.91,2.2,12.82,17.5,17.14,28.69,14.72,9.76-2.11,17-11.47,14.79-21.65S117.34,96.73,107,100.78"/><path id="Fill-13" class="cls-3" d="M102.23,118.68c0,4.61,7.29,4.61,7.29,0s-7.29-4.76-7.29,0"/><path id="Fill-15" class="cls-3" d="M111.34,117.74c0,3.67,5.79,3.67,5.79,0s-5.79-3.77-5.79,0"/><path id="Fill-17" class="cls-3" d="M113.14,125.3c-1.86.71-4.21-.76-5.73.21-2.7,1.73,0,3.29,1.45,4,6.51,3.12,7.66-5.48,4.28-4.19"/><path id="Fill-19" class="cls-3" d="M212.47,115.08h0m-28.32-4.14c-4.87,1.1-9,5.65-14.27,5-4-.47-6.8-4.38-10.8-5-5.12-.73-19.05,11-11.73,13,4.28,1.17,6.65-6.64,10.42-7,3-.33,7,3.33,10.15,3.85,5.77,1,9.74-2.2,14.8-4.25,5.51-2.23,8.64-.22,13.43,2.25,3.78,2,7.34,3.23,11.67,2.42,4.06-.75,9.16-4.93,13.25-4.5s6.86,4.6,11,5c1.7.16,4.23.74,3.94-1.88-.22-2.09-2.56-1.74-4-2.5-3.76-2-7.28-5.43-11.83-5.14-3.42.23-6.53,2.63-9.68,3.78-10.31,3.76-16.11-7.28-26.29-5"/><path id="Fill-21" class="cls-4" d="M192.76,177.37c-19.89.18-39.86.48-59.7,2.07-4.7.38-52.73,4.91-52.64,5.24.17.61,6.35,1.53,6.31,1.67-.42-1-1.37-1.46-2.86-1.28,45.56,0,91-4.08,136.58-3.34,11.46.18,23,.1,34.41.46,2.86.09,9.95,2.14,12.19.85,5.9-3.39-4.81-3.78-6.58-3.92-22.45-1.8-45.2-2-67.71-1.75"/><path id="Fill-23" class="cls-4" d="M74.52,187c-3,3-.23,13.71-.12,17.74.17,5.83,0,11.7.55,17.51a118.39,118.39,0,0,0,3.23,20.17c1,3.55,4.33,9.19,5.66,2.74,1-4.61-.49-10.72-1-15.41A184.19,184.19,0,0,1,82,211c0-5.5-.13-11-.58-16.5-.23-2.84-1.66-12.65-6.88-7.46"/><path id="Fill-25" class="cls-4" d="M149.36,241.67c-14.12.25-28.27.58-42.37,1.46-5.77.36-11.55.9-17.3,1.51-1.18.13-14.18.65-8.37,5.45,2.62,2.17,13.41-.83,17-1.14,6-.52,12-.87,18-1.12,13.93-.59,27.89-1.11,41.83-.87,25.45.44,50.74.64,76.2.07,3.61-.08,31.95.68,32.91-3.09.78-3-9.35-1.64-11.2-1.58-6.78.2-13.56.15-20.34.12-28.73-.15-57.62-1.29-86.32-.81"/><path id="Fill-27" class="cls-4" d="M262.43,182c.44,12.58,2.59,25.13,3.27,37.74.31,5.77.68,11.52,1,17.29.09,1.86-.66,6.34,1.54,7.41,3,1.47,3.43-1.49,4-3.49,1.63-5.77.53-13.28.38-19.21-.14-5.75-.15-11.51-.57-17.24s-1.62-11.61-2.17-17.45c-.23-2.47.58-6.58-2-8.12a3.59,3.59,0,0,0-5.36,3.07"/><path id="face-2" data-name="face" class="cls-4" d="M123.64,202.92l.17.12-.17-.12m-12-3.73c4.47,1.28,8.14.8,12.42,4.06,3.54,2.7,7.18,6.65,8.35,11,2.72,10.09-6.49,15.62-15.12,15.73-8.84.11-21.92-1.94-21.47-13.27.35-8.71,6.71-17.2,15.82-17.54m.31-5.7c-11.6.58-21,13.61-20.86,24.58.12,13.29,15.18,16.71,25.88,16.8,12.08.11,24.12-8.23,20.88-21.81-2.59-10.88-14.74-20.15-25.9-19.57"/><path id="Fill-31" class="cls-4" d="M100.29,211.34c0,3.7,5.86,3.7,5.86,0s-5.86-3.82-5.86,0"/><path id="Fill-33" class="cls-4" d="M112.57,209.71c0,3.74,5.91,3.74,5.91,0s-5.91-3.85-5.91,0"/><path id="Fill-35" class="cls-4" d="M105.8,218.17c-3.81,3.8,9.58,10.47,12.74,5.18,2.59-4.35-3.05-2.91-5.06-3.14-2.17-.26-5.9-3.82-7.68-2"/><path id="Fill-37" class="cls-4" d="M212.87,209.79h0m-50.29-6.2c-3.86.73-16.53,5-16.7,9.58-.31,8.32,12.09-.2,14.79-1.3,7.32-3,11.16,3.09,18.51,3.41,6.39.28,12.26-5.18,18.27-4.54,6.3.68,9.33,7.38,16.61,3.83,3.85-1.89,3.75-4.79-.57-5.06-2.61-.17-4.41.91-7.13-.21-4.26-1.76-6-4.62-11.07-4.16-3.84.34-7.31,2.51-11.07,3.34-8.59,1.92-13.36-6.44-21.64-4.89"/><path id="point" class="cls-4" d="M242.51,213.4h0m1-3.46s.33.42,0,0m-4.43-2.65h0m.1,0c.86.51,7.75,5.23,2.74,6.34-2.54.56-4.65-4.56-2.74-6.34M236.87,202c-11.05,5,.84,23.07,9.52,15.74,3.64-3.08,4.12-9.31.58-12.52-2.13-1.92-7.21-4.54-10.1-3.22"/><path id="Fill-41" class="cls-3" d="M133.15,273.08c-13.79,0-27.7-.29-41.47.53-2.32.14-11.15-.3-12.34,2.12-2.18,4.43,6.9,2.23,8.22,2.1,27.42-2.75,56.05-1.17,83.56-.38,22.5.64,44.87,1,67.35,2.19q8.85.47,17.7,1c1.93.12,6.77,1.39,7.18-1.68.37-2.85-5.67-2.2-7.18-2.28q-18-.94-36-2c-28.87-1.63-58.13-1.64-87-1.63"/><path id="Fill-43" class="cls-3" d="M78.9,278c-2.58,2.56-1.37,12.33-1.44,15.56-.13,5.66-.4,11.3-.51,16.95-.13,5.91,0,11.84.39,17.74.15,2.47,2.18,14.44,5.38,7.59,1.43-3.06,0-11.58,0-15.05,0-6.31.38-12.59.69-18.9.27-5.41.28-10.83.52-16.25.07-1.73.28-13-5-7.64"/><path id="Fill-45" class="cls-3" d="M265.67,328.49c-13.42,1.37-27.06.72-40.53,1.74-11.61.87-23.2,1.23-34.84,1.48-26.36.55-52.76,1.09-79,3.29-6,.5-12,1-18,1.3-3,.13-15.6-1.23-16.54,1.93-1.6,5.4,11.88,3.26,14.78,3.18,6.39-.19,12.76-.65,19.13-1.14,26.79-2,53.69-2.65,80.54-3.5,14.61-.46,29.11-1.52,43.68-2.5,7.26-.48,14.54-.5,21.81-1,1.9-.12,8.62.12,10-1.41.94-1.05,1.18-3.61-1-3.4"/><path id="Fill-47" class="cls-3" d="M261.12,278.92c.46,12.87,1.18,25.73,1.62,38.6.13,3.87-1,10.8,1.12,14.22,3.46,5.48,6.16-.32,6.8-3.74,2-10.8-.15-22.72-.71-33.57-.21-4.15,1.07-13.37-.93-17.07-1.91-3.54-8.07-3.18-7.9,1.56"/><path id="hola-:_" data-name="hola-:)" class="cls-3" d="M238.59,297.25c5.14,1.39,5.89,12.57.09,13.4-8.63,1.23-4.86-11.09-.09-13.4m-1.44-4.44c-1.57-.05-5.19-.48-6.16.79-.8,1.07,0,3.32-.08,4.34-.34,3.64-3.3,5.74-2,10a10.49,10.49,0,0,0,6.23,6.66c15.45,5.34,15.26-24.51,2-21.82"/><path id="Fill-51" class="cls-3" d="M97.65,294.81l-.11.15.11-.15m12.14-6.45-.18-1.56c8.37,4,15,11.31,12.26,21.19-2.12,7.53-9.79,10.2-16.94,8.34-7.9-2.06-11.68-8.57-9.55-16.58,1-3.69,4-8.65,7.91-9.84,1.82-.55,5.84.85,6.5-1.55m-4.9-3.13A11.89,11.89,0,0,0,99,287.46a9.66,9.66,0,0,1,5.91-2.23m.06-4.87c-5.23.16-8.66,3.33-11.77,7.14-1,1.19-4.27,4.36-3.86,6,.32,1.27,1.17,3.13,2.94,1.71C83,313.74,107,329.56,121.68,316.66c13.7-12,.11-36.86-16.73-36.3"/><path id="Fill-53" class="cls-3" d="M100.19,297.6a1.92,1.92,0,0,0,3.84,0,1.92,1.92,0,0,0-3.84,0"/><path id="Fill-55" class="cls-3" d="M106.74,298c0,2.51,3.9,2.51,3.9,0s-3.9-2.51-3.9,0"/><path id="Fill-57" class="cls-3" d="M109.71,306.84c-1.82.14-8.5-.48-9.67,1.12-2,2.67,1.17,2.76,2.7,3.05s7.39.11,8.24-1.11.57-3.22-1.27-3.06"/><path id="Fill-59" class="cls-3" d="M190.11,299.92h0m-25.21-1.85c-4.11.3-7.59,2.67-11.52,3.61-4.19,1-6-.85-9.82-2.06s-6.78-.76-10,1.95c-1.81,1.53-5.77,5.07-4.64,7.79,2.59,6.24,8.44-3.91,11.19-4.38,4.29-.74,8.11,3,13.06,1.94,4.48-1,8.46-4.05,13.15-4.08,3.92,0,7.61,2.11,11.48,2.63,5.9.79,9.78-1.3,15.24-2.86,4.73-1.35,8.05.43,12.5,1.93,2,.68,8.82,3.17,7.57-1.34-.35-1.28-9.3-3.55-10.68-4-4.89-1.55-8-.95-12.65.83-3.89,1.48-7.15,2.2-11.32,1.39-4.59-.9-8.77-3.72-13.59-3.36"/></g><g id="Big-Cards" class="cls-2"><path id="Fill-67" class="cls-4" d="M353.91,91.27c.66-14.26,1.57-28.51,2-42.78.24-7.07.43-14.14.61-21.22,0-1.57.08-3.15.11-4.72.12-5.35-.52-5.79,4.87-6.27,24-2.12,48.14-2.82,72.19-4.74,29-2.31,58.17-3.91,87.26-4.63,12.93-.31,25.91-1,38.84-.57,2.86.09,8.49-.66,9.61,1.57.49,1-.53,4.27-.66,5.38-.41,3.47-.78,7-1,10.43-1.37,20.56-.55,41.63,3.43,61.87-9.34-5.26-21.14-9.79-32-8.89-11.09.91-19.39,7.32-28.27,13.22-5,3.34-6.72,4.22-11.73,1-4.32-2.78-8.4-6-12.48-9.09-6.28-4.83-12.22-10.06-18.32-15.12-11.21-9.3-26.65-22.54-42.13-18.64-11.07,2.79-21.28,8.87-30.88,14.82-14.27,8.84-27.18,19.66-41.46,28.4M546.17,0C491.05,0,436.35,5.35,381.38,8.24q-8.61.45-17.18,1.29c-3.81.37-13.13-1.17-15.63,2.08-1.66,2.18-.23,2.5,0,4.57a64.07,64.07,0,0,1,.05,8.44c-.19,6.63-.38,13.27-.53,19.91-.57,25.08-.92,50.16.09,75.24.22,5.47,2.21,13,1.12,18.36-.78,3.84-3.42,6.19,2.66,6.9s13.31-1.08,19.31-1.65,12.05-1.2,18.09-1.7c26.24-2.16,52.73-1.83,79-2.55,26.55-.73,53.11-.77,79.66-.79,11.12,0,23.81.62,34.65-2.44,3.82-1.07,4.44-1.6,3.49-5.39-.17-.72-1.33-1-1.66-2.28-.46-1.77-.23-3.91-.33-5.75-.36-6-.48-12-.76-18-.47-10-2.2-19.79-3.48-29.73-1.48-11.48-1.41-23.13-1.44-34.68,0-6.41.15-12.8.67-19.19.33-4.1,2.35-10.22,1.32-14a5.63,5.63,0,0,0-3.32-4.23c-1.26-.52-2.31-.12-3.55-.25a30.69,30.69,0,0,1-4.16-.76C561.94-.14,553.86,0,546.17,0"/><path id="Fill-69" class="cls-3" d="M515.66,27.29c0,4-.62,9.89,1.22,13.65,2.33,4.77,5.26,3.28,6-1.2.44-2.57.43-10.17-.39-12.45-1.17-3.22-6.86-5.41-6.86,0"/><path id="Fill-71" class="cls-3" d="M522.37,28.83c-3.75.14-14.68-.76-17.21,2.25-4.36,5.17,3.22,6.09,6.47,5.8,3.77-.33,15.4.48,17.92-2.54,4.22-5.05-4.24-5.61-7.18-5.51"/><path id="Fill-73" class="cls-3" d="M376.84,162.28c16.49,2.86,11.36,28-4.24,22.18-5.44-2-13.45-7.89-10.44-14.8,2.24-5.16,9.55-7.87,14.68-7.38M370,154.47c-10.72,1.8-18.05,13.4-14.37,23.52,3.54,9.77,17,16.92,26.92,13.41,9.47-3.35,14.19-16,11-25.17-3.34-9.63-14.21-13.34-23.55-11.76"/><path id="Fill-75" class="cls-3" d="M470.29,165.22c-4.1.34-7.65,3.22-11.78,3.72-3.86.48-7.06-.84-10.68-1.9-4.37-1.27-8.38-1.83-12.84-.7-3.42.87-6.78,3.19-10.33,3.47-7,.55-15.08-7.41-20.53,1.59-2.61,4.32,1.18,7.1,5.08,5.09,4.08-2.1,2.08-2.85,7.13-1.61,4.21,1,7.62,1.59,11.84.14,3.82-1.31,7.18-3.71,11.34-4s7.6,1.59,11.49,2.39c4.79,1,9,.24,13.55-1.26,4.31-1.43,6-2.21,10.38-.93,2.76.8,8.78,3.36,11.46,1.3,4.63-3.57-1.57-4.09-4-4.6-3.93-.81-8-3.05-12.09-2.72"/><path id="Fill-77" class="cls-3" d="M564.22,162.83l.1.07-.1-.07m-4-.85c6,.39,12.48,11.3,4.54,11.69-5.59.28-11.84-9.28-4.54-11.69m-.84-8.93c-19,5.29-10.28,32,8,28.92,8.31-1.4,11.12-11,8.37-18.14a15.61,15.61,0,0,0-6.22-7.4c-2-1.29-7.82-4-10.14-3.38"/><path id="Image-Border" class="cls-4" d="M355.6,323.79c-.56-2.49-.26-6.29-.29-7.17-.15-4.11-.2-8.23-.36-12.35-.37-9.81-.62-19.68-1.38-29.47-.72-9.35-2.55-18.43-2.6-27.85,0-6.38-1.81-22.53,3.78-26.87,9.59-5.59,5.8,14.16,5.64,17.58a205.21,205.21,0,0,0,1.2,30.36c1,9.38-.14,18.71-.5,28.09-.2,5-.3,9.95-.68,14.92-.11,1.55.07,8.53-.75,12.25,2.1-.09,4.09,0,5.2,0,7.77-.24,15.54-.44,23.32-.74,29.9-1.12,59.81-.61,89.7-2,28.28-1.34,56.65-1.63,85-2a2.87,2.87,0,0,1,2,4.81c-1.55,2-8.76,1.53-11,1.71-8,.64-15.93.93-23.92,1-16.83.16-33.6.88-50.41,1.84-29.86,1.7-59.76,1.56-89.64,2.77-7.25.3-14.5.52-21.76.71-3.82.1-13.84,2.4-15.74-2.17C351,326,352.88,324.46,355.6,323.79ZM521,207.52c9-.08,18,.08,27.08.59,4,.23,8,.46,12,.62,2.32.1,7.61-.66,9.64.42,8,4.22-8.27,4.68-10.24,4.65-8.29-.14-16.56-.79-24.85-1-30.48-.75-61.18,1.1-91.63,2.35-14.65.6-29.29.69-43.94,1.51-8,.45-16,1-24,1.39-3.69.19-7.38.38-11.08.47-2.28.06-6.91,1-9,.14-1.79-.73-3.24-1.75-2.25-3.92,1.06-2.34,5.68-1.35,7.63-1.38,7.05-.14,14.09-.54,21.13-1,16-1,31.94-2.12,48-2.39C460,209.49,490.45,207.8,521,207.52Zm42,10.4c0-4.18,5-5,7.26-2.18s.75,11,.81,14.23c.17,10.73,1.18,21.41,2.15,32.09s1.63,21.21,2.37,31.82c.34,4.91,4.11,24.49-1.37,27.35-7,3.64-5.67-14.92-5.87-18.3-.63-10.89-1.42-21.8-2.4-32.66C564.33,252.71,563,235.56,563,217.92Z"/><path id="Image-X" class="cls-3" d="M470.62,268.34Q485,273.46,499.24,279c5.08,2,10.13,4,15.2,6,2.54,1,13.09,3.5,13.7,6,.86,3.58-10.4-.82-12.19-1.39-5.05-1.62-10.05-3.43-15-5.23-11.18-4-22.3-8.18-33.52-12.08l-3.15-1.09q-17.87,8-35.64,16.23-9.53,4.41-19,9c-4.67,2.27-13.12,8.72-18.27,8.61-1.94-.05-3.26-.46-3.46-2.82-.26-3,4.6-4.26,6.57-5.24q10.09-5.06,20.3-9.89c13.49-6.44,27.11-12.62,40.78-18.68l.24-.1q-11.37-3.85-22.8-7.52c-4.36-1.4-34.89-8.94-33.77-13,1.25-4.54,28.29,6.15,32.45,7.48q15.34,4.89,30.6,10.12c24.38-11,49-22.61,74.43-30.58,1.6-.5,2.62,1.15,2.25,2.53-.48,1.86-6.19,3.36-7.77,4.06-6.26,2.8-12.55,5.53-18.82,8.33-13.64,6.09-27.3,12.13-40.94,18.23Z"/><path id="Fill-117" class="cls-3" d="M380.46,345a12.31,12.31,0,0,1,9.94,13.34c-.92,8.46-9.35,12.34-17.15,11.24-8.84-1.26-10.7-8.73-6.41-15.92,1-1.59,2-3.5,3.76-4.33,1.18-.58,2.69-.07,3.65-.54,3.34-1.62,1.33-4.22,6.21-3.79m-2.84-5.52c-7.61,1-21.67,9.77-20.95,18.58a2.53,2.53,0,0,0,2.78,1.25,13.73,13.73,0,0,0,.29,5.67,12.19,12.19,0,0,0,4.1,6c4,3.26,9.41,4,14.37,3.48,9.25-1.06,16.54-7.38,17.06-17,.51-9.39-7.69-19.22-17.65-18"/><path id="Fill-119" class="cls-3" d="M414.46,351c-3.41,1.81-8.81,4.58-10.81,8-2.12,3.63.07,7.6,4.53,5.88,3.54-1.36,5.79-5.69,9.56-7.08,3.33-1.22,4.67-.6,8.19.62s6.79,2.47,10.71,2.16c4.93-.38,9.2-3.24,14-3.89,4.06-.55,7.41,1,11.29,1.66,4.52.73,7.46-1,11.69-1.87,2.87-.6,7.93,1.86,10,.94,4.71-2.07-.27-4.6-2.88-5.44-4.39-1.41-7.09-.16-11.27,1-4.53,1.27-6.49.32-10.82-.85-8.77-2.35-15.55,3.35-23.86,2.31-7.7-1-12.3-7.73-20.37-3.46"/><path id="Fill-121" class="cls-3" d="M557.85,346.74c8.44,7.91-1,19.17-10.35,12.85-3.27-2.23-3.33-5.81-.78-9C549.06,347.66,554.18,346.52,557.85,346.74Zm-3.13-6.4c-7.88,1.54-15.32,5.16-16,14.26-.69,8.88,8.42,13,16.07,12.42C571.93,365.71,570.68,337.26,554.72,340.34Z"/></g><path id="Fill-79" class="cls-5" d="M741.51,45.42c-6.3.12-21.88,2.42-24.19,9.88-1.76,5.66,3.46,4.42,6.26,2.36a26.41,26.41,0,0,1,11.79-5.31c17.87-3.23,35,8.36,52.74,9.83,6.71.55,14.8.91,21.2-1.26,4.56-1.54,5.15-4.91,0-5.43-4.42-.43-9.31.94-13.84.9-18.76-.16-35.42-11.32-53.91-11"/><g id="Cards" class="cls-2"><path id="Fill-173" class="cls-3" d="M78.75,399.78q-18.09.21-36.17,1.34c-11.46.73-23.88.18-35.15,2.4-3.2.63-7.52,3.54-3.27,6.75,3,2.26,13.93-.34,17.5-.56,13.15-.8,26.31-1.77,39.48-2.24,12.46-.44,24.93-.59,37.4-.72,1.91,0,5.07-.63,7-.08,2.73.8,2.08,1,2.29,4.47.36,6.27.26,12.56.14,18.83-.12,6.07-.35,12.14-.32,18.21,0,4.33-1.37,12.94.8,16.71,3.13,5.41,6.38-.47,6.61-4.07.45-6.88.25-13.85.25-20.74,0-6.47,0-12.94-.18-19.41-.17-4.67.5-12.82-2-17.06s-8.73-3.4-13.23-3.6c-7-.33-14.06-.3-21.09-.23"/><path id="Fill-171" class="cls-3" d="M2,407.59C2,419.74.57,431.81.18,444c-.18,5.59-.55,11.71.87,17.19s6,6.74,6.47.56c1.06-12.51.8-25.48,1.62-38.08.29-4.46,2.18-12.61.41-16.78C8,403.17,2,402.46,2,407.59"/><path id="Fill-175" class="cls-3" d="M115.14,461.16c-21,2.78-42.87,1.76-64,2.2-10.13.21-20.25.22-30.38.33-3.54,0-12.51-1.31-15.57.68-4.87,3.16.41,5.6,3.64,5.67,20,.44,40.19-.48,60.18-1.14,9-.29,18-.43,26.94-1.2,5.51-.47,11.54-.92,16.89-2.4,1.14-.32,3.62-.25,3.88-1.81.16-1-.13-2.53-1.6-2.33"/><path id="Fill-177" class="cls-3" d="M28,478.83c-5.82,0-23.37-2.67-25.79,3-3.21,7.57,9.33,5.8,12.71,5.72,7.66-.2,15.32-.22,23-.22s15,0,22.57-.22c2.18-.05,7.25.85,8.5-1.77,1-2,.2-3.57-1.56-4.62-4.22-2.55-15.21-1.07-20.15-1.3-6.41-.3-12.84-.6-19.26-.6"/><path id="Fill-179" class="cls-3" d="M98.85,480.23c-3.33.2-10.06-1.17-13,.35-3.38,1.73-2.19,4.44.74,5.63,2,.83,10.34.4,12.31-.56s4.38-5.69,0-5.42"/><path id="Fill-181" class="cls-3" d="M135.35,408.78c-3.56,1-2.48,21.16-2.57,24.36-.25,8.77-1.24,19.79,1.67,28.24,1.86,5.38,5.43,4.65,4.82-1-.53-5-1.45-9.89-1.84-14.89-.9-11.33-2.12-23.41-1.27-34.75.36.66,3.73,6.77,4.52,6.31-.24.14-3.89-8.63-5.33-8.25"/><path id="Fill-183" class="cls-3" d="M175.34,401.34c-7.19.11-14.39.24-21.58.44-5.72.16-14.71-.78-20,1.62-6.24,2.87-3.28,9.25,2.59,9.38,5.19.12,10.72-1,16-1.23,14.14-.48,28.31-.58,42.46-.7,12.8-.11,26.14,1.25,38.83-.67,1.88,16.71-3.21,33.49-1.48,50.39.27,2.62.15,6.32,3.49,6.92,4.22.76,4.39-3.42,4.55-6.41.46-8.54.21-17.08.83-25.63.58-7.92,1.72-16,.76-23.95-1.19-9.76-5.86-9-14.14-9.39-17.46-.85-34.82-1-52.31-.77"/><path id="Fill-185" class="cls-3" d="M151.23,460.67c-3.67.09-9.76-1-12.11,2.48s.46,6.85,4,7.6c4.21.89,9.69-.33,14.06-.34,4.55,0,9.1,0,13.64,0,19.5.08,39.08.37,58.56-.43,2.72-.12,10.44.8,12.32-1.81,1.67-2.32.5-4.39-1.7-5.57-3.61-1.94-11-1.2-15-1.35-5-.19-9.92-.26-14.89-.33-19.58-.3-39.27-.78-58.85-.3"/><path id="Fill-187" class="cls-3" d="M167.72,477.58c-7.3.13-15.08-.19-22.3.91-6.36,1-7.14,7.12-.3,7.83,6.28.66,13.9-.57,20.21-1,2.24-.14,4.85.07,5.93-2.41s-1-5.08-3.54-5.35"/><path id="Fill-189" class="cls-3" d="M222.87,478.23c-3.89.09-15.27-1.58-17.2,2.87-3.21,7.4,12.19,4.59,15.15,4.48,3.72-.14,18.23,2,18.23-3.89s-12.61-3.55-16.18-3.46"/><path id="Fill-191" class="cls-4" d="M1.34,515c0,13.47-.83,27.07.4,40.5.51,5.56.42,16.21,3.64,20.92,2.28,3.34,5.45,3.11,6.7-.91.83-2.68-.5-8-.65-10.92s-.31-5.51-.44-8.27c-.33-7.1-.3-14.19-.2-21.3.08-6.09,1.55-14.16.17-20-1.29-5.46-9.62-6.74-9.62,0"/><path id="Fill-193" class="cls-4" d="M136.71,503.17c-23.37.59-46.79.06-70.14,1.22-11.51.57-23,1.82-34.44,3.07-5.63.62-11.26,1.25-16.88,1.94-1.69.21-15.78.76-10.48,6.11,2.31,2.34,9.68-.1,12.59-.44,5.64-.67,11.3-1.25,16.94-1.85,10.76-1.14,21.52-2.21,32.32-2.81,25.42-1.41,51-1,76.41-1.93,6.88-.25,13.75-.43,20.64-.16,1.8.07,15.1.75,9.32-4.16-2.72-2.32-13-1.13-16.42-1.2-6.62-.13-13.24,0-19.86.21"/><path id="Wireframy-Stuff" class="cls-4" d="M173.11,574.24h0c-1.27,1.88-6,1.36-8,1.5-6.27.42-12.42,1.14-18.64,2.07a298.71,298.71,0,0,1-37.18,3.31c-24.75.61-49.61,0-74.33,1.74a134.12,134.12,0,0,0-16.25,2c-3.85.73-11.26,3.26-11.71-3.1-.54-7.65,18.67-7.64,24.16-8.15,23.58-2.19,47.55-1.73,71.21-1.4,11.44.16,22.85.51,34.28-.19s23.23-.52,34.56-1.75c-1.46-5.66-1.25-12.73-1.65-18.52-1.06-14.85-.78-29.75-1.45-44.61-.3-6.55,8.62-7.54,11.26-2.24s.94,16,1.11,21.91c.4,13.75,2.95,29.14.26,42.73C179.75,574.33,175.77,576.81,173.11,574.24Z"/><path id="Fill-199" class="cls-6" d="M187.49,512c-3.16.43-5.79,3.13-4.39,6.56,1.78,4.31,7.07,2.62,10.56,2.35,11.1-.87,22.7.87,33.66-.44,3-.36,7.35-2,4.66-6-2-3-9.39-2.49-12.52-2.78a166.59,166.59,0,0,0-32,.33"/><path id="Fill-201" class="cls-6" d="M206.22,530.82c-4.3.29-14.32.06-16.14,5-3.25,8.79,9.49,5.7,13.38,5.2,4.51-.58,15.14,1,17.54-3.4,4.29-7.82-11-7-14.78-6.76"/><path id="Fill-203" class="cls-6" d="M195.15,550.11a5.66,5.66,0,0,0,0,7.74c2.51,2.5,8,2,11.25,2.16,4.6.26,17.78,2.69,20.06-2.72,3.07-7.29-8.86-7.14-12.79-7.55-4.54-.48-14.76-3.39-18.52.37"/><path id="Fill-205" class="cls-3" d="M34.24,425.28c0,7.84,12.25,7.84,12.25,0s-12.25-7.92-12.25,0"/><path id="Fill-207" class="cls-3" d="M57.47,425.36c0,9,14,8.95,14,0s-14-9-14,0"/><path id="Fill-209" class="cls-3" d="M43.42,437.28c-6.78,1.88-.54,7.62,2.61,8.93,5,2.09,11.83,3.63,16.84.5,2-1.24,3.61-2.9,2.15-5.31-1.56-2.58-3.69-1.43-6-1.2a18.47,18.47,0,0,1-8.32-.7c-2.16-.72-4.88-2.87-7.23-2.22"/><path id="Fill-211" class="cls-3" d="M166.4,425.77c0,5.31,8.24,5.31,8.24,0s-8.24-5.3-8.24,0"/><path id="Fill-213" class="cls-3" d="M184.61,426.57c0,5.89,9.15,5.89,9.15,0s-9.15-5.89-9.15,0"/><path id="Fill-215" class="cls-3" d="M183.93,439.36c-4.8.62-18.7,2-19.48,7.95-1.2,9.14,14,1.74,17.51,1,4.43-.91,8.38-.67,12.8-.49,2.42.09,5.65.49,5.4-3.21-.42-6.07-12-5.81-16.23-5.27"/><path id="Fill-217" class="cls-4" d="M63.11,523.63c-3.48.93-8,7-5.64,10.64,3.93,6,5.66-3.24,7.31-4.13,3-1.63,5.42,4.31,8.55,1.2,4.93-4.92-7.11-8.54-10.22-7.71"/><path id="eye" class="cls-4" d="M103,519.16c-4.13,0-12.85,5.89-13.47,10.21a4.27,4.27,0,0,0,4.11,5.06c3.76.05,5-4.85,8.22-5.87,3.52-1.11,3,1.44,6,2.76,2.23,1,5,.56,5.79-2.18,1.45-5.16-6.44-10.06-10.69-10"/><path id="Fill-221" class="cls-4" d="M71.41,543.89c-6.61,3.87,4.26,12.17,8,13.21,5.69,1.56,17.14-1.36,18.49-8.31.53-2.77-1.2-5.27-4.25-4.78-2.51.41-4.12,3.56-6.45,4.69-3.15,1.53-5.94,1.42-8.61-.87-2.17-1.87-3.34-6.2-7.21-3.94"/><path id="Fill-223" class="cls-6" d="M76.19,601.09c-5.9,1.26-11.9.42-17.83,1.6s-9.66,3.49-15.28,1.19l-.79-.33c-4.35-1.88-8.91-2.43-13.46.55-2.7,1.77-10.88,7.88-9.89,11.61,2.14,8.08,11.34-4.59,13.68-5.83,4.48-2.35,7.55.66,12.15,1.51,5.52,1,10-1.9,15.16-3.06C66,607,72.85,606.5,79,605.77c2.45-.29,11.7,1.64,12.54-1.4,1.43-5.22-13.06-3.77-15.38-3.28"/><path id="Fill-225" class="cls-6" d="M118.78,617.37h0m16.53-16.59c5.06-.52,21.22-4.13,24.54,1.1,2.17,3.4-1.27,16-4.54,17.57-2.62,1.3-8.71-.13-11.58-.23-5.34-.19-10.69-.28-16-.61-1.79-.11-7.55.22-9-1.37-1.66-1.87-1.58-11.83-2-14.31,4.64,1.51,13.67-1.66,18.53-2.15m10.79-5.12c-6.47.28-12.94.76-19.36,1.63-3.58.49-7.21,1.77-10.52,2.38-1.06.2-2.79-.35-4.1.29-3.82,1.84-.48,14.32.44,17.65,1.42,5.12,5,5.95,10,6.43a182.92,182.92,0,0,0,19.87.36c6.35-.08,14.92,1.33,18.49-5,2.3-4.12,4.77-13.72,2.8-18.31-2.59-6-12.26-5.61-17.59-5.38"/><path id="quare" class="cls-3" d="M218.58,620.8h0m1.42-1.71c-.11.17-.61.69,0,0m-15.44-.47,8.56-1.58c-2.7,3.78-5.55,2.22-10.17,1.89l1.61-.31M191,617.28l2.17-.72a3,3,0,0,0,.35,1.54l-3.71-.42,1.19-.4m-6.31-4.65c0-1,1.46-.31,2.31-.38q-2.47,2.18-2.31.38m22.56-11.27c.22-.28.51-.26.86,0-.39.13-1.89.77-.86,0m14.63-1.72s.85,1.1,0,0m-.41-.36h0m-1.83-.21c3,.5,2.77,4,0,0m-35.14-.24c-.6.5-.4,0,0,0m11.44-7.47c-5.08.29-14.4,0-18.64,2.7-5.53,3.53-2.62,15.69-2.13,21C175.86,623,179.56,625.2,187,626a197.28,197.28,0,0,0,26.85.94c8-.21,12.58-3,14-11.41.45-2.58,1.59-6.57,1.55-9,0-1.72-.88-2.5-1.2-4-1.84-8.3-4.92-9.29-13.43-9.65-6.27-.27-12.76-1.87-18.91-1.54"/></g><g id="Profile" class="cls-2"><path id="face-3" data-name="face" class="cls-3" d="M464.87,400.57c12.91.27,27.56,7.42,25.52,22.56A24.59,24.59,0,0,1,468.17,444c-11.95.84-24.58-8.33-26.21-20.5-1.82-13.69,10.29-23.19,22.91-22.92m-6.33-6.16c-5.23.78-10.24,3.53-14.84,6-1.76.94-10.68,6.67-3.69,8.1-16.85,27.18,22.81,52.43,45.12,34.76,10-7.93,15.28-23,8.81-34.75-6.7-12.17-22.57-16-35.4-14.1"/><path id="Fill-231" class="cls-3" d="M455.45,417.54c0,5.08,7.88,5.08,7.88,0s-7.88-5.07-7.88,0"/><path id="Fill-233" class="cls-3" d="M470.06,418.36c0,5.5,8.55,5.5,8.55,0s-8.55-5.51-8.55,0"/><path id="Fill-235" class="cls-3" d="M460.21,429.24c-1.15,4.18,12,6.32,12.39,1.49.21-2.31-11.6-4.4-12.39-1.49"/><path id="Fill-237" class="cls-3" d="M498.63,426.66c15.09-1.81,30.64-1,45.8-.54,3.79.11,7.58.22,11.38.28,2.41,0,7.62,1.2,9.72.07,8.62-4.62-8.29-6.86-10.68-7.07a524,524,0,0,0-53.47-1.1c-4.47.18-5.43,8.68-2.75,8.36"/><path id="Hola-:_2" data-name="Hola-:)" class="cls-6" d="M566.51,501.65c.13-15.81.7-31.72,1.91-47.48.5-6.42,1.09-12.83,1.58-19.26.23-3,1.31-7.26-.47-9.91a5.41,5.41,0,0,0-8.27-.88c-2.9,3.75-2.06,10.05-2.42,14.59-.56,7-1.23,14-1.56,21a323.57,323.57,0,0,0,.29,40.84,123.91,123.91,0,0,0,3.12,18.83c.67,2.83,6,15.45,4.91,17.19-1.75,2.7-14.68,1.68-17.48,1.75-7.2.2-14.4.32-21.6.46q-9.24.18-18.49.26c-2.45,0-16.83-.42-13.64,3.21-35.67,2.49-72-1.66-107.47-3.09-1.79-.07-4.72-.58-7.43-.72a23.39,23.39,0,0,1-.65-3.29c-.47-5.7-.59-11.41-1.1-17.11-.92-10.42-2.71-20.74-3.78-31.14s-1-20.82-1.58-31.24c-.1-1.79-.35-16.41-4-20a16.6,16.6,0,0,0,6.19.61c13.15-1.06,26.21-3.34,39.25-5.3,3.73-.56,12.19-.17,15.29-2,2.68-1.62,3.74-7.28-.92-6.82-13,1.4-25.94,3.56-38.83,5.69-3.46.56-6.9,1.17-10.34,1.79-2.3.42-8.36.39-10.14,1.77-2.17,1.69-2.4,2.83-1.66,3.59-1-.28-2.25.16-3.71,1.63-2.78,3.61-.17,12.51.16,16.75.4,5.08.59,10.17.82,15.26a252.83,252.83,0,0,0,3.07,29.3c1.77,10.9,3.28,21.85,5.07,32.74a75.19,75.19,0,0,0,1.83,8.35c-4.79,2.46-1.53,6.36,2.27,7h.09c1.18,2.9,2.84,5.58,4.14,1.7a3.73,3.73,0,0,0,.15-1.07c9.83,1.11,20.63.42,30.31.81,20.95.86,42,2.14,63,1.49a243.38,243.38,0,0,0,24.87-2.1c4.83-.65,9.67-1.42,14.42-2.5.34-.08.86-.16,1.45-.26h.29q10.91-.17,21.8-.61c6.09-.25,12.22-.38,18.3-1,3.77-.36,11.75-.29,14.07-4.09,2.1-3.45-1.42-12.34-1.92-16.22a150.69,150.69,0,0,1-1.16-20.59"/><path id="Fill-241" class="cls-3" d="M492.84,456c-5.81.5-11.18,3.23-17,3.26-4.92,0-9.77-1.44-14.71-1.22-5.81.25-9,4-14.08,5.26-4.05,1-6.6-2.1-10.16-3.47-4.5-1.73-7.82-.84-11.67,1.78-2.83,1.92-9.43,6.24-9.38,10.13.15,11.78,13.9-4.49,16.67-4.69,3.69-.26,7.8,3.93,11.72,4.17,5.18.32,8.5-3,13.27-4.24s10,.28,14.87.75c5.52.53,10.35-.7,15.69-2a31.67,31.67,0,0,1,14.84-.14c3.54.72,12.38,4.93,13.93-.48,2.12-7.37-19.89-9.44-23.95-9.1"/><path id="Fill-243" class="cls-3" d="M494.61,478.49c-11.9,1.15-23.88,2.17-35.83,2.49-5.18.14-25.09-2.08-23.33,4.5,1.52,5.64,28.61,2.09,34.13,1.66,6.09-.47,12.17-1.13,18.23-1.9,2.15-.27,7.34,0,8.85-1.79s.74-5.24-2.05-5"/><path id="have-a-nice-day-:_" data-name="have-a-nice-day-:)" class="cls-3" d="M412.5,508.46h0m2.51,0c3-.09,2.33-1.66,5.29-.84,1.37.37,1.51-.18,2.57,1.12,2.06,2.55.12,8.09-1.92,10.14-7.54,7.6-16.58-10.08-5.94-10.42m0-7.45c-20.63.69-12,32.57,6,26.06,7.42-2.69,12.08-14.79,7.71-21.6-2.12-3.3-4.82-3.89-8.38-4.12-.82-.06-1.86,1.14-2.38,1.09-1.22-.13-1.11-1.5-2.91-1.43"/><path id="espero" class="cls-3" d="M464.35,509.55c-.36-.12,6.52,1.89,5.77,1.1,1.6,1.67-.56,5.63-2.38,6.32-4.4,1.67-6.87-5.18-3.39-7.42m3.06-8.65c-6.46.92-11.45,3.61-12.33,10.8-.82,6.63,3.66,13.34,10.73,13.47,15.41.28,15.88-26.26,1.6-24.27"/><path id="hola" class="cls-3" d="M537.73,509.84c.91,11.77-11.31,1,0,0m-5.24-12.6c-1.06,1.83-.15,3.76,1.46,4.82-14.41,3.05-11.14,24.72,3.51,21.52,7.46-1.63,8.83-9.47,7.72-15.94-.53-3.07-8.2-18.07-12.69-10.4"/></g><path id="Fill-251" class="cls-5" d="M566.57,508.55c-4.29.76-14.44,5.5-14.36,10.6.14,8,8.77-.74,10.69-1.9,10.31-6.28,23.66,1.85,34.39,3.58,4.92.79,14.55,2.26,18.9-1,7.73-5.86-10.15-4.4-12.43-4.63-12.37-1.28-24.69-8.84-37.19-6.61"/><g id="List" class="cls-2"><path id="Fill-253" class="cls-6" d="M769.37,452.65c0,8.14-.41,16.44,1.09,24.48.45,2.43.81,7.09,3.38,8.35a3.91,3.91,0,0,0,5.72-2.8c.74-3.07-.9-7.67-1.06-10.9-.23-4.41-.25-8.83-.25-13.24,0-3.19,1-8.32-2.71-10a4.54,4.54,0,0,0-6.17,4.07"/><path id="Fill-255" class="cls-6" d="M898,439.79c-27,2.7-54.29,3.26-81.33,4.67-12.51.66-27.62-.18-39.4,4.66-2.18.9-10,5.91-3.66,7.94,2,.64,4-1.5,5.63-2.21,2.71-1.19,5.85-1.56,8.74-2,24.57-3.94,50.28-3.26,75.11-5.1,6.37-.47,12.73-1,19.08-1.59,4.54-.44,14.07-3.71,18.26-2,7.15,2.86,7,21.42,7.12,27.81.08,3.3-3.13,15.16,3.24,14,5.1-1,3.26-13.27,2.86-16.64-1-8.83-2.82-30.72-15.65-29.42"/><path id="Fill-257" class="cls-3" d="M907.91,485.43c-23.41,2.11-47.36,0-70.86.87-12.32.43-24.63,1.13-36.95,1.53-5.33.18-10.67.19-16,.23-2.55,0-14.16,1.56-7,6.62,3.18,2.23,13.31.43,17,.39,5.48-.07,10.95-.29,16.43-.51,12.68-.49,25.36-1.18,38-1.53,12.14-.32,24.28-.39,36.42-.72a155.12,155.12,0,0,0,18.15-1.23c1.35-.2,5.73-.36,6.67-1.87s.27-4-1.88-3.78"/><path id="Fill-259" class="cls-6" d="M792.86,467.85h0M803,464.77h0m-.48-.09c5.46,5.57-2.94,12.22-8,6.78-5.44-5.76,4.53-6.76,8-6.78m-5.79-8.42c-18.82,3.35-12.16,28.43,5.42,24.8a12.66,12.66,0,0,0,9.47-16.83c-1-2.92-3.3-6.12-6.45-7-1.57-.46-3,.27-4.45.1s-2.22-1.35-4-1"/><path id="Fill-261" class="cls-6" d="M868.75,463.32c-11.35,0-22.7.52-34,.73-3.48.07-12.42-1.49-12.44,4,0,5.87,10,3.7,13.27,3.62,11.25-.27,22.53-.76,33.74-1.83,2.84-.27,12.64.2,12.63-3.65,0-4.08-10.87-2.86-13.15-2.86"/><path id="Fill-263" class="cls-3" d="M895.85,501.58c-28.07.75-56.09,1-84.13,2.45-10.49.54-21,.94-31.47.94-2,0-6.1-.79-8,.49-5.17,3.45.72,6.42,4.08,6.61,23,1.28,46.41-1.91,69.43-2.62,13.48-.42,27-.55,40.44-1.23,3.67-.19,7.35-.41,11-.69,2.1-.17,7.68.28,9.39-.95,7.45-5.39-8.25-5.07-10.76-5"/><path id="Fill-265" class="cls-3" d="M767.08,515.3a129.49,129.49,0,0,0,.66,21.66c.38,2.85.55,6.08,3.89,6.81,3,.65,4.56-1.64,5.19-4.18,1.54-6.21.19-15.14.17-21.59,0-3.19,0-6.76-4-7.48a5,5,0,0,0-6,4.78"/><path id="Fill-267" class="cls-3" d="M925.6,532.84q-68.15,3.6-136.27,6.41c-3.54.15-31.09-.15-21.46,9.45,3,3,10.64,1,14.49.77,5.78-.28,11.56-.5,17.34-.79,22.92-1.17,45.89-1.48,68.79-2.79,12.6-.72,25.18-1.85,37.71-3.32,6-.7,13.37-.62,18.95-3,2.88-1.2,6-7.06.45-6.77"/><path id="Fill-269" class="cls-3" d="M899.47,495.93c-3.45,3.44-1.67,10.23-1.41,14.48.35,5.86.79,11.71,1.52,17.53.48,3.78.22,9.67,2.24,12.94a5.58,5.58,0,0,0,9.7-.3c1.89-3.27.93-10.14.88-13.76-.06-5-.38-10-.67-15-.25-4.18.69-10.88-1.6-14.45a6.88,6.88,0,0,0-10.66-1.42"/><path id="Fill-271" class="cls-3" d="M795.63,522.64h0m8.07-1c7.53,1.52-4.64,10.31-8.49,4.28-.6-.95-.91-2.11,0-2.92s1.44.57,2.27.22a20.26,20.26,0,0,1,6.17-1.58m-1-7.21c-5.14.4-12.21.72-14.76,5.87-3.42,6.93,2.43,13.7,9.19,14.76,6.51,1,16.23-2.59,16.75-10.18.42-6.12-5.4-10.92-11.18-10.45"/><path id="Fill-273" class="cls-3" d="M845.58,518.07c-5.32.08-15.78-1.49-20.42,1.1s-2.54,7.14,1.65,8.23c2.76.73,7.28-.44,10.16-.56,3.79-.15,7.58-.18,11.38-.24,6.37-.08,12.74,0,19.12,0s13.13.18,19.64-.3c8.22-.61,8-6.77,0-7.54-13.67-1.3-27.78-.9-41.49-.68"/><path id="Fill-275" class="cls-3" d="M832,587.05c0,2.92,2.59,0,2.58,0s-2.58-2.93-2.58,0"/><path id="Fill-277" class="cls-3" d="M773.26,563.49c.17,8.51.28,17,.64,25.52.11,2.69-.66,7.93,2.6,9.3,3.63,1.53,4.75-2.27,5.17-4.85,1.33-8.16,0-17.48-.1-25.73,0-2.78.56-6.64-2.59-8a4.2,4.2,0,0,0-5.72,3.78"/><path id="Fill-279" class="cls-3" d="M913.13,563.62h0m.31-.08h0m-68.71-6.88c-13.06.21-26.13.36-39.18.92-5.57.24-11.2.43-16.75,1-3.93.37-13.7.52-16.25,3.74-5.26,6.63,5.9,4.82,8.3,4.28A80.4,80.4,0,0,1,794.16,565c9.69-.51,19.39-.78,29.1-1,26.32-.53,52.66-.45,79-.57,2.55,0,7.16-1,9.51,0s2.23,3.57,2.47,6.52c.33,3.93-2.26,11.41-.29,14.71,3.06,5.12,7.51.77,8.19-3,.94-5.16-.55-11.36-2-16.29-2.06-7-4.92-7.23-11.65-7.78-7.86-.63-15.7-1-23.58-1.09-13.39-.12-26.79-.14-40.17.07"/><path id="Fill-281" class="cls-3" d="M896.37,591.82c-28.32,3.29-57.45,1.35-85.92,1.47-6.93,0-13.86.08-20.77.42-3.66.18-12.32-.83-14.82,2-5.28,5.94,4.23,6.8,7.7,6.56,7-.5,14.05-.73,21.08-.78,24.77-.19,49.69,1,74.44-.26,10.37-.51,20.51-2.29,30.69-4.27,2.25-.44,17.69-3.37,8.89-6.89-5.21-2.08-15.82,1.12-21.29,1.76"/><path id="Fill-284" class="cls-3" d="M813.68,581h0m-.19-.05c-.07.18-.28.63,0,0m-1.79-2.3h0m-.07,0A6.34,6.34,0,0,1,813,581.3c-5.87,1.59-8.13-3.15-1.38-2.72m-.37-.22h0m-9.64-7.07c-3.79,4.73-6.93,10.24-2.19,15.64,4.23,4.83,12.75,5.45,18.12,2.23,5.53-3.32,5.06-10.32,1.2-14.88-2.49-2.94-4.51-2.86-8.11-3.34-2.46-.33-6.93-2.24-9,.35"/><path id="Fill-286" class="cls-3" d="M840.88,580c0,6.3,27.19,3.59,32,3.58,4.05,0,28.56,2.23,26.8-4.25-1.45-5.33-25.58-2.68-30.72-2.69-4.45,0-28.11-3-28.11,3.36"/></g><g id="Checkmark_" data-name="Checkmark!" class="cls-2"><path id="Fill-292" class="cls-3" d="M485.88,639c13.62,2,27.79,8.39,27.67,24.24-.1,13.32-11.28,27.51-25.63,26.71-12.92-.71-25.08-14.84-26.7-26.94a25.91,25.91,0,0,1,4.42-18.19c4.83-6.76,12.5-6.75,20.24-5.82m-6.43-8.61c-9.85.05-17.06,3.61-23.15,11.14a59.79,59.79,0,0,0-6.39,8.65c-1.56,2.85-1.29,10.11,4,6.71-1.32,14,6.89,27.68,18.7,34.88,12.83,7.82,27.33,6.3,38-4.67,9.78-10,13.22-27,6.07-39.41s-23.71-17.44-37.28-17.3"/><path id="Fill-294" class="cls-3" d="M509,626.66a87.47,87.47,0,0,0-16.85,16.88c-4.67,6-7.76,13.57-13.38,18.83-2.84-3.09-6.16-11.43-11.81-8.12-4.7,2.75-1.68,7.47.61,10.57,5.9,8,12.46,11.23,20,3.32,6.88-7.19,10.78-16.77,17.21-24.37,2.82-3.33,7.18-6.64,9.42-10.32,2-3.34-.48-10.28-5.23-6.79"/></g><g id="Whiteboard-Stuff" class="cls-2"><path id="Wireframy-Stuff-2" data-name="Wireframy-Stuff" class="cls-3" d="M682.33,167.21l.62-.06c5.26-.34,10.58-.2,15.85-.32,10.79-.25,22,.34,32.73-.93,2.18-.28,2.94,2.52,2,4-1.1,1.63-4.61,1.54-6.24,1.78a141.22,141.22,0,0,1-14.38,1.17q-7.57.33-15.14.53c-4.38.12-14.08,2-18.12.12-3.16-1.43-3.08-3-1.8-4.24-.78-1.71-.65-4.52-.81-5.87a138.54,138.54,0,0,1-1.14-16.91c0-11.16,0-22.74,3.09-33.54a2.76,2.76,0,0,1-2-2.49c0-6.83,25.07-5.2,30.15-5.33,6.24-.17,12.49-.19,18.73-.15,4.13,0,9.71-.87,13.82.08,8,1.86,7.49,15.58,7.66,22.21a351.13,351.13,0,0,1-.84,36.27c-.34,4.1-3.32,9.29-6.72,3.64-1.9-3.15-1-10.5-1-14,0-12.37,1.93-25.12.07-37.43-.61-4-.47-4.31-4.58-4.22-3.25.07-6.51.17-9.77.24-6.63.14-13.26.23-19.89.48-2.52.09-11.56,1.67-18.62,1.66a1,1,0,0,1,0,.17c.1,4.77-2.24,10.56-2.55,15.58-.77,12.07.14,24.42-1,36.43C682.37,166.44,682.35,166.82,682.33,167.21Z"/><path id="Wireframy-Stuff-3" data-name="Wireframy-Stuff" class="cls-3" d="M777.3,170.7a8.78,8.78,0,0,1-2-3.6c-1.7-5.5-1.86-11.45-2-17.16-.27-12.2-.13-24.42-.21-36.63-1.11-1.49-.45-3.19.93-4.38,3.74-3.2,14.49-2.39,19.23-2.64,6.81-.36,13.64-.44,20.46-.47,7.23,0,14.47.1,21.69.32,2.68.08,21.32.55,13,5.07a8.91,8.91,0,0,1-1.6.65,25.81,25.81,0,0,1,.33,5.2c-.35,6.49-.5,13-.79,19.5-.32,7.26-.63,14.51-.88,21.77-.13,3.84,1.18,12.76-1.86,15.53-2,1.87-3.44,1.5-4.38.23-7.27,2.11-24,.75-27.1.75-5.47,0-35.19,3.52-35.24-2.81A2.1,2.1,0,0,1,777.3,170.7Zm4.83-2.24c8.29-1.77,23.75-.58,27-.6,6.06,0,12.12.06,18.17.31,1.89.07,6.5-.29,10.15.11,0-.33-.06-.63-.07-.89-.33-6.53,0-13.14.24-19.67s.54-13.17.79-19.75c.13-3.39-.72-10.46.2-15.33-4.4-.09-9-.62-12-.62-7,0-13.93-.08-20.9.06a203.26,203.26,0,0,0-22.61,1.23,13.57,13.57,0,0,0-1.44.29c1.14,4.76-.25,12.41-.25,16.82,0,12.35.44,24.63.72,36.92A10.05,10.05,0,0,1,782.13,168.46Z"/><path id="Fill-135" class="cls-6" d="M707.34,173.09c-4.48,2.62-2.06,13.09-.51,16.71,2.55,5.95,7.73,10.61,13.31,13.7,11.3,6.25,27.57,4.59,36.11,15.42.09.11,3,3,3.72-.75.55-3.11-5-7.85-7.1-9.41-6.07-4.43-13.86-5.85-20.88-8.06-7.49-2.36-15.72-6.71-18.86-14.43-1.11-2.74,1-17.17-5.79-13.18"/><path id="Fill-137" class="cls-6" d="M809.76,178.12c-4.1,1.13-1.39,6.78-1.39,9.61a16.79,16.79,0,0,1-3.31,10c-5.52,7.14-16.32,8.21-24.42,10.26-5.88,1.49-19.94,4.68-20.49,12.63-.62,8.88,11.8-1.93,12.85-2.37,11.61-4.26,26.62-5.08,35.58-14.45a23,23,0,0,0,6.23-14.36c.2-3,.23-12.8-5-11.36"/><path id="Fill-139" class="cls-3" d="M754.77,226.78c17.09-4.5,33,7.47,35,24.7,2.13,18.17-11.57,32.81-29.64,33.61-15.89.71-35.12-10.67-35.22-28.21C724.83,240.46,740.56,230.52,754.77,226.78ZM763,239c-2.93,1.71-3.46-2.71-5.53-3.3s-5.42,1.6-7.15,2.88c-2.93,2.16-11.07,14.75-15,7.91-12,20.68,17.88,36.15,34.85,28.32,18.63-8.59,15-40-7-40.16C764,235.93,764.86,237.94,763,239Z"/><path id="Fill-141" class="cls-3" d="M747.46,251.38c0,3.78,6,3.78,6,0s-6-3.88-6,0"/><path id="Fill-143" class="cls-3" d="M757.94,250.68c0,4.62,7.3,4.62,7.3,0s-7.3-4.76-7.3,0"/><path id="Fill-145" class="cls-3" d="M750.44,261.44c-6,3.51,11.1,10.49,11.77,3.36.29-3.08-2.68-2.25-4.67-2.47s-5.3-1.94-7.1-.89"/><path id="Fill-147" class="cls-6" d="M747.85,286.35c.26,9,.14,17.92,1.84,26.77.32,1.68.54,7.77,1.87,9,3.27,3.07,3.32-2.81,3.45-5.06.45-8.08-.4-16.4-.59-24.49,0-1.74.43-5.35-.4-7-1.3-2.68-6.3-3.47-6.17.8"/><path id="Fill-149" class="cls-6" d="M741.47,279.08c-13.09,14.68-31.1,13.6-49.26,14.89-9.59.68-19.28,2.07-27,8.27a32.8,32.8,0,0,0-8.76,10.62c-.91,1.8-5.22,12.2,1.25,9.73,2.3-.87,4.56-7.75,6-9.78a28.86,28.86,0,0,1,10.8-9.14c8.37-4,18.37-3.94,27.46-4.45,9.49-.53,19.68-1,28.41-5.16a43.16,43.16,0,0,0,11.26-7.48c1.18-1.12,3.71-3,3.9-4.72.22-1.95-1.66-5.52-4.1-2.78"/><path id="Fill-151" class="cls-3" d="M675.42,324.15c-12.29.41-24.57.91-36.84,1.69-2.52.15-10.9-.35-8.77,4.8,1.71,4.13,11.94,1.4,15.32,1.2,12.79-.76,25.64-1,38.4-2.18,2.86-.25,15.82-.15,10.47-5.23-2.54-2.42-15.07-.4-18.58-.28"/><path id="Fill-153" class="cls-3" d="M622,330.08c-3.88,5.09-2.1,17.45-1.8,23.57.28,5.93-.87,16.76,6.87,17.68-2.46-.32,1.86.15,2.56.19,1.58.08,3.15.11,4.73.13,3.63,0,7.27,0,10.9-.08,8.23-.17,16.48-.41,24.7-.86,3.46-.19,22.2,0,22.94-3.62,1-4.59-17-2-20.24-1.85-7.83.36-15.68.44-23.52.54-3.89.05-7.78.09-11.67,0-1.6,0-8,.63-8.93-.44-.83-.91-.19-9.29-.2-10.57-.06-4.18-.06-8.37.09-12.55.1-2.81,1.62-8.16.38-10.8a4.27,4.27,0,0,0-6.81-1.35"/><path id="Fill-155" class="cls-3" d="M685.29,330.32c.23,9.3.3,18.8,2.5,27.9.73,3,1.75,9.28,4.8,10.85s5.95-.71,6.16-3.87c.26-4-1.87-9.2-2.31-13.29-.51-4.76-.8-9.53-1-14.32-.13-3.6,1-9-2.47-11.31-3.08-2.09-7.8,0-7.7,4"/><path id="Fill-157" class="cls-3" d="M709.75,328c-3.82,3.81-2.11,15.87-1.63,20.76.35,3.58,4.27,21.21,10.15,12,2.59-4.07-.71-14.82-.68-19.56,0-3,1.08-6.84.56-9.74-.68-3.84-4.93-6.94-8.4-3.48"/><path id="Wireframy-Stuff-4" data-name="Wireframy-Stuff" class="cls-3" d="M799.67,359.51a3.21,3.21,0,0,1,.67,3.48c-1.32,3.05-6.15,2.39-8.78,2.61-8.77.73-17.57,1.21-26.37,1.29-8.5.08-17-.14-25.5-.06-7.08.07-14.46,1.51-21.47,1.22-2.93-.12-6.06-1.08-5.31-4.87.65-3.35,4-3.38,6.79-3.66a236,236,0,0,1,24.94-1.11c17.52.06,35,0,52.55-.13a3.82,3.82,0,0,1,2,.76c-.92-1.11-.48-2.76-.65-4.37-.46-4.33-.76-8.59-1.58-12.93-.66-3.47-1.15-9.35-4.36-11.54-3.51-2.38-11.3-1.59-15.48-1.7a291.33,291.33,0,0,0-33.8,1.53c-5.11.47-10.29.82-15.34,1.74-2.82.51-11.08,4.64-13.32,2.1-5.42-6.12,18.37-8.64,21.6-9,11.48-1.18,23-2.07,34.52-2.18,7.8-.06,21.14-.73,26.87,5.67,3.44,3.84,4.65,10.17,6,15,1,3.68,3.83,10.32,1.85,14.12-.9,1.72-2.35,3.18-4.55,2.58A4.44,4.44,0,0,1,799.67,359.51Z"/><path id="Line" class="cls-6" d="M858.37,311h0M780.67,273c-7,4.1,5.94,16.13,9.22,18,7.4,4.18,17.57,4.81,25.83,6,10.45,1.49,21.83,2,31.88,5.47a20,20,0,0,1,9.8,7.24c1.42,1.77,4.84,9.42,8,7.61,6.27-3.65-10.63-18.95-14.35-20.59-8.46-3.74-18.47-4.79-27.52-6.24-8.42-1.35-17-2.35-25.22-4.73A16.86,16.86,0,0,1,788,278.3c-1.62-2.51-3-7.8-7.28-5.27"/><path id="Wireframy-Stuff-5" data-name="Wireframy-Stuff" class="cls-3" d="M818.08,361.58c-2.08-4-3-11.68-3.23-13.2a140.47,140.47,0,0,1-.75-19.57,4.28,4.28,0,0,1,6.87-3.3c3.59-1.5,9.64-1.73,12.9-2.06,5.35-.54,10.75-.74,16.11-1.06,12.53-.75,25-2.1,37.59-2.38,3.76-.08,8.79-.41,11.79,2.36,3.42,3.15,4.1,11,5.12,15.2,1.12,4.58,2.45,9.25,2.91,13.95a26.66,26.66,0,0,1,.27,4.69,2.93,2.93,0,0,1,2.34,3.38c-.29,3.08-4.55,3.5-7,4-8.28,1.62-17.14,1.25-25.54,1.49-17.57.49-36.36,3.33-53.86,1.64C820.56,366.41,817.34,365.35,818.08,361.58Zm6.33-3.62c.69,0,1.38,0,2,0q13.26-.24,26.5-.76c9-.35,18-.73,27-.84,7.16-.08,14.54.54,21.76.26-1.55-4.06-1.32-10.45-2.15-14.66s-1.13-9.13-2.81-13c-1.89-4.41-3.53-3.39-8.45-3.06s-10.12.83-15.17,1.25c-11.11.91-22.23,1.49-33.35,2.26-5.77.4-11.29,2.05-16.93,2.7-.08,2-.37,4-.34,5.51.1,4.33.53,8.64.9,12.95C823.58,352.28,824.3,355.31,824.41,358Z"/></g></g><g id="humaaans_standing-5" data-name="humaaans/standing-5"><g id="humaaan-10"><g id="Head_Front_Short-1" data-name="Head/Front/Short-1"><g id="Head"><path class="cls-7" d="M192.21,314.87c-6.93-8.13-11.62-18.1-10.84-29.27,2.26-32.18,47-25.1,55.77-8.86s7.68,57.44-3.58,60.34c-4.5,1.16-14.06-1.67-23.8-7.54l6.11,43.24H179.78Z"/></g><path id="Hair" class="cls-8" d="M221.22,279.56c-4.89,2.74-8.38,7.87-12.58,14.6A9,9,0,0,0,199,309c-2.09,2.94-4.43,6-7.11,9.2-10-6-17.44-23.5-7.89-40.39C192.26,244,238.83,265,247.79,259.3,249.75,271.57,243.43,281.47,221.22,279.56Z"/></g><g id="Bottom_Standing_Baggy-Pants" data-name="Bottom/Standing/Baggy-Pants"><polygon id="Leg" class="cls-9" points="178.35 503.98 252.13 690.72 301.62 848.58 321.15 848.58 245.51 503.98 178.35 503.98"/><path id="Leg-2" data-name="Leg" class="cls-7" d="M163.47,504c-.79,65.65-12.25,154-14.08,158.11Q147.56,666.19,23,766.16l13.47,14.41q147-85.73,153.81-97.15C197,672,219.19,566.78,237,504Z"/><g id="Accessories_Shoe_Flat-Sneaker" data-name="Accessories/Shoe/Flat-Sneaker"><path id="shoe" class="cls-10" d="M21.16,761.15q-6.78,2.4-9.34,4.54a76,76,0,0,0-8.22,8.67l54.51,65q10.5-4.49,6.59-10.51t-6.4-10.08L46.42,777.25a1.5,1.5,0,0,0-1.86-1h0l-6.34,2c-4.39-2-7.48-4.12-9.24-6.23q-2.16-2.57-3.88-8.82h0a3,3,0,0,0-3.69-2.11Z"/></g><g id="Accessories_Shoe_Flat-Sneaker-2" data-name="Accessories/Shoe/Flat-Sneaker"><path id="shoe-2" data-name="shoe" class="cls-10" d="M293.63,841.05q-2.52,6.74-2.52,10.08A75.72,75.72,0,0,0,292.46,863h84.81q3.32-10.93-3.82-11.8t-11.83-1.57L322.2,832.05a1.5,1.5,0,0,0-2,.76l0,0L317.67,839q-6.6,3.07-10.72,3.08c-2.23,0-5.32-.91-9.25-2.71h0a3,3,0,0,0-4,1.48A1.67,1.67,0,0,0,293.63,841.05Z"/></g><polygon id="Pant" class="cls-4" points="227.95 832.44 320.88 822.35 252.01 503.98 168.77 503.98 227.95 832.44"/><path id="Pant-2" data-name="Pant" class="cls-3" d="M42.19,742.92l61,72.15q96.3-105.18,112.29-137.27T244.19,504H150.48q-7,124.69-9.4,130.5T42.19,742.92Z"/></g><g id="Body_Turtle-Neck" data-name="Body/Turtle-Neck"><path id="Skin" class="cls-7" d="M314,485.6l44.19,42.83q19.29,8.18,31.61,18.06c1.84,2.21,3.85,6.45-4.84,4.55s-17.91-3.5-19.54-.7,3.17,7.11.16,10.79q-3,3.68-20.31-23.38l-45.95-26.92ZM97.9,446.31l34.16.13Q93,572.07,90.63,578c-3.61,8.89,4,22.42,7.3,29.7C87.29,612.42,88.42,594.9,75,601.1c-12.25,5.67-21.57,15.93-35.72,7.25-1.74-1.07-3.65-5.08,1-8.22,11.47-7.82,28-21.51,30.25-26Q75.07,564.9,97.9,446.31Z"/><path id="Clothes-Back" class="cls-11" d="M202,350.56l13.49-2.3c21.25,74.63,130.44,125.5,137.14,153.4,2.46,10.24-5,15.41-1.13,18.52L334,532.94c-3-3.45-9.31,2.85-22.54-1.55S202,438.93,202,350.56Z"/><path id="Clothes-Front" class="cls-12" d="M224.69,360.42c-1.58,98.86,55.93,124.06,43.12,163.71C257.24,556.86,156,592.05,138.51,560c-7.09-13-10.31-28.69-10.67-45.77q-6.72,19.68-10.62,33.89c-4.5,16.33-21.91,18.93-21.91,25.22l-23-6.29c1.56-8.55-9.26-12.71-6.36-31.82Q85.5,406.82,170.75,349.08l.61-8.54a6,6,0,0,1,6.42-5.57h0l42.46,2.94a6,6,0,0,1,5.59,6.42h0Z"/></g></g></g></svg>