<svg id="Layer_1" data-name="Layer 1" xmlns="http://www.w3.org/2000/svg" viewBox="0 0 999.22 991.25"><defs><style>.cls-1{fill:#89c5cc;}.cls-1,.cls-12,.cls-13,.cls-14,.cls-15,.cls-16,.cls-17,.cls-18,.cls-19,.cls-2,.cls-20,.cls-21,.cls-3,.cls-4,.cls-8{fill-rule:evenodd;}.cls-2,.cls-9{fill:#dde3e9;}.cls-3{fill:#c1dee2;}.cls-4{fill:#69a1ac;}.cls-5{opacity:0.6;}.cls-13,.cls-6{fill:#f2f2f2;}.cls-21,.cls-7,.cls-8{fill:#fff;}.cls-10,.cls-12{fill:#c5cfd6;}.cls-11,.cls-14{fill:#afb9c5;}.cls-15{fill:#191847;}.cls-16{fill:#b28b67;}.cls-17{fill:#997659;}.cls-18{fill:#e4e4e4;}.cls-19{fill:#2f3676;}.cls-20{fill-opacity:0.1;}.cls-21{fill-opacity:0.2;}</style></defs><g id="Scene_Wireframe" data-name="Scene/Wireframe"><path id="Twisted-Leaf" class="cls-1" d="M983.57,208.11a10.84,10.84,0,0,0-3.46-.93,56.36,56.36,0,0,0-10.84-1,199.1,199.1,0,0,0-33.51,3c-7,1.2-15.4,5.26-22.34,3.05-12.09-3.83-24.3-3.64-35.77,1.83-10.48,5-18.44,14.52-23.09,24.8-.7,1.55-3.54,7.26-4.35,11.11-.34.79-.67,1.58-1,2.39-.84,2.28-1.6,4.6-2.31,6.93-.3,1-1.06,3.19-.16,3.61a66.89,66.89,0,0,0-3.77,8.21c-3.08,8.2-6.46,17.2-7.54,25.9a40.27,40.27,0,0,0,0,9.69c.18,1.59.1,4.8,1.18,6,2.3,2.58,3.48-1,3.22-2.74-2-13.08,1.84-25.36,6.36-37.65,2.92-7.95,7.73-15.22,13.11-21.81a54.87,54.87,0,0,1,15-13.06,233.05,233.05,0,0,1,22.84-11.32c5.08-2.31,10.17-4.55,15.4-6.54,1.16-.44,3-1.57,4.28-1.58,2.73,0,6.59,2,9.22,2.75,8.66,2.46,17.43,5.62,26.38,6.87a34,34,0,0,0,16.49-2,16.39,16.39,0,0,0,2.6-1.41,37.89,37.89,0,0,0,11-6.25,44.08,44.08,0,0,0,5.18-5.58,2.89,2.89,0,0,0,.68-1.83c.35-.19.59-.4.64-.66.39-1.86-3.17-1.9-5.45-1.79"/><path id="Fill-16" class="cls-2" d="M76.17,363.77c-2.19,1.78-4.34,3.59-6.43,5.48-1.6,1.43-4.43,3.15-5,5.33S66,379,67.51,380.33c7.86,7.24,16.72,12.13,27.62,12.94,16.78,1.26,31.39-3,46-11.46,10.22-5.92,17-14.69,18.48-26.52a128.57,128.57,0,0,1,34,20.61A89,89,0,0,1,206.66,390c2.52,3.33,5,6.7,7.22,10.21,1,1.53,2,4.23,3.61,5.11a2.86,2.86,0,0,0,4.11-2.71c-.08-1.76-2-3.81-2.87-5.25-1.48-2.39-3-4.77-4.56-7.1-2.56-3.77-5.21-7.49-8.09-11-6.48-7.92-14.73-14.47-23.27-20.05-16.4-10.72-34.4-17.47-54.35-18-12.27-.35-22.59,3.84-33.08,10.1-6.54,3.9-13.28,7.73-19.21,12.53"/><path id="Leaf" class="cls-3" d="M235.32,312c-12.78-13.17-25.61-26.17-39.9-37.76-8.42-6.84-17.29-13.05-26-19.53,1,.88,2,1.79,2.95,2.71-2.71-1.84-6.26-2.88-9.14-4.59-3.21-1.9-6.27-4.07-9.28-6.26-5.87-4.28-11.65-8.64-17.69-12.69-6.72-4.52-13.69-8.69-20.52-13-5.81-3.69-11.68-7.72-17.89-10.74-3.38-1.64-6.77-3.59-10.17-5.31-1.14-.57-12.67-7.85-12.64-7.88.63-.48,6.44,2.25,7.34,2.62,2.62,1.07,5.13,2.35,7.65,3.63A33.72,33.72,0,0,1,87,194.5c-.18-.93-1.66-7.71-.9-8.28.38-.29,4.06,11.85,4.25,13a21.37,21.37,0,0,0,.44,3.21c.5,1.45.47,1,1.58,1.82,2,1.5,4.7,2.44,6.89,3.69,1.18.66,4.84,3.27,7,4,6.66,3.24,13.41,8.22,19.74,12.35a46.51,46.51,0,0,1-3.85-9.81c-.22-.81-2.58-8.09-2-8.53s5.16,10.64,5.42,11.7c.5,1.95.6,4.13,1.22,6,.68,2.09,2.81,2.83,4.73,4,7,4.48,13.86,9.24,20.56,14.22,7.3-13-1.12-28.68-8.22-39.59-5.12-7.86-12-14.59-19.29-20.48-9.71-7.85-20.82-14.12-31.91-19.85a125.22,125.22,0,0,0-41.43-12.74,134.35,134.35,0,0,0-23-.66,38.58,38.58,0,0,0-10.94,1.88,35.57,35.57,0,0,0-4.71,2c-1.16.59-4,1.21-4.63,2.09C2.42,161.8-.39,168.92,0,177.89c.41,8.49,3.09,17,6.73,24.56A75.35,75.35,0,0,0,22.85,225a170.8,170.8,0,0,0,16.8,13.38c20.54,15,46.59,28,73.2,24.65a70.85,70.85,0,0,0,24.47-8.19,60.88,60.88,0,0,0,5.3-3.08c1.15-.77,4.22-4.23,5.37-4.35,1.58-.17,5,3,6.48,4q16.93,11.18,33,23.47c11.45,8.7,22.34,18,32.9,27.71,4.5,4.13,9,8.28,13.33,12.55,1,1,3.5,4.66,5.34,4.82a1.65,1.65,0,0,0,1.78-2c-.29-1.88-4.23-4.68-5.54-6"/><path id="Fill-10" class="cls-4" d="M970.15,260.86c-4.95-1.08-10.42-1-15.47-.91a96.05,96.05,0,0,0-70.91,33.64c-14.72,17.42-18.77,39.09-21.67,61-.29,2.17-.42,4.33-.58,6.51,0,.47-.09.88-.14,1.28-1.15,1-1.75,2.21-1.07,3.52a145.56,145.56,0,0,0-6.48,17c-5.38,17.16-10.86,34.65-7.48,52.69a253,253,0,0,1,4.42-29.85c.12-.56.24-1.12.37-1.67,0-.06,0-.12,0-.18a65.15,65.15,0,0,1,2.72-8.75.36.36,0,0,1,0-.09c.14-.37.3-.75.45-1.12.32-.78.65-1.55,1-2.32.12-.26.23-.52.34-.79,1.61-4,2.3-8.42,3.74-12.51.35-.93.71-1.86,1.09-2.78,0-.06.05-.11.07-.17,1-2.48,2.15-4.93,3.35-7.36.65-.49,1-1.7,1.56-2.8a17.57,17.57,0,0,0,1.29-2.5l2.12-4.09-.06,0c.71-1.3,1.42-2.61,2.13-3.9.15-.29.31-.57.47-.86.25-.45.5-.91.76-1.36,2.37-4.24,4.88-8.4,7.49-12.5.93-1.47,3.16-3.57,3.58-5.21a1.13,1.13,0,0,0,0-.18,93.25,93.25,0,0,1,20-21.1c-1,1-3,4.49-3.49,5.18-1.62,2.1-3.38,4.05-5.16,6a128.91,128.91,0,0,0-9,11.08,207.59,207.59,0,0,0-13.48,22.12l-.12.13c-2.06,2.54-3.36,6.39-4.84,9.29,5.87-2.72,12.37-4.49,18.4-6.91a150.21,150.21,0,0,0,17.51-8.24,194.69,194.69,0,0,0,22.38-14.26c8.13-5,15-12,21-19.26,7.13-8.62,13.66-17.31,17.71-27.77A84.08,84.08,0,0,0,968.7,275c0-.24.09-.49.15-.76a51.24,51.24,0,0,0,2.5-5.75c1.13-3.1,3.8-6.52-1.2-7.61"/><path id="Leave-the-Leaf_" data-name="Leave-the-Leaf!" class="cls-1" d="M131,297.26a20.14,20.14,0,0,0-5.34-4.28c-.51-.27-4.37-2.1-4.62-1.7-.58.93,9.5,5.44,10,6M149.23,286c0,.07,1.32,2.34,1.69,3,.77,1.48,1.49,3,2.16,4.51a27.64,27.64,0,0,0-3.85-7.55M55.81,304.49c-1.29.41-2.84-1.22-1.17-1.62,1.35-.33,1.28-.4,1.89-1.49.49-.88.8-2,1.23-2.89a33.91,33.91,0,0,1,3.23-5.6,44.64,44.64,0,0,1,9.81-9.74c6.52-4.78,13.83-9.14,21.59-11.33a85.94,85.94,0,0,1,38.72-1.28c7.66,1.49,14.65,4.09,19.73,10.25a25.51,25.51,0,0,1,5.4,10.66c.23,1,.19,2.19.47,3.21.44,1.56.25,1.15,2.07,1.45,2,.33,4,.67,6,1a146.19,146.19,0,0,1,15.55,3.32,42.17,42.17,0,0,1,4.91,1.76c1.21.52,6,2.14,6.61,3.71,1,2.62-2.29,1.43-3.3.86s-1.8-1-2.73-1.39a44.84,44.84,0,0,0-7.24-2.58c-2.68-.71-5.42-1.25-8.14-1.79-2.55-.5-5.1-.95-7.66-1.39l-4.26-.71c-.48-.08-1.34-.5-1.28.13a69.47,69.47,0,0,0-9.26-.65c-3.73-.19-7.47-.35-11.21-.24-2.69.09-5.39.27-8.08.63a41.06,41.06,0,0,0-4.65.91c-.84.22-4.18.67-4.64,1.41.2-.32,3.88,0,4.35,0,1.87-.07,3.73-.25,5.59-.46a86.29,86.29,0,0,1,10.4-.56c0,.61-2.38,1.7-3,2.1a33,33,0,0,0-3.7,3,36.29,36.29,0,0,0-5.91,6.54c.42-.67,2.47-1.54,3.2-2.05a38.92,38.92,0,0,0,3.4-2.62c1-.86,1.93-1.78,2.85-2.73s2.16-2.92,3.37-3.56c.07,0,.6.38.89.24s.68-.85.76-.88c1.12-.44,3.25.1,4.43.16,3.06.14,6.12.32,9.17.49,1,0,1.76-.16,2.11.54s-.31,2.7-.51,3.51a18.65,18.65,0,0,1-4.11,8.06,33.36,33.36,0,0,1-14,9.24c-20.59,7.47-42.5,10.46-63.09,2.69-8.52-3.22-21.36-9-19.82-20.28"/><g id="Background-Shape-2" class="cls-5"><path id="Background-Shape" class="cls-2" d="M998.8,656.5C1012.81,751.35,673,813.21,380.55,770S-46.08,558.27,93.48,468.43,984.79,561.66,998.8,656.5Z"/></g><g id="Mobile3"><rect id="Container" class="cls-6" x="181.19" y="34.63" width="230.86" height="438.49" rx="11.62"/><circle id="Touch" class="cls-7" cx="296.47" cy="423.97" r="21.78"/><g id="Camera"><circle id="Lens" class="cls-7" cx="277.6" cy="60.98" r="2.9"/><path id="Sensor" class="cls-8" d="M290.67,57.86h24.68a2.9,2.9,0,0,1,2.9,2.9h0a2.9,2.9,0,0,1-2.9,2.91H290.67a2.91,2.91,0,0,1-2.91-2.91h0A2.9,2.9,0,0,1,290.67,57.86Z"/></g><g id="Rows"><g id="Row"><rect id="Background" class="cls-7" x="201.52" y="75.28" width="190.21" height="78.41" rx="5.81"/><g id="Text"><rect id="Name" class="cls-9" x="258.15" y="98.52" width="105.99" height="11.62" rx="4.36"/><rect id="Name-2" data-name="Name" class="cls-9" x="258.15" y="118.84" width="71.15" height="11.62" rx="4.36"/></g><circle id="Avatar" class="cls-10" cx="232.59" cy="114.7" r="17.42"/></g><g id="Row-2" data-name="Row"><rect id="Background-2" data-name="Background" class="cls-7" x="201.52" y="165.31" width="190.21" height="60.98" rx="5.81"/><g id="Text-2" data-name="Text"><rect id="Name-3" data-name="Name" class="cls-9" x="258.15" y="184.18" width="105.99" height="8.71" rx="4.36"/><rect id="Name-4" data-name="Name" class="cls-9" x="258.15" y="198.7" width="71.15" height="8.71" rx="4.36"/></g><circle id="Avatar-2" data-name="Avatar" class="cls-10" cx="232.59" cy="196.01" r="17.42"/></g><g id="Row-3" data-name="Row"><rect id="Background-3" data-name="Background" class="cls-7" x="201.52" y="237.9" width="190.21" height="60.98" rx="5.81"/><g id="Text-3" data-name="Text"><rect id="Name-5" data-name="Name" class="cls-9" x="258.15" y="256.78" width="105.99" height="8.71" rx="4.36"/><rect id="Name-6" data-name="Name" class="cls-9" x="258.15" y="271.3" width="71.15" height="8.71" rx="4.36"/></g><circle id="Avatar-3" data-name="Avatar" class="cls-11" cx="232.59" cy="268.61" r="17.42"/></g><g id="Row-4" data-name="Row"><rect id="Background-4" data-name="Background" class="cls-7" x="201.52" y="310.5" width="190.21" height="60.98" rx="5.81"/><g id="Text-4" data-name="Text"><rect id="Name-7" data-name="Name" class="cls-9" x="258.15" y="329.38" width="105.99" height="8.71" rx="4.36"/><rect id="Name-8" data-name="Name" class="cls-9" x="258.15" y="343.89" width="71.15" height="8.71" rx="4.36"/></g><circle id="Avatar-4" data-name="Avatar" class="cls-10" cx="232.59" cy="341.21" r="17.42"/></g></g></g><g id="Mobile3-2" data-name="Mobile3"><g id="Group"><path id="Fill-16-2" data-name="Fill-16" class="cls-1" d="M225.53,389.12c-1.92,0-3.84,0-5.76.14-1.47.08-3.7-.23-4.94.69s-1.2,2.89-1,4.26c1.06,7.24,3.66,13.67,9.09,18.81,8.35,7.9,17.94,11.92,29.27,13.71,8,1.25,15.32-.49,21.19-6.15a88.45,88.45,0,0,1,9.16,25.63,61.76,61.76,0,0,1,.91,13.17c-.09,2.86-.25,5.71-.56,8.55-.13,1.24-.76,3.11-.28,4.28a2,2,0,0,0,3.35.33c.71-1,.58-2.88.73-4,.24-1.91.47-3.82.63-5.75.26-3.11.45-6.23.44-9.35A69.49,69.49,0,0,0,284,432.67c-4.09-12.78-10.73-24.14-21.07-33.05-6.35-5.48-13.62-7.7-21.87-8.89a110,110,0,0,0-15.56-1.61"/><path id="Fill-18" class="cls-1" d="M255.2,439.94c-20.77,0-34.75,16.73-41.36,34.12-2.49,6.56-3.08,13.76-4,20.64-.3,2.21-.19,5.57-1.09,7.54-.32.72-1.07,1-.71,1.95a1.58,1.58,0,0,0,1.27,1.06c1.31.24,3.16-1.18,4.28-1.74,9.28-4.66,15.38-11.86,20.36-20.67,3.09-5.46,6.22-11.13,8.05-17.13a59.7,59.7,0,0,0,2.16-11.32,42.7,42.7,0,0,0,.28-4.53c0-1.49-.7-2.28-1.2-3.58,6.93-2.63,14.75-3.34,21.76-.62a27.85,27.85,0,0,1,14.9,13.47,25.49,25.49,0,0,1,1.83,5,17.46,17.46,0,0,0,.84,3.58c1.3,2.45,4,.82,3.76-1.47-.73-6.36-4.37-12.74-9-17.17a32.49,32.49,0,0,0-22.07-9.09"/></g><rect id="Container-2" data-name="Container" class="cls-9" x="277.02" y="72.38" width="230.86" height="438.49" rx="11.62"/><circle id="Touch-2" data-name="Touch" class="cls-7" cx="392.3" cy="461.72" r="21.78"/><g id="Camera-2" data-name="Camera"><circle id="Lens-2" data-name="Lens" class="cls-7" cx="373.43" cy="98.73" r="2.9"/><path id="Sensor-2" data-name="Sensor" class="cls-8" d="M386.49,95.61h24.69a2.9,2.9,0,0,1,2.9,2.91h0a2.9,2.9,0,0,1-2.9,2.9H386.49a2.9,2.9,0,0,1-2.9-2.9h0A2.9,2.9,0,0,1,386.49,95.61Z"/></g><g id="Rows-2" data-name="Rows"><g id="Row-5" data-name="Row"><rect id="Container-3" data-name="Container" class="cls-7" x="297.35" y="113.04" width="190.21" height="78.41" rx="5.81"/><g id="Text-Stuff"><rect id="Label" class="cls-9" x="310.42" y="136.27" width="105.99" height="11.62" rx="4.36"/><rect id="Label-2" data-name="Label" class="cls-9" x="310.42" y="156.59" width="71.15" height="11.62" rx="4.36"/></g><g id="Check"><circle id="Background-5" data-name="Background" class="cls-9" cx="467.8" cy="152.45" r="10.16"/><circle id="Indicator" class="cls-6" cx="467.8" cy="152.45" r="4.36"/></g></g><g id="Row-6" data-name="Row"><rect id="Background-6" data-name="Background" class="cls-7" x="297.35" y="203.06" width="190.21" height="60.98" rx="5.81"/><g id="Text-5" data-name="Text"><rect id="Name-9" data-name="Name" class="cls-9" x="353.97" y="221.93" width="105.99" height="8.71" rx="4.36"/><rect id="Name-10" data-name="Name" class="cls-9" x="353.97" y="236.45" width="71.15" height="8.71" rx="4.36"/></g><circle id="Avatar-5" data-name="Avatar" class="cls-10" cx="328.42" cy="233.76" r="17.42"/></g><g id="Row-7" data-name="Row"><rect id="Container-4" data-name="Container" class="cls-7" x="297.35" y="275.65" width="190.21" height="60.98" rx="5.81"/><g id="Text-Stuff-2" data-name="Text-Stuff"><rect id="Label-3" data-name="Label" class="cls-9" x="310.42" y="294.53" width="105.99" height="8.71" rx="4.36"/><rect id="Label-4" data-name="Label" class="cls-11" x="310.42" y="309.05" width="71.15" height="8.71" rx="4.36"/></g><g id="Check-2" data-name="Check"><circle id="Background-7" data-name="Background" class="cls-9" cx="467.8" cy="306.36" r="10.16"/><circle id="Indicator-2" data-name="Indicator" class="cls-6" cx="467.8" cy="306.36" r="4.36"/></g></g><g id="Row-8" data-name="Row"><rect id="Background-8" data-name="Background" class="cls-7" x="297.35" y="348.25" width="190.21" height="60.98" rx="5.81"/><g id="Text-6" data-name="Text"><rect id="Name-11" data-name="Name" class="cls-9" x="353.97" y="367.13" width="105.99" height="8.71" rx="4.36"/><rect id="Name-12" data-name="Name" class="cls-9" x="353.97" y="381.65" width="71.15" height="8.71" rx="4.36"/></g><circle id="Avatar-6" data-name="Avatar" class="cls-10" cx="328.42" cy="378.96" r="17.42"/></g></g></g><g id="Web"><rect id="Container-5" data-name="Container" class="cls-6" x="372.85" y="108.68" width="486.4" height="502.37" rx="11.62"/><rect id="Background-9" data-name="Background" class="cls-7" x="734.39" y="171.11" width="101.64" height="117.61" rx="11.62"/><g id="Profile-Info"><circle id="Avatar-7" data-name="Avatar" class="cls-9" cx="785.78" cy="216.34" r="23.23"/><path id="Name-13" data-name="Name" class="cls-2" d="M753.84,245.16h63.88a4.36,4.36,0,0,1,4.36,4.36h0a4.36,4.36,0,0,1-4.36,4.35H753.84a4.36,4.36,0,0,1-4.36-4.35h0A4.36,4.36,0,0,1,753.84,245.16Z"/><path id="Name-14" data-name="Name" class="cls-2" d="M765.45,259.68h40.66a4.36,4.36,0,0,1,4.35,4.36h0a4.35,4.35,0,0,1-4.35,4.35H765.45A4.35,4.35,0,0,1,761.1,264h0A4.36,4.36,0,0,1,765.45,259.68Z"/></g><path id="Header" class="cls-12" d="M384.47,108.68H847.64a11.61,11.61,0,0,1,11.61,11.61v27.59H372.85V120.29A11.61,11.61,0,0,1,384.47,108.68Z"/><g id="Buttons"><circle id="buttons-2" data-name="buttons" class="cls-6" cx="392.3" cy="129.22" r="5.81"/><circle id="buttons-3" data-name="buttons" class="cls-6" cx="409.73" cy="129.22" r="5.81"/><circle id="buttons-4" data-name="buttons" class="cls-6" cx="427.15" cy="129.22" r="5.81"/></g><g id="Components"><rect id="Background-10" data-name="Background" class="cls-7" x="734.39" y="300.34" width="101.64" height="281.68" rx="11.62"/><g id="Rows-3" data-name="Rows"><rect id="Data" class="cls-9" x="760.52" y="326.47" width="49.37" height="37.75" rx="5.81"/><rect id="Data-2" data-name="Data" class="cls-11" x="760.52" y="375.84" width="49.37" height="36.3" rx="5.81"/><rect id="Data-3" data-name="Data" class="cls-9" x="760.52" y="423.75" width="49.37" height="36.3" rx="5.81"/><rect id="Data-4" data-name="Data" class="cls-9" x="760.52" y="519.58" width="49.37" height="36.3" rx="5.81"/><rect id="Data-5" data-name="Data" class="cls-10" x="760.52" y="471.67" width="49.37" height="36.3" rx="5.81"/></g></g><g id="Rows-4" data-name="Rows"><g id="Row-9" data-name="Row"><rect id="Container-6" data-name="Container" class="cls-7" x="396.08" y="172.56" width="326.69" height="68.24" rx="5.81"/><g id="Text-Stuff-3" data-name="Text-Stuff"><rect id="Label-5" data-name="Label" class="cls-9" x="409.15" y="192.89" width="242.48" height="10.16" rx="4.36"/><rect id="Label-6" data-name="Label" class="cls-9" x="409.15" y="210.31" width="162.62" height="10.16" rx="4.36"/></g><g id="Check-3" data-name="Check"><circle id="Background-11" data-name="Background" class="cls-9" cx="688.43" cy="206.9" r="10.16"/><circle id="Indicator-3" data-name="Indicator" class="cls-6" cx="688.43" cy="206.9" r="4.36"/></g></g><g id="Row-10" data-name="Row"><rect id="Container-7" data-name="Container" class="cls-7" x="396.08" y="252.42" width="326.69" height="56.63" rx="5.81"/><g id="Text-Stuff-4" data-name="Text-Stuff"><path id="Label-7" data-name="Label" class="cls-2" d="M414,269.85H648a4.3,4.3,0,0,1,4.25,4.35h0a4.3,4.3,0,0,1-4.25,4.36H414a4.3,4.3,0,0,1-4.24-4.36h0A4.3,4.3,0,0,1,414,269.85Z"/><path id="Label-8" data-name="Label" class="cls-2" d="M412,284.37H570.21a4.36,4.36,0,0,1,4.36,4.35h0a4.36,4.36,0,0,1-4.36,4.36H412a4.36,4.36,0,0,1-4.35-4.36h0A4.35,4.35,0,0,1,412,284.37Z"/></g><g id="Check-4" data-name="Check"><circle id="Background-12" data-name="Background" class="cls-9" cx="688.43" cy="280.95" r="10.16"/><circle id="Indicator-4" data-name="Indicator" class="cls-6" cx="688.43" cy="280.95" r="4.36"/></g></g><g id="Row-11" data-name="Row"><rect id="Container-8" data-name="Container" class="cls-7" x="396.08" y="320.66" width="326.69" height="56.63" rx="5.81"/><g id="Text-Stuff-5" data-name="Text-Stuff"><path id="Label-9" data-name="Label" class="cls-2" d="M414,338.09H648a4.3,4.3,0,0,1,4.25,4.35h0A4.3,4.3,0,0,1,648,346.8H414a4.3,4.3,0,0,1-4.24-4.36h0A4.3,4.3,0,0,1,414,338.09Z"/><path id="Label-10" data-name="Label" class="cls-2" d="M412,352.61H570.21a4.36,4.36,0,0,1,4.36,4.35h0a4.36,4.36,0,0,1-4.36,4.36H412a4.36,4.36,0,0,1-4.35-4.36h0A4.35,4.35,0,0,1,412,352.61Z"/></g><g id="Check-5" data-name="Check"><circle id="Background-13" data-name="Background" class="cls-9" cx="688.43" cy="349.19" r="10.16"/><circle id="Indicator-5" data-name="Indicator" class="cls-11" cx="688.43" cy="349.19" r="4.36"/></g></g><g id="Row-12" data-name="Row"><rect id="Container-9" data-name="Container" class="cls-7" x="396.08" y="525.39" width="326.69" height="56.63" rx="5.81"/><g id="Text-Stuff-6" data-name="Text-Stuff"><path id="Label-11" data-name="Label" class="cls-2" d="M414,542.81H648a4.3,4.3,0,0,1,4.25,4.36h0a4.3,4.3,0,0,1-4.25,4.35H414a4.3,4.3,0,0,1-4.24-4.35h0A4.3,4.3,0,0,1,414,542.81Z"/><path id="Label-12" data-name="Label" class="cls-2" d="M412,557.33H570.21a4.36,4.36,0,0,1,4.36,4.36h0a4.36,4.36,0,0,1-4.36,4.35H412a4.35,4.35,0,0,1-4.35-4.35h0A4.36,4.36,0,0,1,412,557.33Z"/></g><g id="Check-6" data-name="Check"><circle id="Background-14" data-name="Background" class="cls-9" cx="688.43" cy="553.92" r="10.16"/><circle id="Indicator-6" data-name="Indicator" class="cls-6" cx="688.43" cy="553.92" r="4.36"/></g></g><g id="Row-13" data-name="Row"><rect id="Container-10" data-name="Container" class="cls-7" x="396.08" y="457.15" width="326.69" height="56.63" rx="5.81"/><g id="Text-Stuff-7" data-name="Text-Stuff"><path id="Label-13" data-name="Label" class="cls-2" d="M414,474.57H648a4.3,4.3,0,0,1,4.25,4.36h0a4.3,4.3,0,0,1-4.25,4.35H414a4.3,4.3,0,0,1-4.24-4.35h0A4.3,4.3,0,0,1,414,474.57Z"/><path id="Label-14" data-name="Label" class="cls-2" d="M412,489.09H570.21a4.36,4.36,0,0,1,4.36,4.36h0a4.36,4.36,0,0,1-4.36,4.35H412a4.35,4.35,0,0,1-4.35-4.35h0A4.36,4.36,0,0,1,412,489.09Z"/></g><g id="Check-7" data-name="Check"><circle id="Background-15" data-name="Background" class="cls-9" cx="688.43" cy="485.68" r="10.16"/><circle id="Indicator-7" data-name="Indicator" class="cls-6" cx="688.43" cy="485.68" r="4.36"/></g></g><g id="Row-14" data-name="Row"><rect id="Container-11" data-name="Container" class="cls-7" x="396.08" y="388.91" width="326.69" height="56.63" rx="5.81"/><g id="Text-Stuff-8" data-name="Text-Stuff"><path id="Label-15" data-name="Label" class="cls-2" d="M414,406.33H648a4.3,4.3,0,0,1,4.25,4.35h0A4.3,4.3,0,0,1,648,415H414a4.3,4.3,0,0,1-4.24-4.36h0A4.3,4.3,0,0,1,414,406.33Z"/><path id="Label-16" data-name="Label" class="cls-2" d="M412,420.85H570.21a4.36,4.36,0,0,1,4.36,4.35h0a4.36,4.36,0,0,1-4.36,4.36H412a4.36,4.36,0,0,1-4.35-4.36h0A4.35,4.35,0,0,1,412,420.85Z"/></g><g id="Check-8" data-name="Check"><circle id="Background-16" data-name="Background" class="cls-9" cx="688.43" cy="417.44" r="10.16"/><circle id="Indicator-8" data-name="Indicator" class="cls-6" cx="688.43" cy="417.44" r="4.36"/></g></g></g></g><path id="Fill-1" class="cls-3" d="M980.32,356.27c-5.73-3.88-13.34-4.9-20.2-4.9-26.76,0-51.92,9.93-73.66,24.73-11.91,8.11-22.56,18.44-32,29.19a85.52,85.52,0,0,0-13.7,20.38,70.57,70.57,0,0,0-5,15.71A161.2,161.2,0,0,0,833,461.43c-.19,2.64-1.72,16.66,2.67,16.9a6.28,6.28,0,0,0,0,1c-9.54,14.91-15.44,32.4-20.9,49A334.23,334.23,0,0,0,803,572.16a478.14,478.14,0,0,0-7.13,59.51c-.24,4.28-.41,8.57-.55,12.86-.12,3.65-.25,7.31-.37,11-.13,4.1-.85,8.82-.2,12.89.57,3.55,3.64,3,3.77-.52.17-4.26.14-8.54.33-12.8.25-5.67.5-11.33.78-17a397.29,397.29,0,0,1,22.53-115.25,268.61,268.61,0,0,1,19.56-43.18,300,300,0,0,1,24-35.09c8.36-10.72,17.06-21.19,27.31-30.27A210.39,210.39,0,0,1,920,394.53c11.94-7.59,23.86-15,36.8-20.81,6.73-3,13.58-5.74,20.36-8.64,1.22-.52,2.53-1,3.7-1.64,3.92-2,2.63-5.05-.49-7.17"/><path id="Fill-20" class="cls-1" d="M872.63,493.66c10.86,0,20.52,1.41,30.52,5.73a135.11,135.11,0,0,1,24.15,14c10.74,7.55,19.21,16.33,25.13,28,3.54,7,6.14,16.79,3.76,24.38-2.8,8.93-10.49,16.38-20.61,14.81-6.27-1-12-5.12-16.77-9a63.46,63.46,0,0,1-14-16.51c-6.14-10.17-9.75-21.66-15-32.29-2.48-5-4.87-10.12-7.83-14.91a23.9,23.9,0,0,0-5.26-6.49c-1.19-.94-6.21-2.58-4.29-4.69-28.15.36-53.09,22-58.5,48.75-.5,2.5-.9,5-1.31,7.52-.26,1.59-.16,7.43-1.57,8.44-3.13,2.24-1.82-4.55-1.68-5.53.35-2.52.71-5,1.1-7.56a63,63,0,0,1,18.38-36.2c11.63-11.17,27.32-18.42,43.75-18.42"/><g id="Plant"><path id="Fill-19" class="cls-2" d="M90.21,459.89c27.1,45.46,58.66,89.49,77.62,139.2-.76-5.86-1.57-11.71-2.48-17.56-4.81-31-10.79-61.74-17.07-92.46q-4.8-23.46-10.05-46.81c-1.87-8.37-3.71-16.75-5.62-25.11-.46-2-.85-5.57-1.43-9.15,18.42,60.45,36.19,121,49.18,182.86q2.56,12.18,4.35,24.33c.4-1.85.8-3.69,1.24-5.54A358.14,358.14,0,0,1,208.49,545a195.8,195.8,0,0,1,15.72-28.52c3.78-5.61,12.71-12.28,16.17-18-18.89,34.64-25.71,78-36.62,115.66-2.66,9.19-5.34,18.36-8,27.56,16.45-33,42-60.09,77.45-71.84-43,28.38-68.71,78.08-86.07,128.9,0,.61-.12,1.21-.18,1.81,5.11-9.69,11.54-18.46,20.26-24.6,18.67-13.15,39.37-9.32,57.48,2-14.21-9-39.89-.81-51.85,8.37-8.56,6.57-15.87,15.39-22.23,24-1.52,2.07-3.59,4.47-5.79,7a317.17,317.17,0,0,1-15.18,59.46c1.17-5.64.32-14.67.65-18.88,0-.46.06-.91.1-1.37q-1.62,6.47-3.13,12.76a174.48,174.48,0,0,0,3.93-24.77c.21-3.63.43-7.25.65-10.88-.07-6.87-.35-13.78-.83-20.69-1.7-6.72-3.6-13.06-5.17-18.33a237.11,237.11,0,0,0-24.17-54.25,214.52,214.52,0,0,0-33.34-42.27c-7-6.85-14.21-13.37-21.37-20-2.59-2.39-7.22-8.27-11.22-11.33,29.15,16.07,59.16,33.46,80.43,59.36q-3.74-14.37-8.07-28.27C133.61,551,115.26,502.31,90.21,459.89Z"/><path id="Base" class="cls-12" d="M119.34,717.26c0,52.13,4.12,94.38,59.53,94.38s59.52-42.25,59.52-94.38"/></g><g id="Graph"><path id="Value" class="cls-2" d="M740.19,46.46h0a4.36,4.36,0,0,1,4.36,4.36V78.41a4.36,4.36,0,0,1-4.36,4.35h0a4.35,4.35,0,0,1-4.35-4.35V50.82A4.36,4.36,0,0,1,740.19,46.46Z"/><path id="Value-2" data-name="Value" class="cls-2" d="M760.52,23.23h0a4.36,4.36,0,0,1,4.36,4.36V78.41a4.36,4.36,0,0,1-4.36,4.35h0a4.36,4.36,0,0,1-4.36-4.35V27.59A4.36,4.36,0,0,1,760.52,23.23Z"/><path id="Value-3" data-name="Value" class="cls-2" d="M780.85,11.62h0A4.35,4.35,0,0,1,785.2,16V78.41a4.35,4.35,0,0,1-4.35,4.35h0a4.36,4.36,0,0,1-4.36-4.35V16A4.36,4.36,0,0,1,780.85,11.62Z"/><path id="Value-4" data-name="Value" class="cls-2" d="M801.17,23.23h0a4.36,4.36,0,0,1,4.36,4.36V78.41a4.36,4.36,0,0,1-4.36,4.35h0a4.35,4.35,0,0,1-4.35-4.35V27.59A4.36,4.36,0,0,1,801.17,23.23Z"/><path id="Value-5" data-name="Value" class="cls-12" d="M821.5,0h0a4.36,4.36,0,0,1,4.36,4.36V78.41a4.36,4.36,0,0,1-4.36,4.35h0a4.35,4.35,0,0,1-4.35-4.35v-74A4.36,4.36,0,0,1,821.5,0Z"/></g><g id="Pie-Chart"><path id="Value-6" data-name="Value" class="cls-13" d="M21.48,444.67a29.32,29.32,0,0,1,29-29.41v29.41L30.67,466.08A29.19,29.19,0,0,1,21.48,444.67Z"/><path id="Value-7" data-name="Value" class="cls-14" d="M50.33,444.08H79.65a29,29,0,0,1-8,19.84,29.54,29.54,0,0,1-21.34,9.2,30,30,0,0,1-20-7.9Z"/><path id="Value-8" data-name="Value" class="cls-12" d="M79.56,444.08a29.13,29.13,0,0,0-29-29v29Zm-43-28.82,11.62,26.13L22.05,429.78A26.7,26.7,0,0,1,36.57,415.26Z"/></g><g id="Chart"><path id="Value-9" data-name="Value" class="cls-13" d="M966.22,457.62A15.26,15.26,0,1,1,955.08,432V403.64a43.56,43.56,0,1,0,0,87.12A43.12,43.12,0,0,0,986.89,477Z"/><path id="Value-10" data-name="Value" class="cls-14" d="M955.08,403.42v28.32A15.24,15.24,0,0,1,970.33,447h28.31A43.7,43.7,0,0,0,955.08,403.42Z"/><path id="Value-11" data-name="Value" class="cls-12" d="M970.32,447a15.46,15.46,0,0,1-6,12.19l17.8,22.66A44.14,44.14,0,0,0,999.22,447Z"/></g><g id="Chart-2" data-name="Chart"><path id="Value-12" data-name="Value" class="cls-13" d="M690.68,57.36a11.72,11.72,0,1,1-8.57-19.68V16a33.4,33.4,0,1,0,0,66.79,33.22,33.22,0,0,0,24.47-10.57Z"/><path id="Value-13" data-name="Value" class="cls-14" d="M680.66,15.75V37.46a11.69,11.69,0,0,1,11.69,11.69h21.71A33.5,33.5,0,0,0,680.66,15.75Z"/><path id="Value-14" data-name="Value" class="cls-12" d="M693,49.15a11.6,11.6,0,0,1-4.46,9.14l13.35,17a33.1,33.1,0,0,0,12.78-26.13Z"/></g><g id="Image"><path id="Fill-35" class="cls-12" d="M161.45,82.74s0,0,0,.05,0-.07,0-.05"/><path id="Fill-37" class="cls-12" d="M161.44,82.76v0s0-.06,0,0"/><path id="Fill-39" class="cls-12" d="M161.54,82.52c0,.06,0,.11-.07.17l0-.08c-.3.75-.11.26,0-.09"/><path id="Fill-41" class="cls-12" d="M161.47,82.69l0,.08c-.08.17,0-.08,0-.08"/><path id="Fill-45" class="cls-12" d="M161.44,82.76h0"/><path id="Fill-47" class="cls-12" d="M161.43,82.78h0"/><path id="Fill-49" class="cls-12" d="M161.44,82.76h0"/><rect id="Photo-Background" class="cls-9" x="91.17" y="7.04" width="137.94" height="91.47" rx="5.81"/><g id="icons8-night_landscape" data-name="icons8-night landscape"><polygon id="Mountains" class="cls-14" points="144.02 33.18 103.36 98.52 184.67 98.52 144.02 33.18"/><polygon id="Mountains-2" data-name="Mountains" class="cls-12" points="183.95 50.6 148.37 98.52 219.52 98.52 183.95 50.6"/></g><circle id="Sun" class="cls-7" cx="199.19" cy="37.75" r="13.07"/></g><g id="Image-2" data-name="Image"><path id="Fill-35-2" data-name="Fill-35" class="cls-12" d="M854,702.72l0,0s0-.07,0,0"/><path id="Fill-37-2" data-name="Fill-37" class="cls-12" d="M854,702.75h0s0-.06,0,0"/><path id="Fill-39-2" data-name="Fill-39" class="cls-12" d="M853.92,702.5c0,.06.05.11.07.17l0-.08c.3.76.11.26,0-.09"/><path id="Fill-41-2" data-name="Fill-41" class="cls-12" d="M854,702.67l0,.09c.09.16,0-.09,0-.09"/><path id="Fill-45-2" data-name="Fill-45" class="cls-12" d="M854,702.75h0"/><path id="Fill-47-2" data-name="Fill-47" class="cls-12" d="M854,702.77s-.08-.14,0,0"/><path id="Fill-49-2" data-name="Fill-49" class="cls-12" d="M854,702.75h0"/><rect id="Photo-Background-2" data-name="Photo-Background" class="cls-9" x="750.36" y="590.73" width="206.18" height="136.48" rx="5.81"/><g id="icons8-night_landscape-2" data-name="icons8-night landscape"><polygon id="Mountains-3" data-name="Mountains" class="cls-14" points="880.55 629.93 940.16 727.21 820.95 727.21 880.55 629.93"/><polygon id="Mountains-4" data-name="Mountains" class="cls-12" points="819.09 655.99 871.79 727.21 766.39 727.21 819.09 655.99"/></g><circle id="Sun-2" data-name="Sun" class="cls-7" cx="796.67" cy="636.68" r="19.6"/></g></g><g id="humaaans_standing-12" data-name="humaaans/standing-12"><g id="A-Human_Standing" data-name="A-Human/Standing"><g id="Head_Front_Afro" data-name="Head/Front/Afro"><path id="Hair-Back" class="cls-15" d="M410.05,312.33c22.28,0,30.39-26.68,43.05-41.32,9.06-10.47,24.51-7.35,29.09-22,11.51-36.88-19.29-62.83-59.47-62.83s-67.26,22.76-73.11,57S369.88,312.33,410.05,312.33Z"/><g id="Head"><path class="cls-16" d="M412.51,288.36c-9-10.54-15.06-23.47-14.05-38,2.93-41.72,61-32.54,72.31-11.48s10,74.47-4.65,78.24c-5.82,1.5-18.22-2.18-30.85-9.79l7.93,56.07H396.4Z"/></g><path id="Hair" class="cls-15" d="M432.24,261.67a12.2,12.2,0,0,0-5.72-1.41,11.85,11.85,0,0,0-12,11.7,11.43,11.43,0,0,0,2.4,7,37.64,37.64,0,0,0-5.42,14.68c-9.86,0-45.84-37.3-10-72.4s87.63,15,72.07,17.93C464.63,240.87,446.61,249.41,432.24,261.67Z"/></g><g id="Bottom_Standing_Shorts" data-name="Bottom/Standing/Shorts"><polygon id="Leg" class="cls-17" points="380.7 525.27 454.18 765.5 489.78 969.8 517.69 969.8 480.07 525.27 380.7 525.27"/><path id="Leg-2" data-name="Leg" class="cls-16" d="M354.56,525.27c5,131.7-.88,199.63-2,211.59S336.17,826.41,300,973.13l29.69-10.2c57.14-134.56,76.62-204.5,83.17-222.17s24-89.5,52.22-215.49Z"/><g id="Accessories_Shoe_Flat-Sneaker" data-name="Accessories/Shoe/Flat-Sneaker"><path id="shoe" class="cls-18" d="M300.24,962.78Q297,971.53,297,975.85a97,97,0,0,0,1.76,15.4h110q4.29-14.18-4.95-15.3T388.4,973.9l-51.11-22.78a2,2,0,0,0-2.58,1l0,0-3.28,8q-8.55,4-13.9,4-4.33,0-12-3.51h0a3.9,3.9,0,0,0-5.17,1.92A2.72,2.72,0,0,0,300.24,962.78Z"/></g><g id="Accessories_Shoe_Flat-Sneaker-2" data-name="Accessories/Shoe/Flat-Sneaker"><path id="shoe-2" data-name="shoe" class="cls-18" d="M483.51,962.78q-3.27,8.75-3.27,13.07a98.18,98.18,0,0,0,1.76,15.4H592q4.29-14.18-5-15.3t-15.34-2.05l-51.11-22.78a1.94,1.94,0,0,0-2.57,1l0,0-3.28,8q-8.55,4-13.9,4-4.33,0-12-3.51h0a3.9,3.9,0,0,0-5.17,1.92A2.72,2.72,0,0,0,483.51,962.78Z"/></g><polygon id="Bottom" class="cls-4" points="370.73 525.27 402.09 648.1 497.86 648.1 483.58 525.27 370.73 525.27"/><path id="Bottom-2" data-name="Bottom" class="cls-1" d="M353.24,525.27q-15.48,46.38-5.88,122.83h97.73L472,525.27Z"/></g><g id="Body_Jacket" data-name="Body/Jacket"><path id="Skin" class="cls-16" d="M552.47,494.46l55.23,53.88q24.1,10.29,39.5,22.71c2.31,2.78,4.82,8.12-6,5.73s-22.39-4.41-24.43-.88,4,9,.2,13.57q-3.78,4.62-25.38-29.41L534.12,526.2Zm-245.15,7.41,40.74.16Q310.32,623.86,307.32,631.3c-4.51,11.19,5,28.21,9.12,37.36-13.3,6-11.88-16.08-28.66-8.28-15.31,7.13-26.95,20-44.64,9.12-2.18-1.34-4.56-6.4,1.2-10.35,14.34-9.83,35-27,37.81-32.71Q287.87,614.85,307.32,501.87Z"/><path id="Coat-Back" class="cls-15" d="M423.1,331.09,440,328.2Q483.51,437,592,525.86l-54.65,66.39C465,507.88,420.44,420.83,423.1,331.09Z"/><path id="Shirt" class="cls-2" d="M349.61,542.82H499.74Q447.57,416,447.57,327.3l-45.29-6.75C366.69,377.79,356.64,448.27,349.61,542.82Z"/><path id="Coat-Front" class="cls-19" d="M401.32,320.58l0,0h2.89q5.31.18,16.21.66l11,31.37q1.74,57.35,20.34,231.18H353.29q.38,11.6,1.23,23.4H281.37q16.42-185.23,119.92-286.61Z"/><path id="Shade" class="cls-20" d="M359.77,480.88q4.2,74.63,21,102.88H353.29A514.86,514.86,0,0,1,359.77,480.88Z"/><polygon id="Light" class="cls-21" points="375.05 523.32 423.57 500.76 423.57 523.32 375.05 523.32"/></g></g></g></svg>